<?xml version="1.0" encoding="utf-8"?>
<!-- Generator: Adobe Illustrator 17.0.1, SVG Export Plug-In . SVG Version: 6.00 Build 0)  -->
<!DOCTYPE svg PUBLIC "-//W3C//DTD SVG 1.1//EN" "http://www.w3.org/Graphics/SVG/1.1/DTD/svg11.dtd">
<svg version="1.1" id="Layer_1" xmlns="http://www.w3.org/2000/svg" xmlns:xlink="http://www.w3.org/1999/xlink" x="0px" y="0px"
	 width="548.896px" height="320.38px" viewBox="0 0 548.896 320.38" enable-background="new 0 0 548.896 320.38"
	 xml:space="preserve">
<path fill="#FFFFFF" d="M188.163,188.982c-6.706-0.019-10.293,3.334-13.507,6.859c-5.082,5.576-10.348,10.617-17.379,13.894
	c-6.815,3.176-10.943,9.59-15.319,15.42c-3.417,4.554-7.521,7.91-12.824,9.91c-5.392,2.033-9.911,5.266-13.791,9.595
	c-3.669,4.094-7.857,7.644-12.896,10.109c-2.376,1.162-4.08,0.905-5.545-1.287c-2.313-3.459-4.521-7.003-7.046-10.303
	c-2.174-2.842-1.107-4.829,1.085-6.815c3.375-3.057,7.18-5.505,11.448-6.992c6.145-2.141,11.177-5.71,15.565-10.449
	c4.908-5.3,10.569-9.422,17.461-12.129c9.148-3.593,16.257-10.103,22.96-18.216c-4.729-1.019-7.971,0.877-10.339,3.377
	c-11.663,12.309-27.725,16.587-42.297,23.549c-3.782,1.807-7.274,4.034-10.888,6.083c-2.914,1.653-5.884,3.078-9.158,3.879
	c-2.4,0.587-3.868-0.08-4.351-2.6c-0.376-1.961-0.923-3.896-1.194-5.87c-0.408-2.963-1.423-6.141-0.756-8.881
	c0.884-3.628,5.314-1.386,7.6-3.071c8.175-6.025,17.882-7.683,27.405-9.991c2.186-0.53,4.191-2.004,6.136-3.265
	c1.151-0.746,3.025-1.677,2.081-3.38c-0.858-1.547-2.804-0.92-4.112-0.394c-8.043,3.24-16.283,5.778-24.791,7.454
	c-1.463,0.288-2.878,0.854-4.348,1.072c-9.087,1.347-10.788-0.692-8.1-9.323c0.65-2.087,1.685-3.119,3.869-2.948
	c16.711,1.312,33.577-2.828,50.226,1.57c4.427,1.169,8.973-0.005,13.361-0.969c5.909-1.299,11.724-2.09,17.755-0.466
	c5.282,1.422,10.617,0.038,15.871-0.699c4.672-0.655,9.253-0.828,13.899,0.141c4.114,0.858,8.271,0.846,12.409-0.047
	c1.135-0.245,2.323-0.582,3.45-0.478c13.055,1.204,26.175-0.556,39.23,0.934c2.784,0.318,5.666-0.316,8.475-0.116
	c12.389,0.881,24.84-0.465,37.217,1.145c2.414,0.314,4.992-0.129,7.425-0.589c3.986-0.754,7.847-1.003,11.845,0.151
	c3.904,1.127,7.919,0.597,11.89-0.109c3.108-0.553,6.569-2.01,9.319-1.196c13.898,4.118,28.274-2.015,42.081,2.35
	c1.227,0.388,2.761,0.537,3.959,0.168c8.755-2.7,17.434-1.262,26.146,0.15c1.461,0.237,3.138,0.437,4.47-0.035
	c15.267-5.41,30.774,0.296,46.13-1.059c4.463-0.394,10.392,8.054,8.264,11.825c-1.603,2.841-5.473,1.743-7.774,0.816
	c-9.365-3.774-19.137-6.068-28.806-8.755c-1.08-0.3-2.462-1.041-3.075,0.374c-0.529,1.22,0.749,2.079,1.564,2.84
	c2.413,2.251,5.444,3.441,8.607,3.63c7.392,0.441,13.65,3.536,19.672,7.472c1.345,0.879,3.02,1.902,4.489,1.826
	c5.134-0.264,5.752,2.505,5.062,6.553c-0.475,2.787-0.701,5.622-1.28,8.386c-1.221,5.831-2.5,6.52-8.11,3.987
	c-3.016-1.362-5.84-3.181-8.66-4.94c-4.234-2.641-8.307-5.429-13.481-6.208c-2.195-0.33-4.342-1.708-6.262-2.985
	c-4.72-3.14-9.376-6.2-15.001-7.714c-4.089-1.1-6.99-4.389-10.021-7.25c-2.791-2.635-5.619-5.227-9.255-6.694
	c-1.262-0.509-2.693-1.051-3.673,0.235c-1.015,1.331,0.02,2.471,0.88,3.525c5.475,6.709,12.165,11.958,20.126,15.227
	c9.411,3.864,17.787,8.946,24.351,16.863c3.456,4.169,8.81,5.178,13.41,7.434c10.52,5.158,10.527,5.219,4.316,15.062
	c-0.267,0.423-0.537,0.844-0.813,1.26c-5.688,8.596-7.43,9.073-14.881,1.495c-7.899-8.033-16.21-15.209-26.568-19.923
	c-3.783-1.722-7.091-4.515-9.199-8.231c-3.098-5.462-7.76-9.064-13.211-11.79c-5.759-2.879-10.629-6.72-14.534-11.912
	c-2.7-3.589-5.796-6.924-10.249-8.483c-1.394-0.488-3.048-1.282-4.129,0.207c-1.028,1.417,0.605,2.378,1.311,3.376
	c6.665,9.429,14.212,17.963,24.116,24.199c4.18,2.632,7.198,6.483,9.383,10.855c3.248,6.496,8.125,11.338,14.353,14.878
	c7.222,4.105,13.41,9.253,17.647,16.542c0.658,1.131,1.669,2.071,2.584,3.036c5.744,6.054,5.751,6.048-1.004,11.64
	c-9.376,7.761-9.379,7.767-19.445,0.989c-5.077-3.419-9.048-7.527-11.093-13.645c-2.097-6.273-7.296-10.323-12.81-13.54
	c-6.186-3.609-10.513-8.578-13.194-15.125c-2.215-5.409-6.208-9.377-10.563-13.082c-5.633-4.793-10.135-10.477-13.84-16.919
	c-3.185-5.539-7.566-10.138-13.384-13.096c-1.317-0.669-3.07-1.459-4.158-0.13c-0.889,1.087,0.216,2.489,0.929,3.62
	c5.501,8.726,10.642,17.656,18.78,24.444c5.506,4.592,8.393,11.181,10.789,17.767c3.624,9.96,9.157,18.366,17.604,24.925
	c5.468,4.246,9.565,9.577,11.716,16.411c1.569,4.983,4.893,9.096,8.658,12.69c2.146,2.049,1.734,3.084-0.724,4.257
	c-7.067,3.373-14.22,6.523-21.522,9.359c-2.259,0.877-3.521,0.282-4.323-1.752c-1.096-2.78-2.429-5.523-3.071-8.413
	c-2.047-9.208-6.281-17.207-12.924-23.826c-6.579-6.556-10.587-14.358-12.783-23.311c-2.291-9.341-6.12-17.831-13.354-24.667
	c-4.651-4.395-6.798-10.6-9.583-16.276c-2.435-4.961-5.203-9.687-9.495-13.326c-1.276-1.082-2.556-2.227-4.272-2.466
	c-1.845-0.257-3.425-0.392-2.327,2.524c4.806,12.77,9.085,25.734,19.347,35.611c4.512,4.343,5.387,10.619,6.702,16.441
	c2.398,10.624,5.351,20.838,12.355,29.66c4.736,5.964,6.114,13.607,7.501,20.987c0.833,4.431,1.485,8.884,3.7,12.885
	c1.316,2.378,0.292,3.251-1.969,3.752c-6.659,1.477-13.301,3.034-19.946,4.574c-1.949,0.452-3.256-0.017-3.601-2.21
	c-0.154-0.982-0.714-1.938-0.704-2.902c0.161-15.03-6.316-28.068-12.199-41.315c-2.514-5.662-3.789-11.652-3.934-17.919
	c-0.238-10.284-4.191-19.511-9.192-28.214c-3.724-6.481-6.066-13.232-7.131-20.588c-0.621-4.287-1.889-8.501-5.185-11.665
	c-1.008-0.968-2.122-2.487-3.783-1.033c-1.341,1.173-1.865,2.412-0.693,4.292c3.859,6.193,4.077,13.1,3.596,20.136
	c-0.278,4.066,0.693,7.81,2.852,11.415c4.373,7.301,6.372,15.456,6.377,23.863c0.005,8.014,1.609,15.49,4.781,22.767
	c2.011,4.614,2.905,9.401,2.729,14.561c-0.264,7.769,1.933,15.141,5.169,22.192c0.693,1.509,1.266,3.073,1.901,4.609
	c1.367,3.308,1.016,5.212-3.3,5.405c-6.812,0.304-13.628,0.922-20.391,1.801c-4.026,0.523-5.331-1.274-5.65-4.782
	c-0.56-6.165-0.735-12.365,0.243-18.454c1.304-8.118,0.611-15.876-2.291-23.556c-2.871-7.596-4.03-15.154-1.563-23.395
	c1.979-6.608,0.361-13.601-1.718-20.174c-2.299-7.265-3.126-14.538-2.144-22.161c0.654-5.077,1.019-10.314-0.659-15.368
	c-0.411-1.238-0.601-2.773-2.217-3.014c-1.907-0.284-2.511,1.351-3.202,2.631c-2.185,4.049-1.909,8.479-1.243,12.723
	c1.453,9.254,0.698,18.33-1.912,27.19c-1.752,5.948-1.62,11.822-0.959,17.796c0.926,8.368,0.914,16.578-2.446,24.56
	c-4.025,9.56-3.568,19.393-1.873,29.458c2.888,17.147,2.656,17.191-14.44,15.783c-4.149-0.342-8.289-0.838-12.444-1.052
	c-2.637-0.136-3.964-1.088-2.623-3.654c5.962-11.413,4.586-24.396,7.753-36.175c3.812-14.178,7.091-28.266,8.833-42.797
	c0.267-2.226,1.589-4.358,2.585-6.457c3.328-7.014,5.552-14.229,5.084-22.145c-0.312-5.283,1.953-10.073,3.491-14.983
	c0.392-1.252,1.194-2.814-0.13-3.674c-1.522-0.988-2.861,0.291-3.878,1.392c-2.787,3.015-4.34,6.718-5.289,10.625
	c-2.21,9.093-5.1,17.819-9.952,25.981c-3.928,6.608-5.761,14.137-6.379,21.891c-0.647,8.124-1.982,16.09-6.516,23.122
	c-6.347,9.844-8.035,21.043-9.165,32.318c-1.168,11.664-3.754,13.595-14.8,10.056c-0.289-0.093-0.47-0.495-0.759-0.617
	c-3.948-1.67-10.125-0.721-11.711-4.033c-1.324-2.765,2.544-7.45,3.249-11.59c0.838-4.92,1.849-9.814,2.929-14.688
	c1.281-5.781,3.727-10.986,7.731-15.459c5.428-6.064,7.434-13.689,9.118-21.351c2.281-10.373,5.523-20.09,13.243-28.013
	c4.425-4.541,6.817-10.606,8.939-16.616c0.942-2.669,2.014-5.293,2.913-7.975c0.546-1.628,3.19-3.287,1.528-4.724
	c-1.823-1.577-3.99,0.553-5.758,1.612c-3.557,2.13-6.071,5.361-7.434,9.163c-3.405,9.503-8.117,18.014-14.983,25.618
	c-6.186,6.851-9.244,15.761-12.359,24.383c-2.352,6.511-5.533,12.517-10.48,17.287c-7.948,7.665-12.545,17.006-15.579,27.45
	c-2.834,9.755-3.35,9.913-12.409,6.185c-5.141-2.116-10.055-4.777-15.139-7.041c-2.382-1.061-2.691-2.074-0.649-3.811
	c6.698-5.7,11.97-12.218,14.633-20.955c1.659-5.442,6.342-9.339,10.587-13.087c6.028-5.322,10.288-11.667,12.863-19.278
	c2.771-8.191,6.984-15.422,14.218-20.638c3.144-2.267,5.162-5.627,7.015-9.009c2.716-4.956,4.93-10.217,8.983-14.348
	c1.119-1.141,1.665-2.665,0.58-4.064c-1.07-1.38-2.471-0.466-3.654,0.022c-4.438,1.831-7.964,4.877-10.713,8.733
	c-2.316,3.249-4.382,6.681-6.467,10.087c-3.149,5.144-6.765,9.802-11.492,13.693c-5.968,4.911-10.826,10.796-13.7,18.15
	c-1.588,4.064-4.945,6.7-8.437,8.968c-6.764,4.392-12.048,9.894-14.775,17.64c-2.944,8.365-11.504,10.7-17.339,15.965
	c-1.213,1.095-2.204,0.074-3.086-0.586c-4.531-3.393-8.986-6.889-13.541-10.25c-2.01-1.484-2.182-2.437,0.094-3.957
	c3.954-2.642,6.964-6.339,8.857-10.639c2.213-5.029,5.86-8.524,10.523-10.914c9.508-4.875,16.589-12.051,21.89-21.264
	c3.273-5.688,7.731-10.192,13.674-13.489C177.161,205.798,182.126,197.572,188.163,188.982z"/>
<path fill="#FFFFFF" d="M464.005,177.476c-2.735,1.438-5.253,0.922-7.659,0.922c-122.143,0.026-244.287,0.015-366.43,0.009
	c-0.167,0-0.343,0.039-0.498-0.003c-1.581-0.424-4.483,1.078-4.48-1.419c0.002-2.229,2.885-1.581,4.608-1.582
	c53.49-0.031,106.981-0.026,160.471-0.028c18.248,0,36.497-0.002,54.745-0.003c50.976-0.001,101.951-0.001,152.927-0.006
	C459.847,175.367,462.053,175.156,464.005,177.476z"/>
<path fill="#FFFFFF" d="M274.252,150.099c51.805,0,103.61,0,155.415,0.001c3.831,0,7.664-0.053,11.493,0.044
	c1.761,0.045,3.729-0.586,5.179,1.019c0.482,0.533,0.563,1.22-0.077,1.733c-1.702,1.364-3.701,1.696-5.636,0.882
	c-2.283-0.96-4.598-0.628-6.897-0.628c-108.774-0.018-217.548,0.002-326.321-0.069c-1.983-0.001-5.623,1.433-5.654-1.549
	c-0.025-2.441,3.613-1.343,5.589-1.345c55.636-0.067,111.272-0.054,166.909-0.054C274.252,150.121,274.252,150.11,274.252,150.099z"
	/>
<path fill="#FFFFFF" d="M438.836,144.357c-2.709,0-4.827,0-6.945,0c-105.648,0.008-211.296,0.022-316.944-0.031
	c-1.767-0.001-5.058,1.007-5.055-1.109c0.004-2.862,3.363-1.843,5.321-1.844c105.648-0.051,211.296-0.051,316.944-0.024
	C434.359,141.349,436.929,140.614,438.836,144.357z"/>
<path fill="#FFFFFF" d="M453.241,86.573c5.894-9.739,11.463-17.773,15.936-26.506c1.597-3.118,1.026-5.333-1.74-7.26
	c-0.646-0.45-1.372-1.169-0.636-2.056c0.718-0.865,1.473-0.273,2.173,0.181c4.26,2.763,8.523,5.523,12.773,8.277
	c-0.405,0.629-0.661,1.133-0.725,1.11c-5.132-1.863-7.825,0.954-10.262,4.948c-6.064,9.941-12.308,19.771-18.536,29.612
	c-0.858,1.356-1.214,3.149-3.777,4.22c-2.902-17.892-5.769-35.563-8.745-53.913c-2.639,2.27-3.816,5.011-5.309,7.437
	c-4.01,6.512-7.892,13.104-11.765,19.699c-1.335,2.274-1.967,4.588,0.503,6.661c0.502,0.421,0.788,1.099,1.174,1.658
	c-0.948-0.125-1.561,1.304-2.673,0.527c-3.871-2.703-7.76-5.38-11.579-8.023c0.778-1.859,1.894-1.221,2.634-0.776
	c2.679,1.61,4.446,0.389,5.837-1.784c6.368-9.945,12.754-19.88,18.984-29.912c1.916-3.085,0.568-5.708-2.035-7.849
	c-0.604-0.497-1.407-1.152-0.624-2.052c0.744-0.855,1.492-0.209,2.18,0.227c4.933,3.127,9.286,5.556,9.545,13.259
	C447.034,57.967,450.372,71.49,453.241,86.573z"/>
<path fill="#FFFFFF" d="M242.808,45.513c-6.202,3.121-11.988,2.279-16.964-2.265c-3.926-3.584-7.464-7.593-11.163-11.424
	c-1.274-1.32-2.464-2.729-4.514-2.826c-3.527-0.168-6.031,0.557-4.817,5.002c0.437,1.598,0.633,3.264,0.915,4.902
	c0.853,4.968,0.658,10.699,8.751,10.346c-0.192,0.483-0.385,0.966-0.577,1.449c-6.213,1.113-12.426,2.226-18.64,3.339
	c-0.427-0.347-0.854-0.693-1.282-1.04c9.404-2.947,5.795-9.213,4.9-14.71c-1.39-8.537-2.886-17.057-4.409-25.571
	c-0.529-2.96-0.926-6.182-5.303-5.639c-0.854,0.106-1.786-0.238-1.64-1.287c0.067-0.483,0.814-1.131,1.353-1.25
	c8.107-1.78,16.133-4.338,24.556-3.802c4.965,0.316,9.034,2.599,10.78,7.588c1.871,5.344,0.981,10.467-3.354,14.143
	c-3.055,2.591-2.69,4.193-0.122,6.589c2.795,2.608,5.239,5.589,7.995,8.242C233.106,40.989,237.133,44.452,242.808,45.513z
	 M207.417,3.913c-6.453,0.014-7.11,0.738-6.102,7.004c0.658,4.089,1.373,8.17,2.152,12.237c0.296,1.541,0.276,3.222,2.739,3.391
	c6.713,0.461,12.323-3.782,12.686-9.886C219.329,9.323,214.445,3.898,207.417,3.913z"/>
<path fill="#FFFFFF" d="M417.478,127.466c-96.274,0-191.287,0-287.059,0c2.198-3.094,4.474-3.163,6.8-3.163
	c91.101,0.008,182.201,0.013,273.302-0.003C412.736,124.3,414.762,124.564,417.478,127.466z"/>
<path fill="#FFFFFF" d="M102.528,70.836c5.639-3.564,10.847-6.917,16.132-10.143c0.981-0.599,1.815,0.538,1.441,1.219
	c-4.293,7.82,2.47,10.988,6.34,15.376c0.107,0.121,0.16,0.29,0.283,0.523c-6.994,7.76-14.713,14.471-25.404,16.585
	c-11.281,2.23-21.067-1.881-26.727-11.092c-5.785-9.417-5.303-20.618,1.373-29.506c5.631-7.498,13.515-11.614,22.133-14.686
	c3.04-1.084,3.349,1.592,4.342,2.916c1.372,1.828,4.784,3.731,3.224,5.818c-1.272,1.7-3.44-1.543-5.32-2.364
	c-7.126-3.113-18.915,2.924-22.758,11.802c-4,9.242,1.082,22.291,11.458,29.417c8.314,5.71,19.233,4.764,26.691-2.195
	c2.442-2.278,3.11-4.589,1.081-7.438c-0.771-1.083-1.513-2.209-2.101-3.398c-1.901-3.851-4.472-5.132-8.361-2.55
	C105.628,71.602,104.683,72.365,102.528,70.836z"/>
<path fill="#FFFFFF" d="M90.408,167.756c122.505,0,245.011,0,367.516,0c0,0.406-0.001,0.811-0.001,1.217
	c-122.513,0-245.026,0-367.539,0C90.392,168.567,90.4,168.161,90.408,167.756z"/>
<path fill="#FFFFFF" d="M96.319,159.468c118.836,0,237.672,0,356.507,0c0,0.41,0,0.821,0.001,1.231c-118.83,0-237.661,0-356.491,0
	C96.33,160.289,96.324,159.879,96.319,159.468z"/>
<path fill="#FFFFFF" d="M509.638,184.145c-2.18-5.755-4.359-11.509-6.539-17.264c0.283-0.425,0.566-0.849,0.848-1.274
	c3.081,5.816,5.82,3.939,9.225,0.986c8.142-7.06,8.664-9.68,3.052-19.376c-0.939-1.622-2.102-1.918-3.671-1.842
	c-2.659,0.128-5.322,0.204-7.977,0.392c-3.625,0.256-7.986-0.149-5.377,6.228c-3.005-1.987-6.304-9.558-6.948-16.047
	c5.933,9.21,14.423,5.674,21.813,5.981c9.784,0.407,19.612-0.14,29.417-0.418c2.29-0.065,4.149,1.151,5.076,2.547
	c1.28,1.928-1.41,2.573-2.509,3.504c-9.525,8.062-19.27,15.869-28.684,24.056C510.296,177.766,511.297,175.136,509.638,184.145z
	 M519.247,145.357c1.328,3.552,2.468,6.63,3.63,9.699c0.503,1.328,1.066,2.619,2.776,1.211c4.147-3.415,8.291-6.833,13.237-10.91
	C531.717,145.357,525.729,145.357,519.247,145.357z"/>
<path fill="#FFFFFF" d="M43.414,170.766c-1.881,4.891-3.761,9.781-5.642,14.672c-0.504,0.083-1.008,0.167-1.512,0.25
	c2.382-8.832-4.724-11.696-9.217-15.95c-7.97-7.545-16.301-14.718-24.635-21.867c-1.902-1.632-2.712-3.725-2.304-5.625
	c0.449-2.093,2.845-0.859,4.316-0.813c11.145,0.346,22.283,0.88,33.427,1.261c6.058,0.207,12.723,2.584,16.776-5.168
	c0.316,0.359,0.632,0.718,0.947,1.077c-1.934,5.337-3.851,10.681-5.827,16.003c-0.221,0.594-0.754,1.153-1.567,0.825
	c-0.763-0.307-0.867-0.947-0.602-1.621c1.518-3.863-1.046-4.148-3.755-4.312c-0.831-0.05-1.662-0.089-2.494-0.121
	c-10.293-0.392-10.093-0.308-14.019,9.1c-1.639,3.929-1.292,6.541,2.401,8.735c1.413,0.839,2.566,2.109,3.863,3.152
	c2.936,2.359,5.891,5.95,8.814-1.165C42.727,169.721,43.071,170.244,43.414,170.766z M8.026,148.485
	c5.291,4.549,9.783,8.411,14.66,12.604c1.417-3.662,2.442-6.648,3.725-9.519c1.032-2.309,0.176-3.076-2.021-3.081
	C19.294,148.476,14.198,148.485,8.026,148.485z"/>
<path fill="#FFFFFF" d="M332.507,49.424c6.816,0.288,6.422-3.661,5.419-7.709c-0.795-3.206,0.489-7.623-2.143-9.455
	c-3.603-2.508-8.594-2.035-12.972-2.924c-1.589-0.323-2.424,0.7-3.089,1.959c-1.241,2.352-2.483,4.705-3.783,7.026
	c-1.917,3.423-4.791,7.016,3.013,8.121c-4.16,1.545-12.519,0.286-18.036-2.606c9.996,0.546,11.317-7.318,14.735-12.624
	c5.848-9.08,11.119-18.541,16.395-27.974c1.248-2.232,3.284-3.265,5.107-3.237c1.988,0.03,1.288,2.684,1.529,4.159
	c2.174,13.297,4.234,26.613,6.288,39.93c0.527,3.416,1.184,6.637,5.326,7.475c0.632,0.128,1.207,0.709,0.979,1.455
	c-0.111,0.364-0.718,0.891-1.012,0.839c-5.732-1.006-11.45-2.086-17.172-3.151C332.897,50.279,332.702,49.852,332.507,49.424z
	 M333.254,9.743c-0.35-0.053-0.7-0.107-1.049-0.16c-2.712,4.708-5.392,9.434-8.152,14.113c-0.957,1.622-0.661,2.322,1.24,2.578
	c2.623,0.354,5.24,0.813,7.825,1.382c2.006,0.441,2.832-0.051,2.49-2.216C334.78,20.214,334.033,14.976,333.254,9.743z"/>
<path fill="#FFFFFF" d="M164.861,109.764c1.808-2.367,4.073-2.469,6.41-2.469c67.986,0.008,135.972,0.016,203.957-0.029
	c2.703-0.002,4.998,1.041,7.389,2.498C310.17,109.764,237.722,109.764,164.861,109.764z"/>
<path fill="#FFFFFF" d="M423.937,134.973c-101.099,0-202.198,0-303.789,0C123.423,132.86,417.541,132.153,423.937,134.973z"/>
<path fill="#FFFFFF" d="M146.489,118.249c4.566-3.068,250.156-3.052,254.429,0C315.979,118.249,231.481,118.249,146.489,118.249z"/>
<path fill="#FFFFFF" d="M193.47,100.839c3.507-2.187,153.786-2.59,158.414,0C299.208,100.839,246.532,100.839,193.47,100.839z"/>
<path fill="#FFFFFF" d="M237.548,91.096c27.856,0.259,55.724-0.701,83.569,0.652c-0.005,0.477-0.01,0.953-0.015,1.429
	c-27.858,0-55.717,0-83.575,0C237.534,92.484,237.541,91.79,237.548,91.096z"/>
</svg>
