<?xml version="1.0" encoding="utf-8"?>
<!-- Generator: Adobe Illustrator 17.0.1, SVG Export Plug-In . SVG Version: 6.00 Build 0)  -->
<!DOCTYPE svg PUBLIC "-//W3C//DTD SVG 1.1//EN" "http://www.w3.org/Graphics/SVG/1.1/DTD/svg11.dtd">
<svg version="1.1" id="Layer_1" xmlns="http://www.w3.org/2000/svg" xmlns:xlink="http://www.w3.org/1999/xlink" x="0px" y="0px"
	 width="500px" height="145.08px" viewBox="0 0 500 145.08" enable-background="new 0 0 500 145.08" xml:space="preserve">
<path fill="#FFFFFF" d="M79.886,16.284c-1.366,0.569-2.399-0.416-3.488-0.859c-6.22-2.533-12.65-4.2-19.337-4.758
	c-5.008-0.418-9.859,0.294-14.315,2.785c-6.977,3.901-10.226,11.218-8.04,18.991c0.641,2.281-0.273,2.594-1.868,3.022
	c-6.012,1.613-10.332,5.024-11.109,11.524c-0.508,4.251,0.981,8.222,3.013,11.923c5.081,9.249,13.175,15.356,21.917,20.731
	c2.617,1.609,5.409,2.931,8.577,4.629c0.273-4.993-0.681-9.354-1.902-13.65c-0.192-0.675-1.286-1.108-1.986-1.621
	c-5.089-3.727-10.049-7.588-13.595-12.936c0.134-0.143,0.268-0.286,0.403-0.429c10.282,9.076,22.235,14.643,35.73,16.901
	c6.572,1.1,13.131,1.122,19.549-0.974c8.309-2.714,11.714-9.138,9.147-17.532c-3.222-10.537-10.701-17.595-19.756-23.114
	c-8.815-5.372-18.327-8.605-29.26-7.728c1.893-1.72,3.82-2.134,5.859-2.263c10.618-0.668,19.974,3.165,28.824,8.404
	c10.491,6.211,18.96,14.41,23.798,25.876c2.166,5.133,3.032,10.391,1.288,15.845c-2.399,7.507-9.838,12.562-18.595,12.904
	c-8.602,0.336-16.682-1.774-24.595-4.828c-1.25-0.482-2.483-1.009-4.042-1.646c-1.086,11.486-0.257,22.214,7.623,31.724
	c-8.871,0-17.287,0-26.112,0c3.542-4.888,5.858-10.024,6.821-15.717c0.048-0.285,0.176-0.557,0.225-0.843
	c0.719-4.221,0.699-4.166-3.451-5.535C34.538,81.613,19.703,73.181,8.135,59.69c-3.298-3.846-5.801-8.208-7.157-13.164
	C0.818,45.941,0.802,45.135,0,44.872c0-2.331,0-4.662,0-6.993c2.75-6.296,7.502-10.139,14.288-11.153
	c2.817-0.421,2.69-1.536,1.95-3.77c-3.301-9.964,0.758-17.897,10.705-21.191c2.06-0.682,4.181-1.181,6.274-1.765
	c3.691,0,7.382,0,11.072,0c3.426,0.767,6.885,1.414,10.273,2.324c9.568,2.572,18.108,7.053,25.266,14L79.886,16.284z"/>
<path fill="#FFFFFF" d="M143.149,41.715c6.612-0.279,13.149,0.164,19.396,2.597c8.872,3.456,13.24,11.427,10.511,19.255
	c-1.805,5.177-5.845,8.003-10.82,9.723c-0.612,0.212-1.561,0.077-1.651,0.916c-0.121,1.122,1.023,0.968,1.658,1.193
	c6.117,2.167,11.156,5.633,13.101,12.126c2.391,7.98-1.588,15.963-9.396,19.668c-4.715,2.237-9.779,3.064-14.89,3.347
	c-8.45,0.469-16.825-0.106-24.995-2.638c-1.819-0.564-2.587-1.267-2.576-3.341c0.094-18.924,0.095-37.85-0.002-56.774
	c-0.011-2.048,0.665-2.94,2.507-3.479C131.596,42.67,137.298,41.762,143.149,41.715z M138.777,89.411c0,1.748,0,3.496,0,5.245
	c0,7.161,1.251,8.283,8.508,7.621c1.257-0.115,2.527-0.168,3.764-0.394c4.843-0.883,8.165-4.363,8.6-8.925
	c0.675-7.08-1.461-11.341-6.666-13.365c-4.17-1.621-8.528-1.524-12.889-1.515c-1.313,0.003-1.327,0.777-1.323,1.718
	C138.788,83.001,138.778,86.206,138.777,89.411z M138.777,60.606c0,2.907,0.085,5.817-0.032,8.72
	c-0.069,1.712,0.356,2.41,2.237,2.364c2.907-0.072,5.804-0.167,8.668-0.652c5.35-0.906,8.11-3.884,8.729-9.303
	c0.605-5.297-1.529-9.522-5.764-11.219c-3.912-1.566-7.964-1.161-12.006-0.674c-1.377,0.166-1.919,0.886-1.863,2.335
	C138.854,54.983,138.777,57.796,138.777,60.606z"/>
<path fill="#FFFFFF" d="M465.563,81.298c4.995-7.241,10.041-14.447,14.946-21.748c1.097-1.634,2.249-2.32,4.234-2.239
	c3.946,0.16,7.904,0.047,12.438,0.047c-1.763,2.369-3.217,4.356-4.706,6.318c-3.868,5.098-7.71,10.217-11.655,15.255
	c-1.05,1.341-1.131,2.247-0.077,3.712c5.885,8.179,11.631,16.458,17.422,24.705c0.426,0.607,0.831,1.229,1.523,2.255
	c-5.658,0-10.852-0.033-16.044,0.02c-1.546,0.016-1.851-1.187-2.437-2.128c-5.212-8.366-10.409-16.741-15.656-25.189
	c-0.904,0.805-0.479,1.721-0.483,2.497c-0.04,7.573-0.068,15.146,0.01,22.719c0.017,1.609-0.385,2.18-2.073,2.125
	c-3.783-0.123-7.574-0.108-11.357-0.005c-1.549,0.042-1.95-0.468-1.947-1.975c0.043-23.399,0.045-46.798-0.004-70.196
	c-0.003-1.584,0.494-2.301,2.05-2.466c3.56-0.377,7.159-0.6,10.651-1.323c2.678-0.555,2.684,0.637,2.676,2.625
	c-0.057,13.981-0.03,27.962-0.03,41.943c0,0.956,0,1.912,0,2.867C465.216,81.178,465.389,81.238,465.563,81.298z"/>
<path fill="#FFFFFF" d="M336.615,84.732c0-7.477,0.007-14.953-0.006-22.43c-0.002-1.184-0.107-2.259,1.452-2.712
	c11.919-3.463,23.958-4.716,36.038-1.202c7.107,2.068,10.526,7.188,10.542,14.545c0.025,11.361-0.067,22.722,0.071,34.081
	c0.028,2.285-0.677,2.748-2.766,2.642c-3.39-0.173-6.802-0.183-10.19,0.003c-2.125,0.116-2.525-0.653-2.508-2.615
	c0.094-10.777,0.041-21.556,0.047-32.334c0.002-3.503-0.306-6.964-3.892-8.748c-4.17-2.075-8.493-1.442-12.719-0.03
	c-1.262,0.422-0.641,1.69-0.643,2.548c-0.042,12.72-0.095,25.441,0.03,38.16c0.023,2.371-0.469,3.222-2.97,3.03
	c-3.186-0.244-6.42-0.255-9.603,0.002c-2.586,0.209-2.982-0.791-2.936-3.092C336.708,99.299,336.615,92.015,336.615,84.732z"/>
<path fill="#FFFFFF" d="M229.647,89.27c0,5.24-0.06,10.482,0.038,15.721c0.027,1.477-0.365,2.327-1.803,2.754
	c-11.265,3.343-22.648,4.239-34.057,1.043c-5.887-1.649-10.117-5.388-10.823-11.868c-0.829-7.615,1.833-12.453,8.524-15.929
	c6.744-3.503,14.174-4.334,21.558-5.159c1.801-0.201,2.268-0.715,2.235-2.416c-0.108-5.695-2.884-8.363-9.31-8.67
	c-5.002-0.239-9.839,0.748-14.502,2.422c-1.632,0.586-2.123,0.18-2.734-1.226c-2.641-6.08-2.686-6.087,3.787-7.661
	c8.176-1.988,16.415-2.824,24.674-0.61c7.796,2.09,12.231,7.839,12.367,15.88c0.089,5.239,0.017,10.48,0.017,15.721
	C229.628,89.27,229.637,89.27,229.647,89.27z M215.291,91.885c0-2.807-0.04-5.615,0.018-8.42c0.026-1.25-0.135-2.057-1.703-1.867
	c-4.032,0.488-8.071,1.001-11.635,3.113c-3.719,2.205-5.035,5.736-4.76,9.875c0.278,4.174,2.309,7.128,6.525,8.184
	c3.135,0.785,6.301,0.681,9.47,0.049c1.61-0.321,2.213-1.124,2.124-2.806C215.189,97.31,215.293,94.595,215.291,91.885z"/>
<path fill="#FFFFFF" d="M418.493,56.469c18.051-0.021,23.634,12.105,23.837,25.795c0.018,1.21-0.302,1.578-1.572,1.734
	c-10.457,1.288-20.897,2.721-31.353,4.02c-1.79,0.222-2.267,0.753-1.811,2.588c1.688,6.802,5.968,10.385,13.278,10.698
	c4.776,0.205,9.49-0.4,13.997-1.994c1.625-0.575,2.178-0.108,2.753,1.279c2.845,6.866,2.904,7.01-4.367,8.652
	c-7.026,1.586-14.133,2.223-21.281,0.472c-11.572-2.835-18.72-11.532-19.205-23.454c-0.178-4.376,0.024-8.716,1.248-12.95
	C397.169,62.41,405.873,56.433,418.493,56.469z M406.206,78.476c-0.062,3.575-0.064,3.562,3.012,3.161
	c4.787-0.624,9.571-1.28,14.367-1.825c4.24-0.482,4.569-0.817,4.112-5.052c-0.678-6.286-3.924-9.964-9.287-10.523
	c-5.168-0.538-9.847,2.969-11.393,8.74C406.523,74.824,406.046,76.73,406.206,78.476z"/>
<path fill="#FFFFFF" d="M293.706,71.901c0,11.742-0.055,23.484,0.052,35.225c0.019,2.071-0.55,2.62-2.571,2.527
	c-3.68-0.169-7.375-0.116-11.059-0.016c-1.569,0.043-2.173-0.303-2.168-2.041c0.062-23.289,0.062-46.579,0.022-69.868
	c-0.003-1.656,0.577-2.096,2.166-2.236c3.754-0.331,7.523-0.73,11.212-1.471c2.137-0.429,2.39,0.209,2.38,2.074
	C293.673,48.029,293.705,59.965,293.706,71.901z"/>
<path fill="#FFFFFF" d="M240.62,84.493c0.002-7.473,0.038-14.946-0.029-22.418c-0.013-1.475,0.389-2.209,1.86-2.721
	c8.598-2.996,17.498-2.941,26.416-2.853c1.273,0.013,1.141,0.736,0.935,1.507c-0.598,2.234-1.234,4.458-1.874,6.681
	c-0.356,1.237-1.112,1.257-2.24,0.907c-2.259-0.7-4.617-0.479-6.923-0.257c-1.911,0.184-2.91,1.018-2.883,3.36
	c0.148,12.614-0.019,25.233,0.143,37.847c0.034,2.632-0.689,3.291-3.199,3.115c-3.283-0.23-6.602-0.185-9.892-0.009
	c-1.997,0.107-2.376-0.627-2.354-2.45C240.673,99.633,240.618,92.063,240.62,84.493z"/>
<path fill="#FFFFFF" d="M323.361,83.921c0,7.766-0.06,15.533,0.043,23.298c0.025,1.888-0.464,2.513-2.405,2.435
	c-3.78-0.153-7.572-0.107-11.356-0.014c-1.479,0.037-1.993-0.328-1.987-1.911c0.059-15.144,0.052-30.288,0.009-45.432
	c-0.004-1.421,0.37-2.096,1.868-2.28c3.934-0.482,7.861-1.043,11.77-1.698c1.794-0.3,2.1,0.416,2.087,2.012
	C323.325,68.194,323.361,76.058,323.361,83.921z"/>
<path fill="#FFFFFF" d="M323.426,44.428c0.001,5.531,0.002,5.539-5.551,6.378c-2.669,0.403-5.368,0.648-8.004,1.202
	c-1.577,0.331-2.069,0.039-2.001-1.597c0.109-2.609,0.104-5.228-0.002-7.837c-0.054-1.337,0.434-1.939,1.702-2.128
	c4.194-0.626,8.385-1.27,12.571-1.942c1.097-0.176,1.319,0.338,1.295,1.278C323.397,41.33,323.426,42.88,323.426,44.428z"/>
<path fill="#FFFFFF" d="M287.456,133.009c-0.811,3.168-1.662,6.327-2.411,9.51c-0.249,1.056-0.19,2.073-1.752,2.149
	c-1.575,0.076-1.397-1.18-1.599-1.933c-0.972-3.624-1.804-7.286-2.674-10.937c-0.133-0.558-0.894-1.302,0.293-1.572
	c0.915-0.208,1.182,0.571,1.35,1.199c0.693,2.602,1.314,5.224,1.973,7.835c0.225,0.889,0.486,1.769,0.951,3.448
	c0.984-4.034,1.742-7.3,2.596-10.542c0.223-0.848,0.239-2.019,1.659-1.978c1.294,0.038,1.141,1.044,1.348,1.848
	c0.824,3.213,1.666,6.422,3.012,9.666c0.859-3.272,1.734-6.539,2.564-9.818c0.186-0.734,0.097-1.805,1.169-1.614
	c1.394,0.248,0.651,1.388,0.48,2.098c-0.836,3.458-1.797,6.885-2.634,10.343c-0.236,0.977-0.25,1.841-1.623,1.956
	c-1.531,0.128-1.438-1.005-1.655-1.834c-0.867-3.31-1.66-6.64-2.481-9.962C287.833,132.917,287.645,132.963,287.456,133.009z"/>
<path fill="#FFFFFF" d="M483.72,144.45c-1.85,0.713-1.894-0.936-2.518-1.885c-1.005-1.529-1.238-3.709-3.734-3.972
	c-1.912-0.202-2.802,0.094-2.73,2.333c0.038,1.161,1.167,3.475-0.911,3.489c-1.547,0.01-0.666-2.221-0.727-3.41
	c-0.153-2.99,0.002-5.995-0.074-8.992c-0.034-1.346,0.344-1.994,1.787-1.846c1.343,0.138,2.716,0.049,4.042,0.266
	c3.246,0.532,4.541,4.022,2.31,6.481c-0.826,0.91-0.928,1.249-0.117,2.168c0.812,0.921,1.377,2.091,1.903,3.22
	C483.262,142.968,483.908,143.551,483.72,144.45z M474.777,133.557c0.153,1.968-0.571,3.677,1.973,3.458
	c1.889-0.163,3.513-0.311,3.489-2.721c-0.023-2.196-1.472-2.465-3.292-2.644C474.674,131.427,474.654,132.657,474.777,133.557z"/>
<path fill="#FFFFFF" d="M377.128,133.497c0,3.018,0.044,6.061-0.033,9.102c-0.018,0.694,0.649,2.036-0.858,1.947
	c-1.361-0.081-0.774-1.347-0.787-2.091c-0.061-3.39-0.046-6.781-0.012-10.172c0.008-0.789-0.391-1.838,0.933-2.079
	c1.104-0.202,1.833,0.236,2.345,1.218c1.76,3.378,3.55,6.74,5.899,9.991c0-3.131-0.023-6.262,0.018-9.392
	c0.009-0.676-0.396-1.738,0.832-1.783c1.255-0.046,0.907,1.025,0.914,1.709c0.034,3.487,0.061,6.976-0.021,10.462
	c-0.017,0.725,0.667,1.863-0.665,2.181c-1.315,0.314-2.108-0.282-2.71-1.516c-1.396-2.858-2.92-5.655-4.445-8.447
	C378.302,134.194,378.309,133.418,377.128,133.497z"/>
<path fill="#FFFFFF" d="M434.132,137.356c0.031-4.526,2.664-7.427,6.721-7.405c4,0.022,6.685,3.023,6.7,7.486
	c0.014,4.404-2.73,7.561-6.643,7.641C436.861,145.161,434.101,142.017,434.132,137.356z M435.941,137.576
	c0.043,3.64,1.956,5.95,4.912,5.931c2.898-0.018,4.844-2.435,4.848-6.021c0.004-3.485-2.033-6.114-4.791-6.183
	C438.015,131.231,435.898,133.904,435.941,137.576z"/>
<path fill="#FFFFFF" d="M315.4,137.47c0.003,4.574-2.555,7.546-6.537,7.598c-3.892,0.05-6.713-3.043-6.798-7.456
	c-0.088-4.55,2.701-7.693,6.799-7.661C312.912,129.982,315.398,132.841,315.4,137.47z M313.519,137.582
	c0.022-4.471-2.562-7.045-6.003-5.977c-2.832,0.878-4.142,4.092-3.286,8.061c0.546,2.535,2.484,3.996,5.034,3.796
	C312.003,143.246,313.501,141.177,313.519,137.582z"/>
<path fill="#FFFFFF" d="M459.963,129.95c3.964,0.066,6.571,3.086,6.545,7.583c-0.025,4.442-2.759,7.527-6.679,7.538
	c-4.05,0.011-6.705-3.119-6.627-7.813C453.278,132.699,455.884,129.881,459.963,129.95z M464.534,137.554
	c0.022-4.422-2.556-7.006-5.954-5.967c-2.837,0.867-4.193,4.047-3.388,7.945c0.552,2.673,2.527,4.166,5.185,3.92
	C463.044,143.205,464.516,141.116,464.534,137.554z"/>
<path fill="#FFFFFF" d="M334.507,137.59c-0.033,4.439-2.812,7.523-6.747,7.489c-3.926-0.035-6.66-3.145-6.667-7.585
	c-0.007-4.623,2.754-7.637,6.909-7.542C332.004,130.042,334.541,133.022,334.507,137.59z M332.689,137.547
	c0.032-3.528-1.934-6.132-4.714-6.242c-2.877-0.114-5.075,2.586-5.054,6.208c0.021,3.596,1.967,5.99,4.876,5.998
	C330.729,143.519,332.656,141.17,332.689,137.547z"/>
<path fill="#FFFFFF" d="M340.908,137.254c0-0.387-0.14-0.851,0.023-1.149c1.023-1.861-2.382-5.528,2.007-5.854
	c6.868-0.509,9.924,1.644,10.209,6.49c0.266,4.519-1.884,7.353-5.912,7.793c-6.327,0.69-6.327,0.69-6.327-5.539
	C340.908,138.416,340.908,137.835,340.908,137.254z M342.692,137.437c0,1.446-0.012,2.892,0.006,4.338
	c0.007,0.55-0.136,1.34,0.584,1.437c2.123,0.286,4.315,0.343,6.074-1.086c2.01-1.633,2.184-3.926,1.743-6.318
	c-0.413-2.24-1.769-3.59-3.963-4.034c-3.871-0.783-4.445-0.289-4.445,3.639C342.691,136.088,342.691,136.763,342.692,137.437z"/>
<path fill="#FFFFFF" d="M359.557,137.429c-0.001-0.194-0.001-0.388-0.001-0.582c0-7.22,0.664-7.772,7.976-6.666
	c0.569,0.086,1.272,0.027,1.231,0.852c-0.043,0.864-0.803,0.64-1.319,0.657c-1.162,0.038-2.327,0.044-3.489,0.006
	c-1.512-0.049-2.764-0.22-2.7,2.133c0.058,2.114,0.733,2.609,2.694,2.543c1.421-0.048,4.158-0.56,4.052,0.504
	c-0.158,1.588-2.582,0.776-3.93,0.663c-2.537-0.212-2.752,0.973-2.796,3.043c-0.045,2.121,0.451,3.06,2.716,2.764
	c1.334-0.175,2.71-0.029,4.067-0.014c0.404,0.004,0.771,0.127,0.776,0.62c0.005,0.476-0.306,0.66-0.743,0.661
	c-2.52,0.003-5.041-0.012-7.561,0.009c-1.039,0.009-0.973-0.69-0.973-1.377C359.557,141.307,359.557,139.368,359.557,137.429z"/>
<path fill="#FFFFFF" d="M495.785,129.969c-0.552,0-0.233-0.078,0.025,0.014c1.063,0.379,3.126,0.004,2.863,1.491
	c-0.313,1.769-1.794-0.013-2.746-0.015c-1.071-0.003-2.119-0.068-3.111,0.308c-0.97,0.368-1.569,1.12-1.518,2.23
	c0.046,0.999,0.621,1.581,1.556,1.848c1.201,0.342,2.391,0.725,3.603,1.023c2.244,0.551,3.144,1.987,3.055,4.243
	c-0.089,2.252-1.471,3.102-3.407,3.688c-2.008,0.608-3.83-0.087-5.708-0.441c-0.628-0.118-1.015-0.634-0.82-1.307
	c0.282-0.975,0.985-0.33,1.35-0.163c1.482,0.68,3.001,0.68,4.549,0.46c1.167-0.166,1.97-0.809,2.159-2.008
	c0.208-1.321-0.337-2.279-1.619-2.718c-0.723-0.247-1.493-0.355-2.225-0.58c-2.266-0.695-4.612-1.338-4.281-4.502
	C489.752,131.226,491.79,129.887,495.785,129.969z"/>
<path fill="#FFFFFF" d="M414.259,137.191c-0.943,0.74-2.157,0.492-3.182,0.36c-2.292-0.296-2.954,0.659-2.644,2.765
	c0.112,0.76,0.089,1.559-0.002,2.325c-0.087,0.734,0.563,1.971-0.949,1.936c-1.286-0.029-0.798-1.123-0.806-1.78
	c-0.045-3.592,0.026-7.185-0.045-10.776c-0.026-1.34,0.313-1.959,1.778-1.866c1.741,0.11,3.493,0.022,5.241,0.033
	c0.588,0.004,1.257,0.017,1.213,0.847c-0.046,0.88-0.797,0.63-1.314,0.657c-0.775,0.04-1.555,0.048-2.329,0.004
	c-1.613-0.092-2.902-0.249-2.867,2.232c0.031,2.279,0.96,2.566,2.775,2.386c1.025-0.101,2.069-0.018,3.104-0.018
	C414.241,136.594,414.25,136.892,414.259,137.191z"/>
<path fill="#FFFFFF" d="M421.312,137.451c0-1.935-0.012-3.871,0.008-5.806c0.007-0.646-0.132-1.474,0.926-1.422
	c1.039,0.05,0.827,0.891,0.831,1.516c0.022,2.903,0.143,5.814-0.033,8.707c-0.133,2.186,0.389,3.262,2.799,2.899
	c1.134-0.171,2.318-0.03,3.478,0c0.383,0.01,0.781,0.095,0.759,0.633c-0.021,0.516-0.406,0.612-0.79,0.615
	c-2.322,0.02-4.644,0.014-6.967,0.025c-1.254,0.006-0.996-0.926-1.005-1.65C421.297,141.129,421.312,139.29,421.312,137.451z"/>
<path fill="#FFFFFF" d="M79.828,16.324c0.12,0.096,0.24,0.192,0.36,0.287c-0.119,0.024-0.237,0.047-0.356,0.071
	c0.018-0.133,0.036-0.265,0.054-0.398C79.886,16.284,79.828,16.324,79.828,16.324z"/>
<path fill="#FFFFFF" d="M37.755,56.065c-0.091-0.178-0.182-0.357-0.272-0.535c0.225,0.036,0.449,0.073,0.674,0.108
	C38.023,55.779,37.889,55.922,37.755,56.065z"/>
</svg>
