<?xml version="1.0" encoding="utf-8"?>
<!-- Generator: Adobe Illustrator 17.0.1, SVG Export Plug-In . SVG Version: 6.00 Build 0)  -->
<!DOCTYPE svg PUBLIC "-//W3C//DTD SVG 1.1//EN" "http://www.w3.org/Graphics/SVG/1.1/DTD/svg11.dtd">
<svg version="1.1" id="Layer_1" xmlns="http://www.w3.org/2000/svg" xmlns:xlink="http://www.w3.org/1999/xlink" x="0px" y="0px"
	 width="691.306px" height="256.389px" viewBox="0 0 691.306 256.389" enable-background="new 0 0 691.306 256.389"
	 xml:space="preserve">
<path fill="#FFFFFF" d="M345.08,256.325c-24.334,0.326-48.637-0.613-72.892-2.368c-52.509-3.798-104.457-11.025-154.896-26.814
	c-27.294-8.544-53.572-19.341-76.904-36.264c-15.492-11.237-28.681-24.577-35.683-42.844c-8.889-23.19-5.249-44.279,11.493-62.861
	C31.356,68.351,50.414,57.14,70.655,47.737c30.029-13.949,61.654-22.975,93.922-29.922c30.308-6.525,60.938-10.884,91.81-13.689
	c24.841-2.257,49.723-3.294,74.654-3.941c17.884-0.464,35.738,0.019,53.575,0.621c26.26,0.886,52.45,3.046,78.544,6.35
	c37.794,4.786,75.101,11.832,111.467,23.328c27.267,8.62,53.619,19.31,77.237,35.829c10.228,7.154,19.605,15.262,26.869,25.505
	c17.552,24.749,16.678,51.674-2.31,75.397c-12.493,15.608-28.588,26.658-45.991,35.945c-28.826,15.383-59.698,25.189-91.326,32.758
	c-30.145,7.214-60.696,12.065-91.529,15.263c-22.455,2.329-44.949,3.802-67.506,4.662
	C368.402,256.289,356.742,256.172,345.08,256.325z M24.965,149.743c0.165,0.405,0.33,0.81,0.495,1.215
	c0.495-0.564,0.363-1.076-0.129-1.558c-0.459-1.67-0.918-3.341-1.375-5.011c-3.7-13.513-1.192-25.765,7.527-36.72
	c6.857-8.615,15.706-14.753,25.3-19.856c22.889-12.174,47.676-18.652,72.847-23.859c26.749-5.534,53.808-8.912,80.993-11.441
	c28.178-2.621,56.416-4.116,84.695-4.796c15.762-0.379,31.537-0.264,47.305-0.242c2.421,0.003,3.189-0.636,3.14-3.118
	c-0.155-7.945-0.299-15.905,0.048-23.838c0.166-3.798-1.069-4.418-4.521-4.216c-39.386,2.307-78.724,5.079-117.863,10.251
	c-33.712,4.455-67.165,10.196-99.914,19.516c-24.157,6.874-47.712,15.288-68.948,29.063c-13.183,8.551-24.865,18.703-31.269,33.546
	C17.311,122.549,17.56,136.333,24.965,149.743z M668.083,107.935c-0.305,0.078-0.61,0.156-0.915,0.234
	c0.173,0.524,0.335,1.051,0.52,1.571c5.571,15.673,2.835,29.769-8.103,42.257c-5.957,6.801-13.187,12.022-21.032,16.411
	c-22.334,12.494-46.7,19.122-71.474,24.447c-27.559,5.924-55.467,9.504-83.519,12.131c-28.174,2.638-56.406,4.197-84.683,4.88
	c-16.126,0.389-32.263,0.886-48.393,0.226c-2.834-0.116-3.545,0.724-3.481,3.501c0.191,8.316,0.156,16.64,0.013,24.958
	c-0.041,2.363,0.637,2.904,2.94,2.753c13.615-0.895,27.251-1.485,40.86-2.459c33.786-2.419,67.482-5.738,100.967-10.945
	c32.001-4.976,63.703-11.325,94.482-21.615c21.716-7.26,42.75-16.029,60.938-30.348c13.31-10.479,23.71-22.993,25.969-40.578
	C674.416,125.662,672.52,116.525,668.083,107.935z M84.062,126.601c0,9.067,0.168,18.138-0.085,27.197
	c-0.097,3.484,0.653,4.647,4.395,4.573c13.036-0.256,26.081-0.002,39.12-0.132c9.185-0.092,18.354-0.663,27.358-2.678
	c11.017-2.465,21.539-6.032,29.62-14.469c7.606-7.942,8.101-17.99,1.396-26.681c-3.479-4.509-8.011-7.75-13.037-10.31
	c-11.494-5.855-23.885-8.409-36.609-8.761c-16.381-0.454-32.784-0.124-49.175-0.282c-2.594-0.025-3.052,0.926-3.026,3.226
	C84.124,107.722,84.063,117.162,84.062,126.601z M562.496,127.054c0-9.682-0.068-19.365,0.051-29.045
	c0.027-2.238-0.492-3.056-2.862-2.946c-4.211,0.196-8.445,0.201-12.656,0c-2.541-0.121-3.442,0.539-3.361,3.238
	c0.199,6.573-0.024,13.157,0.112,19.733c0.049,2.347-0.508,3.243-3.062,3.227c-17.129-0.106-34.259-0.112-51.388,0.005
	c-2.592,0.018-3.073-0.911-3.029-3.222c0.129-6.7-0.012-13.406,0.08-20.107c0.027-1.965-0.349-2.941-2.617-2.865
	c-4.588,0.154-9.186,0.119-13.776,0.01c-1.897-0.045-2.617,0.504-2.611,2.501c0.058,19.488,0.07,38.976-0.013,58.464
	c-0.01,2.282,0.91,2.643,2.863,2.592c4.342-0.113,8.694-0.168,13.03,0.017c2.41,0.103,3.2-0.577,3.146-3.072
	c-0.161-7.444,0.007-14.895-0.098-22.341c-0.03-2.108,0.3-3.04,2.776-3.024c17.253,0.115,34.507,0.1,51.761,0.013
	c2.25-0.011,2.992,0.547,2.945,2.892c-0.15,7.445,0.02,14.896-0.101,22.341c-0.037,2.273,0.352,3.343,2.982,3.202
	c4.332-0.231,8.693-0.209,13.027-0.005c2.383,0.112,2.878-0.707,2.85-2.935C562.428,146.171,562.496,136.612,562.496,127.054z
	 M241.502,128.789c7.205,0,14.42-0.22,21.611,0.095c3.48,0.152,3.709-1.319,3.66-4.082c-0.047-2.649-0.035-4.253-3.617-4.195
	c-14.282,0.232-28.571,0.118-42.857,0.055c-1.243-0.005-3.014,0.834-3.679-0.67c-0.561-1.269,0.657-2.538,1.332-3.701
	c1.526-2.629,3.708-4.625,6.183-6.347c4.251-2.958,9.035-4.652,14.024-5.732c15.448-3.345,30.822-2.204,46.141,0.994
	c1.05,0.219,2.665,1.165,3.052,0.106c0.924-2.528,1.704-5.29,1.646-7.938c-0.049-2.208-2.738-1.686-4.244-1.958
	c-16.258-2.929-32.61-3.204-48.925-0.735c-11.482,1.738-22.731,4.609-31.794,12.479c-11.916,10.347-12.538,23.98-1.739,35.523
	c2.659,2.843,5.838,5.004,9.267,6.798c5.645,2.954,11.659,4.869,17.885,6.109c17.459,3.478,35.042,3.294,52.647,1.533
	c8.979-0.899,7.402,0.799,6.171-8.276c-0.217-1.596-0.679-2.026-2.376-1.716c-6.84,1.251-13.76,1.95-20.705,2.237
	c-11.974,0.494-23.841-0.024-35.06-4.904c-6.018-2.618-10.677-6.705-13.252-12.911c-0.823-1.983-0.569-2.85,1.896-2.809
	C226.345,128.869,233.924,128.789,241.502,128.789z M376.886,126.574c0,9.556,0.096,19.113-0.064,28.666
	c-0.042,2.537,0.78,3.169,3.15,3.078c4.213-0.162,8.444-0.19,12.654,0.007c2.683,0.125,3.715-0.553,3.6-3.47
	c-0.238-6.072,0.1-12.166-0.147-18.237c-0.118-2.896,0.848-3.417,3.535-3.428c10.785-0.042,21.599,0.701,32.348-0.7
	c8.315-1.084,16.352-3.04,22.936-8.696c6.315-5.425,6.568-12.962,0.763-18.831c-2.401-2.427-5.243-4.124-8.343-5.456
	c-6.938-2.979-14.24-4.301-21.73-4.355c-15.263-0.11-30.529,0.035-45.792-0.1c-2.65-0.023-2.973,1.001-2.95,3.228
	C376.942,107.711,376.886,117.143,376.886,126.574z M333.853,157.527c11.05,0,22.101-0.063,33.151,0.049
	c2.44,0.025,3.463-0.698,3.075-3.159c-0.095-0.606-0.093-1.251-0.001-1.858c0.497-3.26-0.556-4.425-4.136-4.372
	c-15.02,0.225-30.047-0.008-45.068,0.177c-3.206,0.039-3.834-0.937-3.804-3.944c0.156-15.395,0.026-30.792,0.12-46.187
	c0.014-2.373-0.549-3.291-3.082-3.171c-4.336,0.205-8.697,0.223-13.031-0.005c-2.661-0.14-3.278,0.73-3.262,3.308
	c0.112,18.624,0.108,37.248,0.004,55.872c-0.014,2.547,0.593,3.389,3.258,3.352C311.999,157.441,322.927,157.527,333.853,157.527z
	 M595.29,126.607c0-9.563-0.041-19.126,0.034-28.688c0.015-1.927-0.269-2.921-2.567-2.847c-5.087,0.164-10.184,0.138-15.273,0.009
	c-2.029-0.051-2.478,0.71-2.473,2.587c0.055,19.374,0.059,38.748-0.004,58.122c-0.007,2.011,0.729,2.542,2.606,2.505
	c4.842-0.094,9.694-0.194,14.527,0.033c2.757,0.129,3.239-0.932,3.204-3.406C595.211,145.485,595.29,136.046,595.29,126.607z
	 M614.894,153.092c-0.061,1.635-1.136,4.543,0.866,4.744c1.736,0.174,0.01-3.032,1.276-4.378c1.836,1.018,0.919,4.473,3.012,4.456
	c1.644-0.014,1.346-2.874,2.341-4.24c0.098-0.135,0.408-0.116,0.693-0.186c1.012,1.386-0.418,3.448,1.402,4.97
	c1.228-2.786,0.39-5.476,0.593-8.056c0.059-0.746,0.412-1.861-0.882-2.069c-1.19-0.191-1.692,0.516-2.141,1.559
	c-0.731,1.699-0.789,3.781-2.536,5.145c-0.384-1.015-0.645-1.842-1.005-2.625c-0.665-1.446-0.234-4.22-2.412-3.929 M613.221,148.988
	c-2.946-0.764-5.608-1.049-8.916,0.337c4.865-0.801,3.675,2.225,3.766,4.382c0.047,1.112,0.021,2.228,0.03,3.342
	c0.005,0.558,0.272,1.009,0.818,1.037c0.537,0.027,0.886-0.386,0.905-0.938c0.038-1.113,0.106-2.232,0.03-3.34
	C609.689,151.401,609.518,149.052,613.221,148.988z"/>
<path fill="#FFFFFF" d="M25.331,149.399c0.492,0.482,0.624,0.994,0.129,1.558c-0.165-0.405-0.33-0.81-0.495-1.215
	C25.088,149.629,25.21,149.515,25.331,149.399z"/>
<path fill="#FFFFFF" d="M103.213,126.51c0-6.573-0.005-13.145,0.004-19.718c0.002-1.32-0.346-2.809,1.883-2.732
	c12.987,0.448,26.038-1.102,38.965,0.977c7.165,1.152,13.934,3.548,19.523,8.446c8.555,7.497,8.592,18.278,0.039,25.811
	c-7.317,6.445-16.333,8.694-25.683,9.52c-10.752,0.95-21.562,0.273-32.344,0.461c-2.106,0.037-2.433-0.887-2.413-2.675
	C103.256,139.904,103.213,133.207,103.213,126.51z"/>
<path fill="#FFFFFF" d="M411.592,104.073c4.776,0.212,10.386-0.514,15.902,0.84c2.302,0.565,4.544,1.259,6.601,2.447
	c2.689,1.553,4.944,3.569,4.971,6.907c0.029,3.53-2.369,5.548-5.219,7.1c-3.098,1.687-6.465,2.544-9.93,2.884
	c-8.418,0.827-16.868,0.332-25.304,0.49c-1.728,0.032-2.414-0.465-2.378-2.309c0.106-5.337,0.133-10.68-0.01-16.015
	c-0.057-2.139,0.89-2.415,2.657-2.374C402.854,104.136,406.829,104.073,411.592,104.073z"/>
</svg>
