<?xml version="1.0" encoding="utf-8"?>
<!-- Generator: Adobe Illustrator 17.0.1, SVG Export Plug-In . SVG Version: 6.00 Build 0)  -->
<!DOCTYPE svg PUBLIC "-//W3C//DTD SVG 1.1//EN" "http://www.w3.org/Graphics/SVG/1.1/DTD/svg11.dtd">
<svg version="1.1" id="Layer_1" xmlns="http://www.w3.org/2000/svg" xmlns:xlink="http://www.w3.org/1999/xlink" x="0px" y="0px"
	 width="482.71px" height="252.701px" viewBox="0 0 482.71 252.701" enable-background="new 0 0 482.71 252.701"
	 xml:space="preserve">
<g>
	<path fill="#FFFFFF" d="M241.282,252.687c-73.75,0-147.499,0.001-221.249-0.003c-2.777,0-5.559,0.071-8.328-0.082
		c-6.575-0.363-11.591-5.697-11.703-12.308c-0.011-0.625-0.003-1.25-0.003-1.875c0-74.722,0.062-149.444-0.099-224.165
		C-0.116,6.991,4.65-0.005,14.16,0c151.319,0.079,302.637,0.054,453.956,0.06c7.526,0,12.338,3.179,14.151,9.209
		c0.387,1.287,0.453,2.592,0.453,3.911c-0.001,75.347-0.004,150.694-0.012,226.04c-0.001,6.615-3.523,11.5-9.376,13.126
		c-1.364,0.379-2.748,0.34-4.134,0.34C393.226,252.688,317.254,252.687,241.282,252.687z M59.006,165.839
		c-2.553-3.37-2.301-6.93-2.296-10.473c0.025-19.025,0.012-38.05,0.012-57.075c0-0.486,0.031-0.974-0.003-1.458
		c-0.052-0.73,0.292-0.948,0.981-0.977c5.221-0.218,10.414-0.235,15.387,1.744c3.718,1.479,6.175,4.135,7.401,7.928
		c2.471,7.645-0.827,15.331-8.178,19.067c-3.395,1.726-7.069,2.408-10.809,2.792c-1.028,0.106-1.829,0.332-2.329,1.383
		c-0.521,1.096,0.371,1.53,0.831,2.108c6.049,7.605,12.105,15.204,18.21,22.765c6.416,7.946,12.977,15.737,21.203,21.964
		c11.144,8.436,23.369,10.233,36.607,6.359c0.397-0.116,1.362-0.02,0.94-0.933c-0.491-1.062-0.682-2.306-2.47-2.265
		c-7.305,0.169-13.871-2.245-20.002-6.055c-8.313-5.166-14.969-12.113-21.092-19.622c-5.658-6.939-11.237-13.942-16.903-20.874
		c-0.929-1.137-1.079-1.659,0.606-1.878c0.81-0.105,1.591-0.473,2.371-0.759c11.192-4.103,17.057-15.511,13.473-26.442
		c-2.758-8.411-9.324-12.41-17.481-13.852c-11.289-1.996-22.686-0.326-33.931-0.57c-0.345,0.774,0.02,1.195,0.235,1.59
		c1.538,2.835,1.869,5.863,1.858,9.049c-0.065,18.817-0.089,37.634,0.012,56.45c0.019,3.512-0.285,6.768-2.575,9.582
		c-0.06,0.074,0.006,0.252,0.018,0.45C46.894,165.839,52.706,165.839,59.006,165.839z M101.054,127.279
		c-0.063,8.187,1.888,15.812,6.331,22.717c12.279,19.081,41.858,23.261,59.974,8.501c14.066-11.461,18.307-33.966,9.444-50.869
		c-6.555-12.502-17.347-18.735-31.1-20.012c-10.683-0.992-20.795,0.995-29.536,7.588
		C105.555,103.208,101.293,114.329,101.054,127.279z M375.753,88.784c1.024,1.525,1.823,2.717,2.623,3.908
		c0.992,1.475,1.5,3.064,1.496,4.879c-0.041,19.161-0.095,38.322-0.015,57.482c0.016,3.763-0.13,7.338-2.677,10.376
		c-0.054,0.064,0.036,0.248,0.052,0.337c5.025,0,10.036,0,15.199,0c-0.941-2.332-2.129-4.345-2.118-6.835
		c0.07-16.175,0.04-32.351,0.063-48.527c0.001-0.488-0.293-1.112,0.434-1.519c17.698,19.471,35.396,38.941,53.423,58.774
		c0-1.347,0-2.106,0-2.866c-0.007-20.688-0.032-41.376-0.005-62.064c0.006-4.668-0.812-9.485,2.422-13.791
		c-5.441,0-10.496,0-15.746,0c1.363,2.322,2.729,4.307,2.703,7.031c-0.125,12.842-0.066,25.686-0.093,38.529
		c-0.001,0.575,0.244,1.231-0.542,2c-0.435-0.556-0.821-1.111-1.269-1.611c-13.35-14.881-26.705-29.758-40.063-44.631
		c-0.679-0.756-1.247-1.534-2.529-1.507C384.81,88.842,380.506,88.784,375.753,88.784z M240.271,165.558
		c0.144,0.132,0.288,0.264,0.433,0.395c5.546,0,11.093-0.01,16.639,0.009c1.012,0.003,1.236-0.308,0.737-1.214
		c-1.016-1.845-1.622-3.785-1.612-5.946c0.042-8.816,0.055-17.634-0.03-26.449c-0.016-1.615,0.494-1.932,2.004-1.925
		c12.218,0.061,24.437,0.076,36.655-0.012c1.776-0.013,2.003,0.629,1.99,2.144c-0.065,7.497-0.111,14.996,0.005,22.492
		c0.058,3.737,0.011,7.357-2.521,10.431c-0.047,0.057,0.058,0.24,0.073,0.297c5.868,0,11.712,0,18.032,0
		c-3.075-3.883-2.493-8.123-2.493-12.26c-0.001-16.245-0.062-32.49,0.058-48.734c0.039-5.329-1.188-10.868,2.234-15.893
		c-6.186,0-12.03,0-18.077,0c1.13,2.171,2.703,3.912,2.686,6.377c-0.057,8.469-0.048,16.939-0.011,25.408
		c0.005,1.201-0.249,1.732-1.591,1.726c-12.495-0.064-24.991-0.082-37.486-0.071c-1.198,0.001-1.603-0.425-1.528-1.579
		c0.694-10.618-1.597-21.398,1.561-31.805c-5.666,0-11.504,0-17.809,0c3.355,3.348,3.159,7.242,3.148,11.163
		c-0.05,17.911-0.025,35.822-0.006,53.733C243.364,157.996,243.893,162.249,240.271,165.558z M370.471,155.274
		c-1.525,0.413-2.587,0.698-3.648,0.988c-2.608,0.711-5.201,1.476-7.947,1.467c-7.149-0.025-14.298-0.063-21.447-0.011
		c-1.34,0.01-1.6-0.46-1.592-1.683c0.048-7.982,0.064-15.965-0.011-23.946c-0.014-1.465,0.535-1.679,1.799-1.664
		c5.205,0.059,10.412,0.059,15.617,0.008c2.274-0.022,5.141,0.938,6.661-0.367c1.565-1.343,1.776-4.218,2.698-6.372
		c0.579-1.352,0.129-1.474-1.107-1.382c-8.11,0.602-16.235,0.102-24.352,0.266c-0.997,0.02-1.307-0.303-1.302-1.297
		c0.033-7.704,0.025-15.409,0.009-23.114c-0.002-0.86,0.063-1.485,1.196-1.413c8.652,0.553,17.514-1.51,25.921,2.097
		c0.502,0.215,1.011,0.509,1.298-0.354c1.055-3.183,2.155-6.351,3.301-9.711c-15.566,0-30.832,0.006-46.097-0.011
		c-1.118-0.001-1.131,0.466-0.713,1.258c1.858,3.518,1.8,7.322,1.788,11.158c-0.048,14.784,0.103,29.57-0.075,44.353
		c-0.082,6.776,1.343,13.731-2.081,20.387c6.451,0,12.554,0.003,18.658-0.001c8.676-0.005,17.353-0.01,26.029-0.026
		c0.86-0.001,1.739,0.235,2.134-1.046C368.163,161.766,369.283,158.726,370.471,155.274z M213.945,87.563
		c-4.764-0.022-8.589,0.575-12.224,2.069c-8.445,3.471-13.514,9.627-14.071,18.866c-0.548,9.105,3.789,15.533,11.866,19.474
		c3.17,1.547,6.47,2.827,9.714,4.221c3.45,1.483,6.812,3.118,9.617,5.686c6.426,5.885,3.976,17.519-4.297,20.287
		c-3.023,1.012-6.18,1.101-9.257,0.441c-6.707-1.439-11.898-4.853-14.117-11.735c-0.33-1.024-1.164-1.187-1.935-1.255
		c-0.845-0.074-0.746,0.817-0.909,1.369c-0.842,2.856-1.467,5.797-2.568,8.548c-0.818,2.043-0.126,3.18,1.304,4.415
		c6.546,5.653,14.315,7.349,22.673,6.944c7.039-0.341,13.275-2.771,18.243-7.923c7.935-8.229,11.441-24.233-3.96-33.811
		c-3.376-2.099-6.975-3.684-10.673-5.089c-3.176-1.206-6.359-2.419-9.077-4.531c-2.544-1.976-4.486-4.351-4.678-7.754
		c-0.456-8.085,6.869-13.847,14.953-11.708c4.181,1.107,7.365,3.483,8.95,7.657c0.306,0.807,0.815,1.253,1.647,1.366
		c1.068,0.145,0.964-0.811,1.202-1.362c1.207-2.798,2.291-5.65,3.564-8.416c0.548-1.19,0.286-1.803-0.698-2.554
		C224.445,89.124,219.061,87.482,213.945,87.563z M296.274,177.146c0-0.003,0-0.007,0-0.01c-48.671,0-97.341,0-146.012,0
		c-0.486,0-0.975,0.036-1.457-0.006c-1.318-0.115-1.483,0.521-0.868,1.451c1.341,2.029,2.927,3.426,5.696,3.424
		c96.299-0.067,192.599-0.075,288.898-0.091c0.555,0,1.112,0.007,1.666-0.021c0.347-0.017,0.762-0.091,0.766-0.522
		c0.01-1.309,0.251-2.722-0.166-3.892c-0.28-0.783-1.643-0.317-2.51-0.317C393.616,177.144,344.945,177.146,296.274,177.146z
		 M64.85,181.895c0-0.014,0-0.027,0-0.041c8.596,0,17.191,0.006,25.787-0.015c0.494-0.001,1.172,0.302,1.447-0.411
		c0.196-0.508-0.107-0.995-0.434-1.32c-1.452-1.443-2.773-3.003-5.165-2.996c-15.597,0.046-31.195,0.083-46.791-0.037
		c-2.464-0.019-1.894,1.382-2.048,2.738c-0.184,1.625,0.365,2.136,2.04,2.12C48.074,181.85,56.462,181.895,64.85,181.895z
		 M142.752,42.789c2.193,4.819,3.212,9.922,4.316,14.98c0.307,1.405,0.651,1.686,1.969,1.336c1.294-0.343,1.604-0.79,1.123-2.147
		c-1.11-3.127-2.001-6.333-2.702-9.949c4.948,3.039,9.309,6.239,14.144,8.789c0.033-0.308,0.116-0.527,0.069-0.712
		c-1.29-5.097-2.62-10.185-3.878-15.29c-0.434-1.761-1.469-0.59-2.258-0.563c-1.058,0.036-1.218,0.568-0.841,1.509
		c1.039,2.596,1.76,5.282,2.337,8.403c-3.172-2.057-6.088-3.794-8.824-5.779C146.445,42.089,144.78,41.744,142.752,42.789z
		 M247.574,46.344c5.356,0.014,9.097-3.648,9.119-8.929c0.022-5.294-3.699-9.009-9.031-9.018c-5.346-0.009-9.052,3.609-9.149,8.931
		C238.418,42.483,242.284,46.33,247.574,46.344z M217.841,40.112c0,1.593-0.032,3.188,0.016,4.78
		c0.019,0.612-0.681,1.557,0.301,1.78c0.98,0.223,2.13,0.208,3.081-0.095c0.897-0.285,0.178-1.197,0.156-1.825
		c-0.067-1.861-0.841-4.1-0.066-5.47c0.71-1.253,3.206-0.341,4.891-0.634c0.409-0.071,0.841-0.034,1.24-0.136
		c1.722-0.438,2.202,0.407,2.154,1.951c-0.047,1.525-0.005,3.053,0.001,4.58c0.002,0.544-0.107,1.053,0.743,1.192
		c2.375,0.389,3.203-0.322,2.915-2.635c-0.128-1.031-0.228-2.066-0.332-3.101c-0.348-3.457-0.481-6.923-0.389-10.396
		c0.063-2.41-1.712-1.066-2.669-1.29c-1.269-0.296-1.27,0.51-1.081,1.456c0.299,1.496,0.552,2.998,0.423,4.543
		c-0.083,0.993-0.484,1.483-1.549,1.509c-1.802,0.044-3.607,0.153-5.401,0.337c-1.064,0.109-1.508-0.167-1.473-1.302
		c0.051-1.663-0.094-3.331-0.04-4.994c0.054-1.665-1.132-1.157-1.849-1c-0.719,0.157-2.262-0.62-1.953,1.209
		C217.495,33.732,217.561,36.922,217.841,40.112z M292.114,49.656c5.143,0.006,8.785-3.838,8.777-9.264
		c-0.007-5.188-3.792-8.757-9.266-8.738c-5.152,0.017-8.874,3.901-8.84,9.223C282.819,45.956,286.743,49.649,292.114,49.656z
		 M207.45,223.239c0.186-0.076,0.371-0.153,0.557-0.229c0-5.326-0.013-10.651,0.014-15.977c0.004-0.783-0.208-1.086-1.034-1.131
		c-1.354-0.074-2.215-0.01-1.912,1.82c0.43,2.6,0.536,5.248-0.013,8.333c-1.886-2.09-3.453-3.822-5.015-5.559
		c-1.205-1.34-2.385-2.703-3.61-4.025c-0.833-0.898-1.953-0.497-2.953-0.498c-0.623-0.001-0.422,0.528-0.358,0.932
		c0.792,4.963,0.512,9.95,0.167,14.918c-0.084,1.218,0.155,1.369,1.217,1.406c1.435,0.049,1.891-0.408,1.777-1.897
		c-0.202-2.622-0.184-5.262-0.2-7.895c-0.004-0.692-0.255-1.485,0.424-2.194C200.205,215.294,203.828,219.267,207.45,223.239z
		 M319.861,54.449c1.952,1.245,3.285,1.201,4.355-1.012c0.799-1.653,1.664-3.357,4.372-2.354c3.605,1.335,3.693,1.1,3.892,5.167
		c0.02,0.415,0.047,0.831,0.044,1.247c-0.004,0.579,0.263,0.844,0.838,0.965c0.991,0.207,1.963,0.504,3.099,0.804
		c-0.399-3.03-0.786-5.819-1.13-8.612c-0.347-2.818-0.783-5.634-0.928-8.464c-0.09-1.752-1.233-1.788-2.401-2.211
		c-1.55-0.561-1.477,0.762-1.976,1.445c-0.856,1.174-1.664,2.386-2.563,3.525C324.974,48.099,322.449,51.22,319.861,54.449z
		 M367.39,60.072c-0.738-0.315-1.367-0.595-2.004-0.853c-3.448-1.398-3.382-1.37-2.013-4.776c0.516-1.284,1.125-1.322,2.152-0.749
		c1.026,0.573,2.112,1.042,3.117,1.647c1.276,0.768,1.587-0.42,2.049-1.029c0.854-1.126-0.492-1.054-0.914-1.241
		c-2.402-1.064-4.866-1.985-7.275-3.032c-0.913-0.397-1.325-0.282-1.618,0.726c-1.373,4.727-3.261,9.258-5.465,13.653
		c-0.473,0.943-0.468,1.446,0.618,1.848c2.204,0.815,4.409,1.645,6.54,2.63c1.689,0.781,2.724,0.23,3.585-1.25
		c-1.987-0.728-3.931-1.425-5.861-2.159c-0.411-0.156-1.162-0.253-0.956-0.845c0.518-1.494,0.948-3.148,1.926-4.304
		c0.56-0.662,1.864,0.416,2.765,0.827C365.47,61.818,366.669,62.089,367.39,60.072z M179.269,50.338
		c0.24-1.295-0.33-1.141-1.152-0.873c-1.513,0.494-3.054,0.906-4.597,1.297c-0.55,0.139-1.3,0.51-1.518-0.448
		c-0.322-1.413-1.002-2.934-0.724-4.236c0.242-1.128,2.012-0.782,3.107-1.064c1.061-0.273,2.232-0.524,1.867-1.911
		c-0.344-1.307-1.473-0.471-2.174-0.34c-3.644,0.68-3.636,0.719-4.325-2.93c-0.013-0.068-0.028-0.136-0.05-0.202
		c-0.318-0.969,0.102-1.413,1.05-1.529c1.308-0.159,2.607-0.397,3.918-0.511c1.473-0.128,1.031-1.293,1.074-2.05
		c0.054-0.97-0.791-0.546-1.232-0.461c-2.721,0.524-5.427,1.129-8.148,1.653c-0.883,0.17-0.926,0.59-0.7,1.326
		c1.469,4.781,2.332,9.698,3.122,14.623c0.191,1.19,0.697,1.312,1.669,1.089c2.431-0.558,4.852-1.193,7.312-1.572
		C179.102,51.995,179.339,51.321,179.269,50.338z M318.865,213.127c1.18-2.628,2.131-3.636,4.948-5.391
		c0.566-0.353,1.433-0.652,1.013-1.505c-0.331-0.672-1.112-0.356-1.697-0.209c-4.937,1.244-8.807,7.146-7.979,12.146
		c0.81,4.895,5.504,7.139,9.638,4.608c2.367-1.449,3.355-4.466,2.32-7.085c-0.923-2.336-3.125-3.409-5.955-2.912
		C320.479,212.898,319.8,212.986,318.865,213.127z M276.817,42.938c-0.455,0.32-0.727,0.517-1.005,0.706
		c-2.985,2.024-5.875,1.94-7.906-0.229c-2.23-2.381-2.287-6.972-0.121-9.609c1.947-2.371,4.215-2.565,7.555-0.646
		c0.428,0.246,0.997,0.932,1.226-0.028c0.195-0.815,1.39-1.944,0.105-2.53c-4.753-2.168-11.587-1.443-13.637,5.12
		c-1.021,3.269-0.476,6.365,1.917,8.894c2.689,2.842,6.083,3.355,9.761,2.468C277.672,46.369,277.781,46.142,276.817,42.938z
		 M285.72,216.383c-1.535,3.169-4.096,4.869-6.833,6.626c1.475,0.737,2.507,0.488,3.553,0.031c4.571-1.998,7.192-6.364,6.773-11.315
		c-0.344-4.062-3.031-6.32-6.983-5.868c-3.39,0.387-5.718,3.201-5.347,6.463c0.367,3.224,2.547,4.777,6.25,4.43
		C283.878,216.68,284.618,216.542,285.72,216.383z M297.708,223.035c1.459,0.641,2.49,0.453,3.534,0.003
		c4.627-1.995,7.3-6.565,6.743-11.553c-0.453-4.054-3.186-6.173-7.208-5.59c-3.268,0.474-5.428,3.264-5.043,6.513
		c0.383,3.232,2.64,4.753,6.312,4.351c0.732-0.08,1.423-0.565,2.295-0.245C303.144,219.574,300.497,221.147,297.708,223.035z
		 M211.031,43.136c-0.46,0.44-0.751,0.727-1.052,1.005c-2.669,2.457-5.257,2.761-7.65,0.903c-2.667-2.071-3.467-6.453-1.724-9.438
		c1.554-2.662,3.823-3.241,7.322-1.846c0.596,0.238,1.241,0.646,1.278-0.455c0.027-0.806,1.206-1.924-0.485-2.349
		c-3.242-0.814-6.348-0.551-9.105,1.491c-3.634,2.692-4.532,7.913-2.13,11.953c2.346,3.947,7.492,5.297,12.083,3.171
		C212.399,46.26,212.448,46.124,211.031,43.136z M247.608,220.788c-1.066,0.107-2.022,0.186-2.974,0.303
		c-4.302,0.526-4.218,0.528-4.296-3.82c-0.029-1.637,0.504-2.047,2.016-1.866c1.159,0.139,2.383,0.165,3.353-0.707
		c0.293-0.263,0.676-0.58,0.47-1.052c-0.172-0.396-0.597-0.236-0.911-0.241c-1.247-0.021-2.495,0-3.742-0.017
		c-0.458-0.006-1.084,0.114-1.092-0.601c-0.016-1.516-0.361-3.215,0.209-4.489c0.405-0.905,2.151-0.217,3.297-0.27
		c0.205-0.009,0.426,0.002,0.618,0.067c1.952,0.668,2.429-0.407,2.507-2.172c-3.043,0-6.019,0.045-8.992-0.022
		c-1.196-0.027-1.379,0.505-1.279,1.509c0.475,4.771,0.432,9.549,0.058,14.322c-0.088,1.117,0.312,1.468,1.386,1.444
		c2.286-0.05,4.579-0.113,6.858,0.019C246.746,223.293,247.585,222.742,247.608,220.788z M228.982,219.196
		c-0.546,0.377-0.934,0.656-1.332,0.919c-3.785,2.504-7.987,0.972-9.067-3.424c-0.723-2.945-0.166-5.71,2.265-7.735
		c2.263-1.886,4.608-1.513,6.805,0.246c0.629,0.504,1.007,0.388,1.157-0.355c0.148-0.735,1.34-1.595-0.145-2.2
		c-4.772-1.947-11.226-1.042-13.19,5.06c-1.048,3.257-0.509,6.358,1.896,8.885c2.711,2.849,6.106,3.297,9.77,2.32
		C229.861,222.187,229.911,222.063,228.982,219.196z M169.415,209.752c1.66-3.017,1.455-3.462-1.742-3.858
		c-0.75-0.093-1.53-0.108-2.278-0.014c-2.305,0.291-3.801,1.73-4.218,3.955c-0.411,2.192,0.378,3.715,2.58,4.894
		c0.914,0.489,1.879,0.884,2.794,1.373c2.134,1.14,2.679,2.399,1.744,3.927c-0.945,1.545-3.034,1.84-4.742,0.579
		c-0.787-0.581-1.448-1.333-2.179-2.021c-1.25,3.055-1.121,3.343,1.822,4.358c1.067,0.368,2.155,0.524,3.274,0.371
		c2.649-0.362,4.682-2.288,5.072-4.785c0.328-2.102-0.861-3.879-3.425-5.122c-0.995-0.482-2.032-0.895-2.976-1.463
		c-1.221-0.733-1.835-1.781-0.845-3.109c0.928-1.245,2.171-1.443,3.473-0.61C168.341,208.595,168.785,209.158,169.415,209.752z
		 M125.181,49.225c-2.884,0.965-5.551,2.422-8.344,3.576c-1.194,0.493-1.15,0.981-0.602,1.983c2.195,4.007,4.231,8.106,5.63,12.461
		c0.613,1.908,1.35,2.012,3.002,1.166c1.307-0.669,1.335-1.225,0.636-2.308c-0.521-0.808-0.885-1.721-1.28-2.604
		c-1.275-2.849-1.301-2.935,1.576-4.088c1.545-0.619,2.219-1.401,1.474-3.154c-1.242,0.553-2.484,0.996-3.612,1.639
		c-1.285,0.732-1.851,0.417-2.429-0.916c-1.369-3.159-1.444-3.127,1.71-4.371c0.257-0.101,0.511-0.242,0.779-0.281
		C125.623,52.044,125.834,50.917,125.181,49.225z M354.911,49.804c0.761-0.232,1.256-0.915,1.681-1.591
		c0.255-0.405-0.222-0.549-0.545-0.655c-3.943-1.287-7.885-2.579-11.833-3.852c-1.261-0.407-1.651,0.768-1.899,1.439
		c-0.374,1.014,0.764,0.631,1.235,0.805c0.84,0.309,1.717,0.553,2.599,0.709c0.975,0.172,1.3,0.583,0.951,1.556
		c-1.4,3.902-2.214,8.011-4.044,11.754c-0.639,1.306-0.174,1.723,0.989,1.934c0.974,0.177,2.067,1.381,2.628-0.71
		c1.057-3.936,2.395-7.797,3.539-11.711c0.337-1.151,0.81-1.456,1.894-0.89C352.962,49.038,353.879,49.364,354.911,49.804z
		 M314.682,53.259c1.692,0.447,2.129-0.811,2.266-1.688c0.168-1.076-0.991-0.537-1.553-0.654c-1.218-0.253-2.456-0.427-3.695-0.554
		c-1.48-0.151-1.954-0.77-1.588-2.304c0.931-3.901,1.605-7.865,2.606-11.746c0.372-1.441-0.506-1.446-1.214-1.445
		c-0.856,0.001-2.332-1.294-2.535,0.423c-0.613,5.173-1.708,10.23-3.036,15.251c-0.182,0.687,0.127,1.008,0.81,1.139
		C309.46,52.202,312.171,52.757,314.682,53.259z M140.066,61.873c-0.069-0.281-0.076-0.352-0.103-0.414
		c-2.15-4.874-3.731-9.952-5.493-14.968c-0.529-1.505-1.848,0.163-2.818,0.236c-0.83,0.063-0.986,0.578-0.635,1.322
		c2.189,4.636,3.801,9.482,5.171,14.412c0.171,0.615,0.352,1.061,1.11,0.702C138.235,62.719,139.429,62.741,140.066,61.873z
		 M183.366,214.844c-0.011,0-0.022,0-0.033,0c0-2.425-0.148-4.861,0.046-7.27c0.163-2.021-1.085-1.561-2.208-1.67
		c-1.465-0.142-1.538,0.577-1.4,1.744c0.546,4.626,0.586,9.263-0.009,13.889c-0.137,1.066-0.095,1.839,1.26,1.617
		c0.964-0.158,2.512,0.741,2.377-1.455C183.257,219.422,183.366,217.129,183.366,214.844z M263.337,208.01
		c0.538,0.903,1.449,1.209,1.406,2.243c-0.155,3.734,0.203,7.477-0.162,11.212c-0.053,0.546-0.74,1.368,0.124,1.612
		c0.894,0.252,1.959,0.237,2.864,0.004c0.745-0.192,0.376-1.088,0.32-1.655c-0.319-3.247-0.304-6.499-0.235-9.754
		c0.039-1.839,0.007-3.68,0.007-5.744C266.187,206.638,264.847,207.283,263.337,208.01z M377.815,68.862
		c1.312-0.132,2.124-0.976,2.047-2.418c-0.077-1.448-1.006-2.247-2.464-2.184c-1.411,0.061-2.1,1.001-2.092,2.322
		C375.314,68.043,376.145,68.843,377.815,68.862z M107.312,68.89c1.336-0.179,2.101-1.017,2.037-2.35
		c-0.07-1.442-1.049-2.264-2.462-2.274c-1.374-0.009-2.231,0.864-2.209,2.215C104.704,68.043,105.762,68.75,107.312,68.89z"/>
	<path fill="#FFFFFF" d="M167.201,127.609c-0.115,7.936-1.932,15.669-7.166,22.246c-11.289,14.185-33.13,11.456-41.078-5.383
		c-6.025-12.765-5.537-25.633,2.006-37.743c9.015-14.474,29.513-15.077,39.645-1.342
		C165.403,111.888,167.154,119.345,167.201,127.609z"/>
	<path fill="#FFFFFF" d="M253.083,37.405c0.039,1.569-0.371,3.011-1.258,4.303c-2.192,3.194-6.348,3.167-8.454-0.101
		c-1.533-2.379-1.653-4.933-0.545-7.52c0.951-2.222,2.937-3.575,4.948-3.463c2.159,0.12,4.062,1.681,4.85,3.933
		C252.949,35.486,253.076,36.434,253.083,37.405z"/>
	<path fill="#FFFFFF" d="M286.296,41.307c0.039-1.621,0.47-3.134,1.322-4.511c1.305-2.109,3.304-3.114,5.358-2.733
		c2.415,0.449,3.832,1.997,4.314,4.652c0.335,1.846-0.02,3.576-0.853,5.211c-1.299,2.551-3.714,3.8-6.096,3.217
		C287.947,46.556,286.255,44.112,286.296,41.307z"/>
	<path fill="#FFFFFF" d="M331.14,44.059c0.182,1.31,0.283,2.121,0.409,2.928c0.44,2.822,0.46,2.763-2.261,2.011
		c-1.16-0.321-1.57-0.601-0.634-1.664C329.456,46.424,330.131,45.401,331.14,44.059z"/>
	<path fill="#FFFFFF" d="M324.212,218.154c-0.01,2.091-1.27,3.651-2.923,3.618c-1.625-0.032-2.913-1.671-2.897-3.685
		c0.016-1.993,1.346-3.485,3.101-3.477C323.061,214.617,324.222,216.129,324.212,218.154z"/>
	<path fill="#FFFFFF" d="M285.911,211.561c-0.029,1.894-1.293,3.351-2.932,3.38c-1.695,0.03-2.899-1.514-2.826-3.624
		c0.071-2.04,1.428-3.644,3.008-3.555C284.739,207.85,285.943,209.513,285.911,211.561z"/>
	<path fill="#FFFFFF" d="M304.719,211.486c0.014,2.047-1.239,3.469-3.039,3.447c-1.625-0.02-2.721-1.452-2.694-3.521
		c0.027-2.055,1.324-3.682,2.914-3.656C303.496,207.783,304.705,209.383,304.719,211.486z"/>
</g>
</svg>
