<?xml version="1.0" encoding="utf-8"?>
<!-- Generator: Adobe Illustrator 17.0.1, SVG Export Plug-In . SVG Version: 6.00 Build 0)  -->
<!DOCTYPE svg PUBLIC "-//W3C//DTD SVG 1.1//EN" "http://www.w3.org/Graphics/SVG/1.1/DTD/svg11.dtd">
<svg version="1.1" id="Layer_1" xmlns="http://www.w3.org/2000/svg" xmlns:xlink="http://www.w3.org/1999/xlink" x="0px" y="0px"
	 width="50px" height="50px" viewBox="0 0 50 50" enable-background="new 0 0 50 50" xml:space="preserve">
<g>
	<path d="M4.037,27.666c0-6.334-0.005-12.667,0.003-19.001C4.042,6.81,5.284,5.564,7.138,5.531c0.913-0.016,1.826,0.004,2.739-0.003
		c0.699-0.006,1.117,0.395,1.125,1.023C11.01,7.18,10.593,7.595,9.901,7.6C9.045,7.606,8.189,7.597,7.334,7.606
		c-0.921,0.009-1.237,0.32-1.237,1.223c-0.001,10.242,0,20.484,0,30.727c0,2.282,0.001,4.565,0.001,6.847
		c0,1.066,0.239,1.325,1.294,1.326c7.303,0.007,14.607,0.007,21.91,0.009c2.339,0.001,4.678-0.001,7.017,0.001
		c1.127,0.001,1.437-0.284,1.438-1.4c0.005-4.166-0.001-8.331,0.002-12.497c0.001-0.905,0.453-1.388,1.194-1.258
		c0.694,0.121,0.876,0.618,0.875,1.259c-0.007,3.281-0.002,6.562-0.001,9.843c0,0.941,0.006,1.883-0.004,2.824
		c-0.022,2.127-1.208,3.334-3.349,3.339c-6.077,0.015-12.154,0.007-18.231,0.008c-3.538,0.001-7.076-0.039-10.613,0.019
		C5.649,49.909,3.968,48.701,4,46.324C4.087,40.106,4.03,33.886,4.03,27.666C4.032,27.666,4.034,27.666,4.037,27.666z"/>
	<path d="M27.925,38.127c1.195-0.548,2.151-1.16,2.856-2.209c4.178-6.214,8.424-12.381,12.645-18.566
		c0.142-0.208,0.266-0.427,0.446-0.717c-0.7-0.485-1.374-0.946-2.041-1.417c-0.808-0.571-0.905-1.11-0.36-1.945
		c0.342-0.525,0.674-1.057,1.039-1.566c0.496-0.692,0.995-0.798,1.675-0.34c0.992,0.668,1.967,1.361,2.943,2.053
		c0.56,0.397,0.809,0.924,0.393,1.537c-0.407,0.598-0.966,0.624-1.56,0.221c-0.734-0.498-1.477-0.984-2.216-1.476
		c-0.037,0.059-0.074,0.118-0.112,0.177c0.7,0.474,1.411,0.934,2.099,1.425c0.742,0.53,0.848,1.08,0.34,1.823
		c-4.77,6.981-9.543,13.959-14.328,20.929c-0.201,0.293-0.512,0.525-0.807,0.738c-1.226,0.881-2.466,1.742-3.699,2.613
		c-0.44,0.311-0.97,0.607-1.377,0.15c-0.284-0.318-0.475-0.914-0.396-1.326c0.319-1.671,0.753-3.32,1.161-4.974
		c0.059-0.24,0.182-0.476,0.322-0.682c4.12-6.052,8.246-12.099,12.372-18.147c0.08-0.118,0.167-0.231,0.25-0.347
		c0.389-0.538,0.888-0.743,1.468-0.353c0.596,0.401,0.671,0.945,0.258,1.548c-1.143,1.667-2.279,3.339-3.422,5.006
		c-3.01,4.392-6.051,8.763-9.004,13.193C28.364,36.234,28.23,37.237,27.925,38.127z"/>
	<path d="M21.844,11.871c-2.138-0.001-4.275,0-6.413-0.001c-1.464-0.001-2.289-0.795-2.306-2.253
		c-0.017-1.51-0.022-3.021-0.004-4.532c0.017-1.479,0.804-2.25,2.276-2.28c0.228-0.005,0.457-0.02,0.684-0.004
		c1.195,0.085,2.083-0.004,2.93-1.266c1.595-2.377,5.129-1.881,6.361,0.713c0.209,0.44,0.426,0.587,0.889,0.566
		c0.768-0.035,1.539-0.026,2.308-0.004c1.245,0.036,2.003,0.804,2.015,2.058c0.016,1.625,0.004,3.249,0,4.874
		c-0.003,1.437-0.692,2.122-2.155,2.127C26.233,11.877,24.039,11.871,21.844,11.871z M15.362,9.739c4.432,0,8.77,0,13.114,0
		c0-1.644,0-3.223,0-4.868c-1.136,0-2.213-0.002-3.289,0c-1.116,0.002-1.28-0.136-1.488-1.27c-0.16-0.869-0.877-1.483-1.723-1.474
		c-0.899,0.009-1.539,0.58-1.675,1.494c-0.15,1.009-0.422,1.249-1.45,1.253c-1.156,0.005-2.313,0.001-3.489,0.001
		C15.362,6.558,15.362,8.118,15.362,9.739z"/>
	<path d="M17.665,26.097c0,2.301,0,4.563,0,6.886c-2.317,0-4.582,0-6.908,0c0-2.288,0-4.552,0-6.886
		C13.051,26.097,15.336,26.097,17.665,26.097z M12.817,28.16c0,0.925,0,1.787,0,2.681c0.933,0,1.818,0,2.702,0
		c0-0.928,0-1.789,0-2.681C14.604,28.16,13.76,28.16,12.817,28.16z"/>
	<path d="M17.669,15.701c0,2.303,0,4.569,0,6.9c-2.296,0-4.561,0-6.899,0c0-2.26,0-4.548,0-6.9
		C13.047,15.701,15.334,15.701,17.669,15.701z M15.522,20.545c0-0.946,0-1.837,0-2.781c-0.924,0-1.789,0-2.692,0
		c0,0.953,0,1.868,0,2.781C13.759,20.545,14.628,20.545,15.522,20.545z"/>
	<path d="M17.643,43.346c-2.313,0-4.559,0-6.875,0c0-2.315,0-4.603,0-6.947c2.268,0,4.534,0,6.875,0
		C17.643,38.683,17.643,40.97,17.643,43.346z M12.836,38.46c0,0.996,0,1.889,0,2.783c0.934,0,1.8,0,2.691,0c0-0.952,0-1.846,0-2.783
		C14.604,38.46,13.739,38.46,12.836,38.46z"/>
	<path d="M26.916,16.103c1.652,0,3.305-0.008,4.957,0.003c0.847,0.006,1.306,0.376,1.274,1.027
		c-0.039,0.797-0.577,1.058-1.278,1.059c-3.304,0.005-6.609,0.004-9.913-0.01c-0.795-0.004-1.3-0.446-1.298-1.06
		c0.001-0.618,0.499-1.021,1.302-1.025c1.652-0.007,3.304-0.002,4.957-0.002C26.916,16.098,26.916,16.101,26.916,16.103z"/>
	<path d="M35.539,5.455c0.73,0.078,1.486,0.06,2.183,0.256c1.268,0.357,2.063,1.483,2.096,2.798c0.023,0.91,0.005,1.821,0.004,2.731
		c-0.001,0.663-0.284,1.123-0.985,1.135c-0.727,0.012-1.074-0.423-1.076-1.139c-0.002-0.797,0.012-1.593-0.005-2.39
		c-0.019-0.904-0.353-1.234-1.24-1.245c-0.768-0.01-1.536,0.001-2.304-0.003c-0.902-0.005-1.383-0.356-1.398-1.011
		c-0.016-0.661,0.474-1.046,1.354-1.056c0.455-0.005,0.91-0.001,1.366-0.001C35.534,5.505,35.536,5.48,35.539,5.455z"/>
	<path d="M25.556,22.16c-1.198,0.001-2.396-0.016-3.593,0.008c-0.724,0.014-1.195-0.294-1.208-1.011
		c-0.013-0.723,0.49-1.061,1.179-1.064c2.481-0.009,4.962-0.005,7.443,0.003c0.677,0.002,1.126,0.405,1.135,1.033
		c0.01,0.695-0.466,1.043-1.192,1.034C28.066,22.147,26.811,22.159,25.556,22.16z"/>
	<path d="M23.965,30.531c-0.683,0-1.366,0.004-2.05-0.001c-0.711-0.006-1.17-0.37-1.16-1.077c0.009-0.666,0.452-1.001,1.133-0.998
		c1.423,0.007,2.847,0.007,4.27,0.008c0.702,0,1.09,0.405,1.082,1.049c-0.008,0.606-0.417,0.988-1.055,1.005
		c-0.74,0.02-1.48,0.005-2.22,0.005C23.965,30.525,23.965,30.528,23.965,30.531z"/>
</g>
</svg>
