<?xml version="1.0" encoding="utf-8"?>
<!-- Generator: Adobe Illustrator 17.0.1, SVG Export Plug-In . SVG Version: 6.00 Build 0)  -->
<!DOCTYPE svg PUBLIC "-//W3C//DTD SVG 1.1//EN" "http://www.w3.org/Graphics/SVG/1.1/DTD/svg11.dtd">
<svg version="1.1" id="Layer_1" xmlns="http://www.w3.org/2000/svg" xmlns:xlink="http://www.w3.org/1999/xlink" x="0px" y="0px"
	 width="153px" height="159px" viewBox="0 0 153 159" enable-background="new 0 0 153 159" xml:space="preserve">
<path d="M52.109,36.531c0,9.692,0.104,18.825-0.072,27.952c-0.045,2.337,1.353,2.639,2.853,3.272
	c12.618,5.316,16.799,16.819,10.567,28.947c-2.294,4.465-4.925,8.826-8.505,12.235c-4.296,4.091-4.771,8.766-5.065,14.272
	c-0.318,5.965,1.531,8.798,7.148,10.726c9.385,3.222,18.466,7.325,27.699,10.997c1.346,0.535,2.619,1.565,4.603,0.974
	c0-16.699,0-33.511,0-50.324c0-3.666-0.012-7.333,0.006-10.999c0.014-2.89,0.627-5.61,4.169-5.612
	c3.515-0.002,4.213,2.693,4.217,5.587c0.019,13.165,0.009,26.33,0.01,39.495c0,7.158,0,14.317,0,22.197
	c11.264-5.443,22.074-10.683,32.904-15.88c1.34-0.643,1.308-1.708,1.3-2.892c-0.207-29.494-0.401-58.987-0.619-88.481
	c-0.002-0.287-0.299-0.571-0.512-0.954c-1.23,0.356-2.461,0.885-3.737,1.043c-1.963,0.243-3.61-0.343-4.322-2.467
	c-0.661-1.974-0.285-3.827,1.461-4.827c3.153-1.805,6.37-3.663,9.795-4.78c3.8-1.239,5.375,0.807,5.4,4.734
	c0.113,17.829,0.445,35.656,0.587,53.485c0.116,14.664-0.066,29.332,0.196,43.992c0.072,4.05-1.068,6.27-4.888,8.018
	c-12.658,5.793-25.178,11.898-37.621,18.142c-2.82,1.415-5.084,1.472-7.912,0.303c-12.859-5.315-25.821-10.381-38.676-15.707
	c-2.67-1.106-4.9-1.134-7.544,0.045c-8.779,3.913-17.644,7.636-26.509,11.352c-5.346,2.241-7.42,0.888-7.425-4.886
	c-0.031-32.496,0.016-64.992-0.061-97.488c-0.008-3.426,1.161-5.456,4.35-6.954c9.014-4.234,17.978-8.603,26.752-13.309
	c3.593-1.928,6.785-2.138,10.419-0.647c2.756,1.13,5.641,1.944,8.457,2.932c2.495,0.875,4.155,2.577,3.254,5.265
	c-0.869,2.589-3.078,3.298-5.708,2.446C56.905,38.034,54.723,37.357,52.109,36.531z M44.368,37.437
	c-7.473,3.682-14.192,7.183-21.086,10.297c-2.721,1.229-3.435,2.831-3.404,5.646c0.139,12.815,0.061,25.633,0.061,38.449
	c0,16.618,0,33.237,0,50.441c7.841-3.371,15.257-6.534,22.639-9.774c0.678-0.297,1.678-1.136,1.627-1.628
	c-0.727-6.968,2.845-14.577-3.594-20.724c-3.835-3.662-6.72-8.231-9.243-12.923C24.705,84.833,28.603,73.7,41.54,67.87
	c1.293-0.583,2.873-0.768,2.857-2.863C44.329,56.069,44.368,47.131,44.368,37.437z M48.533,106.997
	c4.129-4.993,7.948-9.754,10.61-15.324c2.565-5.366,1.463-10.58-2.959-14.18c-4.248-3.458-10.876-3.516-15.161-0.132
	c-4.446,3.51-5.69,8.863-3.227,14.155C40.402,97.121,44.277,101.852,48.533,106.997z"/>
<path d="M123.199,30.274c0.354,6.675-2.812,12.178-6.015,17.61c-5.428,9.208-12.414,17.221-19.563,25.106
	c-1.486,1.639-2.446,2.029-4.141,0.127c-8.521-9.565-16.973-19.174-22.633-30.818c-5.306-10.915-3.731-21.66,4.292-30.369
	c7.761-8.424,19.799-11.214,30.569-7.084C116.234,8.881,123.077,18.828,123.199,30.274z M104.492,30.501
	c0.105-4.673-3.684-8.706-8.319-8.856c-4.993-0.161-9.035,3.614-9.132,8.529c-0.094,4.795,3.502,8.628,8.258,8.8
	C100.286,39.154,104.382,35.379,104.492,30.501z"/>
<path d="M53.088,87.683c-0.364,2.508-1.846,4.363-4.814,4.292c-3.217-0.076-4.896-2.093-4.716-5.208
	c0.17-2.938,2.206-4.631,5.019-4.405C51.287,82.58,53.117,84.294,53.088,87.683z"/>
</svg>
