<svg xmlns="http://www.w3.org/2000/svg" width="2500" height="500"><path d="M1264,377L1142,336L1075,526Z" fill="#fdd11b" stroke="#fdd11b" stroke-width="1.51"/><path d="M1075,526L1282,545L1264,377Z" fill="#fbc917" stroke="#fbc917" stroke-width="1.51"/><path d="M1142,336L997,394L1075,526Z" fill="#fcc91a" stroke="#fcc91a" stroke-width="1.51"/><path d="M997,394L965,513L1075,526Z" fill="#fabb16" stroke="#fabb16" stroke-width="1.51"/><path d="M1282,545L1497,347L1264,377Z" fill="#fedd1b" stroke="#fedd1b" stroke-width="1.51"/><path d="M1199,707L1332,617L1282,545Z" fill="#f3e41c" stroke="#f3e41c" stroke-width="1.51"/><path d="M1199,707L1282,545L1075,526Z" fill="#f5d91a" stroke="#f5d91a" stroke-width="1.51"/><path d="M1021,774L1199,707L1075,526Z" fill="#f3cb1b" stroke="#f3cb1b" stroke-width="1.51"/><path d="M1142,336L922,245L997,394Z" fill="#fdda20" stroke="#fdda20" stroke-width="1.51"/><path d="M997,394L861,312L965,513Z" fill="#fccf1a" stroke="#fccf1a" stroke-width="1.51"/><path d="M1223,81L922,245L1142,336Z" fill="#fbc71e" stroke="#fbc71e" stroke-width="1.51"/><path d="M922,245L861,312L997,394Z" fill="#fddf20" stroke="#fddf20" stroke-width="1.51"/><path d="M1558,485L1497,347L1282,545Z" fill="#fedd19" stroke="#fedd19" stroke-width="1.51"/><path d="M1264,377L1223,81L1142,336Z" fill="#fdda1f" stroke="#fdda1f" stroke-width="1.51"/><path d="M965,513L1021,774L1075,526Z" fill="#f3cf1a" stroke="#f3cf1a" stroke-width="1.51"/><path d="M853,731L1021,774L965,513Z" fill="#f3cb1a" stroke="#f3cb1a" stroke-width="1.51"/><path d="M1497,347L1404,163L1264,377Z" fill="#ffee22" stroke="#ffee22" stroke-width="1.51"/><path d="M1404,163L1223,81L1264,377Z" fill="#fdd31f" stroke="#fdd31f" stroke-width="1.51"/><path d="M1021,774L1074,823L1199,707Z" fill="#f4af1a" stroke="#f4af1a" stroke-width="1.51"/><path d="M1379,871L1505,738L1332,617Z" fill="#f7ce1c" stroke="#f7ce1c" stroke-width="1.51"/><path d="M1332,617L1558,485L1282,545Z" fill="#f9e11a" stroke="#f9e11a" stroke-width="1.51"/><path d="M1505,738L1558,485L1332,617Z" fill="#f4f01d" stroke="#f4f01d" stroke-width="1.51"/><path d="M1223,81L1037,-75L922,245Z" fill="#fbd01d" stroke="#fbd01d" stroke-width="1.51"/><path d="M1255,15L1221,35L1223,81Z" fill="#fce71e" stroke="#fce71e" stroke-width="1.51"/><path d="M740,514L853,731L965,513Z" fill="#f5da18" stroke="#f5da18" stroke-width="1.51"/><path d="M1021,774L843,927L1074,823Z" fill="#f3ab1a" stroke="#f3ab1a" stroke-width="1.51"/><path d="M861,312L740,514L965,513Z" fill="#fccd16" stroke="#fccd16" stroke-width="1.51"/><path d="M1074,823L1128,889L1199,707Z" fill="#f4b01a" stroke="#f4b01a" stroke-width="1.51"/><path d="M843,927L1128,889L1074,823Z" fill="#f3a91a" stroke="#f3a91a" stroke-width="1.51"/><path d="M1379,871L1332,617L1199,707Z" fill="#f6c91c" stroke="#f6c91c" stroke-width="1.51"/><path d="M922,245L804,206L861,312Z" fill="#fcd61e" stroke="#fcd61e" stroke-width="1.51"/><path d="M861,312L715,354L740,514Z" fill="#fddf1b" stroke="#fddf1b" stroke-width="1.51"/><path d="M857,-3L804,206L922,245Z" fill="#fbca1d" stroke="#fbca1d" stroke-width="1.51"/><path d="M1221,35L1037,-75L1223,81Z" fill="#fce322" stroke="#fce322" stroke-width="1.51"/><path d="M1430,75L1255,15L1223,81Z" fill="#fde91e" stroke="#fde91e" stroke-width="1.51"/><path d="M1533,28L1430,75L1404,163Z" fill="#fdec1f" stroke="#fdec1f" stroke-width="1.51"/><path d="M1558,485L1621,408L1497,347Z" fill="#ffe31a" stroke="#ffe31a" stroke-width="1.51"/><path d="M1701,469L1621,408L1558,485Z" fill="#fed615" stroke="#fed615" stroke-width="1.51"/><path d="M1404,163L1430,75L1223,81Z" fill="#fde01e" stroke="#fde01e" stroke-width="1.51"/><path d="M1666,232L1404,163L1497,347Z" fill="#fee621" stroke="#fee621" stroke-width="1.51"/><path d="M804,206L715,354L861,312Z" fill="#fde41f" stroke="#fde41f" stroke-width="1.51"/><path d="M1128,889L1379,871L1199,707Z" fill="#f5b81b" stroke="#f5b81b" stroke-width="1.51"/><path d="M1505,738L1634,615L1558,485Z" fill="#f5eb1a" stroke="#f5eb1a" stroke-width="1.51"/><path d="M1696,898L1634,615L1505,738Z" fill="#f6c719" stroke="#f6c719" stroke-width="1.51"/><path d="M1634,615L1701,469L1558,485Z" fill="#fbd815" stroke="#fbd815" stroke-width="1.51"/><path d="M1621,408L1666,232L1497,347Z" fill="#fff220" stroke="#fff220" stroke-width="1.51"/><path d="M1861,344L1666,232L1621,408Z" fill="#ffea1d" stroke="#ffea1d" stroke-width="1.51"/><path d="M1092,-165L1037,-75L1221,35Z" fill="#f6c839" stroke="#f6c839" stroke-width="1.51"/><path d="M1092,-165L1221,35L1255,15Z" fill="#f8d633" stroke="#f8d633" stroke-width="1.51"/><path d="M804,206L592,101L715,354Z" fill="#fcdc1d" stroke="#fcdc1d" stroke-width="1.51"/><path d="M1037,-75L857,-3L922,245Z" fill="#fbdb1c" stroke="#fbdb1c" stroke-width="1.51"/><path d="M1430,75L1299,-109L1255,15Z" fill="#fbe92b" stroke="#fbe92b" stroke-width="1.51"/><path d="M1666,232L1533,28L1404,163Z" fill="#fddd1e" stroke="#fddd1e" stroke-width="1.51"/><path d="M740,514L636,630L853,731Z" fill="#f2e81a" stroke="#f2e81a" stroke-width="1.51"/><path d="M853,731L843,927L1021,774Z" fill="#f4b11a" stroke="#f4b11a" stroke-width="1.51"/><path d="M568,511L636,630L740,514Z" fill="#f7e416" stroke="#f7e416" stroke-width="1.51"/><path d="M590,872L843,927L853,731Z" fill="#f4bd19" stroke="#f4bd19" stroke-width="1.51"/><path d="M1128,889L1599,903L1379,871Z" fill="#f6c21c" stroke="#f6c21c" stroke-width="1.51"/><path d="M1511,-167L1299,-109L1430,75Z" fill="#f8de3d" stroke="#f8de3d" stroke-width="1.51"/><path d="M465,363L568,511L715,354Z" fill="#fdeb18" stroke="#fdeb18" stroke-width="1.51"/><path d="M715,354L568,511L740,514Z" fill="#fcd914" stroke="#fcd914" stroke-width="1.51"/><path d="M1037,-75L1018,-138L857,-3Z" fill="#f5c439" stroke="#f5c439" stroke-width="1.51"/><path d="M1092,-165L1018,-138L1037,-75Z" fill="#f1b243" stroke="#f1b243" stroke-width="1.51"/><path d="M1379,871L1599,903L1505,738Z" fill="#f7c81c" stroke="#f7c81c" stroke-width="1.51"/><path d="M1809,699L1845,431L1701,469Z" fill="#f9d011" stroke="#f9d011" stroke-width="1.51"/><path d="M843,927L1599,903L1128,889Z" fill="#f4b41b" stroke="#f4b41b" stroke-width="1.51"/><path d="M1299,-109L1092,-165L1255,15Z" fill="#f6ca3e" stroke="#f6ca3e" stroke-width="1.51"/><path d="M1708,-18L1511,-167L1533,28Z" fill="#f9df38" stroke="#f9df38" stroke-width="1.51"/><path d="M1701,469L1861,344L1621,408Z" fill="#fed916" stroke="#fed916" stroke-width="1.51"/><path d="M1809,699L1701,469L1634,615Z" fill="#f6de16" stroke="#f6de16" stroke-width="1.51"/><path d="M857,-3L592,101L804,206Z" fill="#fbdf1c" stroke="#fbdf1c" stroke-width="1.51"/><path d="M787,-132L592,101L857,-3Z" fill="#f9e72b" stroke="#f9e72b" stroke-width="1.51"/><path d="M1696,898L1809,699L1634,615Z" fill="#f6c417" stroke="#f6c417" stroke-width="1.51"/><path d="M1599,903L1696,898L1505,738Z" fill="#f7c11a" stroke="#f7c11a" stroke-width="1.51"/><path d="M1845,431L1861,344L1701,469Z" fill="#fed114" stroke="#fed114" stroke-width="1.51"/><path d="M2032,305L1861,344L1845,431Z" fill="#fed515" stroke="#fed515" stroke-width="1.51"/><path d="M1092,-165L787,-132L1018,-138Z" fill="#f3b340" stroke="#f3b340" stroke-width="1.51"/><path d="M1018,-138L787,-132L857,-3Z" fill="#f4c53e" stroke="#f4c53e" stroke-width="1.51"/><path d="M1533,28L1511,-167L1430,75Z" fill="#fbef31" stroke="#fbef31" stroke-width="1.51"/><path d="M1299,-109L1511,-167L1092,-165Z" fill="#f6c443" stroke="#f6c443" stroke-width="1.51"/><path d="M1708,-18L1533,28L1666,232Z" fill="#fde41c" stroke="#fde41c" stroke-width="1.51"/><path d="M592,101L465,363L715,354Z" fill="#fdf01e" stroke="#fdf01e" stroke-width="1.51"/><path d="M481,683L590,872L636,630Z" fill="#f5d819" stroke="#f5d819" stroke-width="1.51"/><path d="M1797,55L1708,-18L1666,232Z" fill="#fddc19" stroke="#fddc19" stroke-width="1.51"/><path d="M481,683L636,630L568,511Z" fill="#f3f11b" stroke="#f3f11b" stroke-width="1.51"/><path d="M636,630L590,872L853,731Z" fill="#f5cb19" stroke="#f5cb19" stroke-width="1.51"/><path d="M424,578L481,683L568,511Z" fill="#f3e825" stroke="#f3e825" stroke-width="1.51"/><path d="M1871,187L1797,55L1666,232Z" fill="#fcc819" stroke="#fcc819" stroke-width="1.51"/><path d="M1861,344L1871,187L1666,232Z" fill="#fdd51a" stroke="#fdd51a" stroke-width="1.51"/><path d="M465,363L424,578L568,511Z" fill="#fad722" stroke="#fad722" stroke-width="1.51"/><path d="M592,101L389,188L465,363Z" fill="#fadc29" stroke="#fadc29" stroke-width="1.51"/><path d="M787,-132L576,-89L592,101Z" fill="#f8e634" stroke="#f8e634" stroke-width="1.51"/><path d="M299,619L428,789L481,683Z" fill="#f1d12e" stroke="#f1d12e" stroke-width="1.51"/><path d="M481,683L428,789L590,872Z" fill="#f4c523" stroke="#f4c523" stroke-width="1.51"/><path d="M787,-132L569,-104L576,-89Z" fill="#f4d343" stroke="#f4d343" stroke-width="1.51"/><path d="M390,-21L389,188L592,101Z" fill="#f9e52c" stroke="#f9e52c" stroke-width="1.51"/><path d="M249,483L299,619L424,578Z" fill="#f2d435" stroke="#f2d435" stroke-width="1.51"/><path d="M424,578L299,619L481,683Z" fill="#efe530" stroke="#efe530" stroke-width="1.51"/><path d="M390,-21L592,101L576,-89Z" fill="#f9f12e" stroke="#f9f12e" stroke-width="1.51"/><path d="M1696,898L1897,850L1809,699Z" fill="#f5b315" stroke="#f5b315" stroke-width="1.51"/><path d="M2098,577L2032,305L1845,431Z" fill="#fbc710" stroke="#fbc710" stroke-width="1.51"/><path d="M1861,344L2032,305L1871,187Z" fill="#fdd217" stroke="#fdd217" stroke-width="1.51"/><path d="M1856,-238L1701,-190L1708,-18Z" fill="#f5bd3f" stroke="#f5bd3f" stroke-width="1.51"/><path d="M1708,-18L1701,-190L1511,-167Z" fill="#f4c745" stroke="#f4c745" stroke-width="1.51"/><path d="M1511,-167L1856,-238L1092,-165Z" fill="#fbcc3f" stroke="#fbcc3f" stroke-width="1.51"/><path d="M1856,-238L1708,-18L1797,55Z" fill="#f7cd37" stroke="#f7cd37" stroke-width="1.51"/><path d="M1871,187L2038,-57L1797,55Z" fill="#fcd714" stroke="#fcd714" stroke-width="1.51"/><path d="M2046,632L1845,431L1809,699Z" fill="#f5d010" stroke="#f5d010" stroke-width="1.51"/><path d="M249,483L424,578L465,363Z" fill="#f8cb2d" stroke="#f8cb2d" stroke-width="1.51"/><path d="M1897,850L2046,632L1809,699Z" fill="#f4b812" stroke="#f4b812" stroke-width="1.51"/><path d="M569,-104L390,-21L576,-89Z" fill="#f5dd41" stroke="#f5dd41" stroke-width="1.51"/><path d="M251,341L249,483L465,363Z" fill="#f8d637" stroke="#f8d637" stroke-width="1.51"/><path d="M251,341L465,363L389,188Z" fill="#fae337" stroke="#fae337" stroke-width="1.51"/><path d="M590,872L362,899L843,927Z" fill="#f5ca19" stroke="#f5ca19" stroke-width="1.51"/><path d="M428,789L362,899L590,872Z" fill="#f3c127" stroke="#f3c127" stroke-width="1.51"/><path d="M159,855L362,899L428,789Z" fill="#efb333" stroke="#efb333" stroke-width="1.51"/><path d="M159,855L428,789L299,619Z" fill="#efb735" stroke="#efb735" stroke-width="1.51"/><path d="M245,213L251,341L389,188Z" fill="#f7d13b" stroke="#f7d13b" stroke-width="1.51"/><path d="M2046,632L2098,577L1845,431Z" fill="#f6cc0e" stroke="#f6cc0e" stroke-width="1.51"/><path d="M2172,596L2098,577L2046,632Z" fill="#f0db12" stroke="#f0db12" stroke-width="1.51"/><path d="M2032,305L2096,248L1871,187Z" fill="#fbce18" stroke="#fbce18" stroke-width="1.51"/><path d="M2222,285L2096,248L2032,305Z" fill="#f9db19" stroke="#f9db19" stroke-width="1.51"/><path d="M251,341L122,451L249,483Z" fill="#f5c53e" stroke="#f5c53e" stroke-width="1.51"/><path d="M196,90L245,213L389,188Z" fill="#f5c23a" stroke="#f5c23a" stroke-width="1.51"/><path d="M390,-21L196,90L389,188Z" fill="#f7d938" stroke="#f7d938" stroke-width="1.51"/><path d="M569,-104L345,-90L390,-21Z" fill="#f3d646" stroke="#f3d646" stroke-width="1.51"/><path d="M787,-132L484,-230L569,-104Z" fill="#f5cf42" stroke="#f5cf42" stroke-width="1.51"/><path d="M1092,-165L484,-230L787,-132Z" fill="#f6bf3e" stroke="#f6bf3e" stroke-width="1.51"/><path d="M1856,-238L484,-230L1092,-165Z" fill="#f9b138" stroke="#f9b138" stroke-width="1.51"/><path d="M1701,-190L1856,-238L1511,-167Z" fill="#fabd3a" stroke="#fabd3a" stroke-width="1.51"/><path d="M2038,-57L1856,-238L1797,55Z" fill="#f5c238" stroke="#f5c238" stroke-width="1.51"/><path d="M484,-230L345,-90L569,-104Z" fill="#f2c94b" stroke="#f2c94b" stroke-width="1.51"/><path d="M2145,143L2038,-57L1871,187Z" fill="#fad315" stroke="#fad315" stroke-width="1.51"/><path d="M2098,577L2222,285L2032,305Z" fill="#f9d815" stroke="#f9d815" stroke-width="1.51"/><path d="M2096,248L2145,143L1871,187Z" fill="#f9c417" stroke="#f9c417" stroke-width="1.51"/><path d="M2096,866L2172,596L2046,632Z" fill="#f0ca14" stroke="#f0ca14" stroke-width="1.51"/><path d="M1696,898L2096,866L1897,850Z" fill="#f4ac13" stroke="#f4ac13" stroke-width="1.51"/><path d="M1897,850L2096,866L2046,632Z" fill="#f2af13" stroke="#f2af13" stroke-width="1.51"/><path d="M2222,285L2145,143L2096,248Z" fill="#f7d219" stroke="#f7d219" stroke-width="1.51"/><path d="M117,363L122,451L251,341Z" fill="#f4c943" stroke="#f4c943" stroke-width="1.51"/><path d="M345,-90L196,90L390,-21Z" fill="#f5dd42" stroke="#f5dd42" stroke-width="1.51"/><path d="M117,363L251,341L245,213Z" fill="#f6d543" stroke="#f6d543" stroke-width="1.51"/><path d="M249,483L37,620L299,619Z" fill="#eeca3f" stroke="#eeca3f" stroke-width="1.51"/><path d="M345,-90L141,20L196,90Z" fill="#f4d944" stroke="#f4d944" stroke-width="1.51"/><path d="M484,-230L347,-202L345,-90Z" fill="#f3bf4b" stroke="#f3bf4b" stroke-width="1.51"/><path d="M196,90L117,363L245,213Z" fill="#f4c141" stroke="#f4c141" stroke-width="1.51"/><path d="M2260,6L2102,-152L2038,-57Z" fill="#f2cf36" stroke="#f2cf36" stroke-width="1.51"/><path d="M2304,525L2222,285L2098,577Z" fill="#f6ce0f" stroke="#f6ce0f" stroke-width="1.51"/><path d="M37,620L159,855L299,619Z" fill="#ebbb40" stroke="#ebbb40" stroke-width="1.51"/><path d="M2038,-57L2102,-152L1856,-238Z" fill="#f2b53d" stroke="#f2b53d" stroke-width="1.51"/><path d="M2260,6L2038,-57L2145,143Z" fill="#f7e815" stroke="#f7e815" stroke-width="1.51"/><path d="M155,-252L141,20L345,-90Z" fill="#ecb857" stroke="#ecb857" stroke-width="1.51"/><path d="M196,90L-129,162L117,363Z" fill="#f4b541" stroke="#f4b541" stroke-width="1.51"/><path d="M2172,596L2304,525L2098,577Z" fill="#f1d912" stroke="#f1d912" stroke-width="1.51"/><path d="M2096,866L2276,654L2172,596Z" fill="#efcc15" stroke="#efcc15" stroke-width="1.51"/><path d="M2276,654L2304,525L2172,596Z" fill="#eee114" stroke="#eee114" stroke-width="1.51"/><path d="M2391,116L2260,6L2145,143Z" fill="#f5e118" stroke="#f5e118" stroke-width="1.51"/><path d="M11,545L122,451L-109,387Z" fill="#f6b33b" stroke="#f6b33b" stroke-width="1.51"/><path d="M11,545L37,620L122,451Z" fill="#f1bc3f" stroke="#f1bc3f" stroke-width="1.51"/><path d="M122,451L37,620L249,483Z" fill="#f0bb40" stroke="#f0bb40" stroke-width="1.51"/><path d="M-109,387L122,451L117,363Z" fill="#f6c040" stroke="#f6c040" stroke-width="1.51"/><path d="M2304,525L2333,334L2222,285Z" fill="#f6e318" stroke="#f6e318" stroke-width="1.51"/><path d="M2556,428L2545,382L2333,334Z" fill="#f4de18" stroke="#f4de18" stroke-width="1.51"/><path d="M2276,654L2404,618L2304,525Z" fill="#ebe615" stroke="#ebe615" stroke-width="1.51"/><path d="M2096,866L2271,846L2276,654Z" fill="#efba15" stroke="#efba15" stroke-width="1.51"/><path d="M2391,116L2145,143L2222,285Z" fill="#f4cd19" stroke="#f4cd19" stroke-width="1.51"/><path d="M11,545L-8,661L37,620Z" fill="#eec53f" stroke="#eec53f" stroke-width="1.51"/><path d="M37,620L-8,661L159,855Z" fill="#ecb13e" stroke="#ecb13e" stroke-width="1.51"/><path d="M347,-202L155,-252L345,-90Z" fill="#f1b44f" stroke="#f1b44f" stroke-width="1.51"/><path d="M141,20L-9,2L196,90Z" fill="#f3d146" stroke="#f3d146" stroke-width="1.51"/><path d="M484,-230L155,-252L347,-202Z" fill="#f6b447" stroke="#f6b447" stroke-width="1.51"/><path d="M1856,-238L155,-252L484,-230Z" fill="#fcb534" stroke="#fcb534" stroke-width="1.51"/><path d="M2468,779L2404,618L2276,654Z" fill="#eadc17" stroke="#eadc17" stroke-width="1.51"/><path d="M2313,-190L2244,-199L2260,6Z" fill="#ebc643" stroke="#ebc643" stroke-width="1.51"/><path d="M2391,116L2222,285L2333,334Z" fill="#f4df1b" stroke="#f4df1b" stroke-width="1.51"/><path d="M2260,6L2244,-199L2102,-152Z" fill="#eec541" stroke="#eec541" stroke-width="1.51"/><path d="M2102,-152L2244,-199L1856,-238Z" fill="#f6b437" stroke="#f6b437" stroke-width="1.51"/><path d="M13,-190L-9,2L141,20Z" fill="#efbb50" stroke="#efbb50" stroke-width="1.51"/><path d="M11,545L-208,518L-8,661Z" fill="#f2be3a" stroke="#f2be3a" stroke-width="1.51"/><path d="M2545,382L2391,116L2333,334Z" fill="#f4e41c" stroke="#f4e41c" stroke-width="1.51"/><path d="M-129,162L-109,387L117,363Z" fill="#f9c940" stroke="#f9c940" stroke-width="1.51"/><path d="M2417,-73L2313,-190L2260,6Z" fill="#edd43d" stroke="#edd43d" stroke-width="1.51"/><path d="M155,-252L13,-190L141,20Z" fill="#eaa859" stroke="#eaa859" stroke-width="1.51"/><path d="M-9,2L-129,162L196,90Z" fill="#f5c341" stroke="#f5c341" stroke-width="1.51"/><path d="M-211,-72L-129,162L-9,2Z" fill="#facc3b" stroke="#facc3b" stroke-width="1.51"/><path d="M2556,428L2333,334L2304,525Z" fill="#f3dc15" stroke="#f3dc15" stroke-width="1.51"/><path d="M2271,846L2468,779L2276,654Z" fill="#ecc517" stroke="#ecc517" stroke-width="1.51"/><path d="M-208,518L11,545L-109,387Z" fill="#f7ad35" stroke="#f7ad35" stroke-width="1.51"/><path d="M-227,609L-127,832L-8,661Z" fill="#f1ae36" stroke="#f1ae36" stroke-width="1.51"/><path d="M-8,661L-127,832L159,855Z" fill="#ee9d3a" stroke="#ee9d3a" stroke-width="1.51"/><path d="M159,855L-214,932L362,899Z" fill="#eba03d" stroke="#eba03d" stroke-width="1.51"/><path d="M-129,162L-161,217L-109,387Z" fill="#fabb3a" stroke="#fabb3a" stroke-width="1.51"/><path d="M-211,-72L-161,217L-129,162Z" fill="#fbb937" stroke="#fbb937" stroke-width="1.51"/><path d="M2391,116L2417,-73L2260,6Z" fill="#f1f21d" stroke="#f1f21d" stroke-width="1.51"/><path d="M2569,-42L2417,-73L2391,116Z" fill="#f2e724" stroke="#f2e724" stroke-width="1.51"/><path d="M2556,428L2304,525L2404,618Z" fill="#f0d813" stroke="#f0d813" stroke-width="1.51"/><path d="M-262,397L-208,518L-109,387Z" fill="#fcb133" stroke="#fcb133" stroke-width="1.51"/><path d="M2648,628L2556,428L2404,618Z" fill="#eed314" stroke="#eed314" stroke-width="1.51"/><path d="M-208,518L-227,609L-8,661Z" fill="#f3be37" stroke="#f3be37" stroke-width="1.51"/><path d="M-262,397L-227,609L-208,518Z" fill="#faae2f" stroke="#faae2f" stroke-width="1.51"/><path d="M-161,217L-262,397L-109,387Z" fill="#fec739" stroke="#fec739" stroke-width="1.51"/><path d="M-211,-72L-262,397L-161,217Z" fill="#faa733" stroke="#faa733" stroke-width="1.51"/><path d="M2772,341L2605,186L2545,382Z" fill="#f6d61c" stroke="#f6d61c" stroke-width="1.51"/><path d="M2545,382L2605,186L2391,116Z" fill="#f4d11b" stroke="#f4d11b" stroke-width="1.51"/><path d="M-227,609L-214,932L-127,832Z" fill="#f39730" stroke="#f39730" stroke-width="1.51"/><path d="M-127,832L-214,932L159,855Z" fill="#ef9b37" stroke="#ef9b37" stroke-width="1.51"/><path d="M362,899L-214,932L843,927Z" fill="#f0b532" stroke="#f0b532" stroke-width="1.51"/><path d="M-262,397L-214,932L-227,609Z" fill="#f5ba32" stroke="#f5ba32" stroke-width="1.51"/><path d="M2468,779L2648,628L2404,618Z" fill="#ebd317" stroke="#ebd317" stroke-width="1.51"/><path d="M2556,428L2682,483L2545,382Z" fill="#f4c915" stroke="#f4c915" stroke-width="1.51"/><path d="M2271,846L2576,906L2468,779Z" fill="#edbd17" stroke="#edbd17" stroke-width="1.51"/><path d="M2096,866L2576,906L2271,846Z" fill="#edc016" stroke="#edc016" stroke-width="1.51"/><path d="M1696,898L2576,906L2096,866Z" fill="#f1b514" stroke="#f1b514" stroke-width="1.51"/><path d="M2803,948L2576,906L1696,898Z" fill="#ecc217" stroke="#ecc217" stroke-width="1.51"/><path d="M2803,948L1696,898L1599,903Z" fill="#f2b014" stroke="#f2b014" stroke-width="1.51"/><path d="M13,-190L-211,-72L-9,2Z" fill="#f1af50" stroke="#f1af50" stroke-width="1.51"/><path d="M2605,186L2569,-42L2391,116Z" fill="#f3d91a" stroke="#f3d91a" stroke-width="1.51"/><path d="M2417,-73L2604,-181L2313,-190Z" fill="#ecc341" stroke="#ecc341" stroke-width="1.51"/><path d="M2716,728L2648,628L2468,779Z" fill="#ecbf17" stroke="#ecbf17" stroke-width="1.51"/><path d="M2648,628L2682,483L2556,428Z" fill="#f1c213" stroke="#f1c213" stroke-width="1.51"/><path d="M2605,186L2658,149L2569,-42Z" fill="#f4ce19" stroke="#f4ce19" stroke-width="1.51"/><path d="M2772,341L2658,149L2605,186Z" fill="#f5c11b" stroke="#f5c11b" stroke-width="1.51"/><path d="M13,-190L-174,-252L-211,-72Z" fill="#f39e4d" stroke="#f39e4d" stroke-width="1.51"/><path d="M155,-252L-174,-252L13,-190Z" fill="#f49c4b" stroke="#f49c4b" stroke-width="1.51"/><path d="M2755,-31L2604,-181L2569,-42Z" fill="#edbe3a" stroke="#edbe3a" stroke-width="1.51"/><path d="M2569,-42L2604,-181L2417,-73Z" fill="#ecc53e" stroke="#ecc53e" stroke-width="1.51"/><path d="M2313,-190L2604,-181L2244,-199Z" fill="#efc53b" stroke="#efc53b" stroke-width="1.51"/><path d="M2244,-199L2604,-181L1856,-238Z" fill="#f3bc37" stroke="#f3bc37" stroke-width="1.51"/><path d="M2682,483L2772,341L2545,382Z" fill="#f6c817" stroke="#f6c817" stroke-width="1.51"/><path d="M2648,628L2716,728L2682,483Z" fill="#ecce17" stroke="#ecce17" stroke-width="1.51"/><path d="M2576,906L2716,728L2468,779Z" fill="#edaf17" stroke="#edaf17" stroke-width="1.51"/><path d="M2658,149L2755,-31L2569,-42Z" fill="#f4db18" stroke="#f4db18" stroke-width="1.51"/><path d="M2716,728L2772,341L2682,483Z" fill="#f2bb13" stroke="#f2bb13" stroke-width="1.51"/><path d="M2772,341L2755,-31L2658,149Z" fill="#f4b61a" stroke="#f4b61a" stroke-width="1.51"/><path d="M2772,341L2764,-147L2755,-31Z" fill="#f5cb19" stroke="#f5cb19" stroke-width="1.51"/><path d="M2755,-31L2764,-147L2604,-181Z" fill="#ebae40" stroke="#ebae40" stroke-width="1.51"/><path d="M2716,728L2803,948L2772,341Z" fill="#ecbb17" stroke="#ecbb17" stroke-width="1.51"/><path d="M2772,341L2803,948L2764,-147Z" fill="#f6c319" stroke="#f6c319" stroke-width="1.51"/><path d="M2576,906L2803,948L2716,728Z" fill="#eda417" stroke="#eda417" stroke-width="1.51"/><path d="M843,927L2803,948L1599,903Z" fill="#f5b716" stroke="#f5b716" stroke-width="1.51"/><path d="M-214,932L2803,948L843,927Z" fill="#f4b11a" stroke="#f4b11a" stroke-width="1.51"/></svg>