<?xml version="1.0" encoding="utf-8"?>
<!-- Generator: Adobe Illustrator 17.0.1, SVG Export Plug-In . SVG Version: 6.00 Build 0)  -->
<!DOCTYPE svg PUBLIC "-//W3C//DTD SVG 1.1//EN" "http://www.w3.org/Graphics/SVG/1.1/DTD/svg11.dtd">
<svg version="1.1" id="Layer_1" xmlns="http://www.w3.org/2000/svg" xmlns:xlink="http://www.w3.org/1999/xlink" x="0px" y="0px"
	 width="243.124px" height="208.321px" viewBox="0 0 243.124 208.321" enable-background="new 0 0 243.124 208.321"
	 xml:space="preserve">
<path fill="#848484" d="M0.049,208.321c0-0.922,0-1.567,0-2.211c0-25.567,0.023-51.135-0.049-76.702
	c-0.005-1.828,0.592-2.28,2.26-2.497c18.82-2.452,37.628-4.987,56.442-7.485c18.419-2.446,36.842-4.862,55.26-7.313
	c18.747-2.495,37.491-5.016,56.236-7.526c0.305-0.041,0.679,0.025,0.815-0.671c-0.91-0.165-1.822-0.368-2.744-0.491
	c-14.997-2.005-29.997-3.996-44.995-5.998c-13.615-1.818-27.228-3.655-40.844-5.47c-17.234-2.297-34.47-4.584-51.705-6.869
	c-9.67-1.282-19.34-2.557-29.012-3.817c-1.079-0.141-1.705-0.356-1.702-1.756C0.064,53.348,0.05,27.183,0.053,1.018
	c0-0.257,0.043-0.514,0.088-1.018c80.895,34.671,161.68,69.295,242.984,104.141C161.841,138.978,81.06,173.6,0.049,208.321z"/>
</svg>
