<?xml version="1.0" encoding="utf-8"?>
<!-- Generator: Adobe Illustrator 17.0.1, SVG Export Plug-In . SVG Version: 6.00 Build 0)  -->
<!DOCTYPE svg PUBLIC "-//W3C//DTD SVG 1.1//EN" "http://www.w3.org/Graphics/SVG/1.1/DTD/svg11.dtd">
<svg version="1.1" id="Layer_1" xmlns="http://www.w3.org/2000/svg" xmlns:xlink="http://www.w3.org/1999/xlink" x="0px" y="0px"
	 width="150px" height="150px" viewBox="0 0 150 150" enable-background="new 0 0 150 150" xml:space="preserve">
<g>
	<path d="M138.349,0.98H11.651c-5.89,0-10.682,4.809-10.682,10.719v1.72c0,4.912,3.313,9.052,7.812,10.315v90.735
		c0,2.066,1.668,3.739,3.726,3.739h58.767v7.699c-4.695,1.57-8.092,6.019-8.092,11.252c0,6.54,5.302,11.86,11.818,11.86
		s11.818-5.321,11.818-11.86c0-5.233-3.396-9.682-8.092-11.252v-7.699h58.767c2.058,0,3.726-1.674,3.726-3.739V23.734
		c4.499-1.262,7.812-5.403,7.812-10.315V11.7C149.031,5.789,144.239,0.98,138.349,0.98z M75,141.542
		c-2.408,0-4.366-1.965-4.366-4.382c0-2.416,1.958-4.381,4.366-4.381s4.366,1.965,4.366,4.381
		C79.366,139.577,77.408,141.542,75,141.542z M133.767,110.731H16.233V24.138h117.533V110.731z M141.579,13.419
		c0,1.787-1.449,3.241-3.229,3.241H11.651c-1.781,0-3.229-1.454-3.229-3.241v-1.72c0-1.787,1.449-3.241,3.229-3.241h126.699
		c1.781,0,3.229,1.454,3.229,3.241V13.419z"/>
	<path d="M26.45,101.967c0.953,0,1.907-0.365,2.635-1.095l14.284-14.334l13.782,6.914c1.682,0.844,3.725,0.298,4.767-1.27
		l14.116-21.249l21.175,14.167c0.909,0.608,2.037,0.784,3.089,0.485c1.05-0.301,1.916-1.049,2.369-2.046l14.569-32.105l2.914,6.529
		c0.62,1.388,1.979,2.212,3.403,2.212c0.509,0,1.026-0.105,1.521-0.328c1.878-0.844,2.719-3.056,1.877-4.941l-6.716-15.047
		c-0.404-0.905-1.15-1.612-2.073-1.965c-0.923-0.352-1.949-0.324-2.851,0.081l-14.992,6.738c-1.878,0.844-2.719,3.057-1.877,4.941
		c0.842,1.885,3.046,2.728,4.924,1.884l7.078-3.182L97.699,76.439L77.067,62.635c-0.822-0.549-1.829-0.75-2.798-0.555
		c-0.969,0.195-1.821,0.767-2.37,1.592L57.541,85.287l-13.242-6.644c-1.434-0.72-3.166-0.438-4.301,0.7l-16.182,16.24
		c-1.455,1.46-1.455,3.828,0,5.288C24.542,101.602,25.496,101.967,26.45,101.967z"/>
</g>
</svg>
