<?xml version="1.0" encoding="utf-8"?>
<!-- Generator: Adobe Illustrator 17.0.1, SVG Export Plug-In . SVG Version: 6.00 Build 0)  -->
<!DOCTYPE svg PUBLIC "-//W3C//DTD SVG 1.1//EN" "http://www.w3.org/Graphics/SVG/1.1/DTD/svg11.dtd">
<svg version="1.1" id="Layer_1" xmlns="http://www.w3.org/2000/svg" xmlns:xlink="http://www.w3.org/1999/xlink" x="0px" y="0px"
	 width="150px" height="150px" viewBox="0 0 150 150" enable-background="new 0 0 150 150" xml:space="preserve">
<g>
	<g>
		<path d="M73.969,108.892c-0.49,0.356-1.04,0.604-1.635,0.765c-0.6,0.138-1.214,0.213-1.841,0.178v3.985h4.241v13.644h4.57v-22.218
			h-3.577c-0.05,0.874-0.234,1.604-0.545,2.208C74.862,108.041,74.459,108.518,73.969,108.892z"/>
		<path d="M12.225,74.634c0,0,1.85-5.083-0.985-10.534c-2.835-5.462-7.277-6.543-7.277-6.543s-2.042,6.009,0.728,11.327
			C7.449,74.203,12.225,74.634,12.225,74.634z"/>
		<path d="M20.17,75.508c0,0,4.552-1.834,6.237-7.826c1.681-6.003-1.438-11.224-1.438-11.224s-4.103,2.375-5.834,8.521
			C17.413,71.132,20.17,75.508,20.17,75.508z"/>
		<path d="M21.924,82.258c-1.072,6.382,2.12,10.275,2.12,10.275s4.328-2.576,5.372-8.786c1.04-6.221-2.597-10.89-2.597-10.89
			S23,75.876,21.924,82.258z"/>
		<path d="M32.008,103.7c0,0,4.112-3.065,4.685-9.378c0.577-6.319-3.398-10.534-3.398-10.534s-3.577,3.461-4.176,9.947
			C28.528,100.215,32.008,103.7,32.008,103.7z"/>
		<path d="M42.527,114.239c0,0,3.238-4.433,2.34-10.683c-0.907-6.256-5.678-8.866-5.678-8.866s-2.633,4.611-1.713,11.034
			C38.401,112.14,42.527,114.239,42.527,114.239z"/>
		<path d="M15.998,61.38c0,0,3.787-2.927,3.838-9.453c0.05-6.52-3.16-10.511-3.16-10.511s-4.36,3.571-4.41,9.936
			C12.211,57.7,15.998,61.38,15.998,61.38z"/>
		<path d="M14.675,87.732c0,0,0.572-5.531-3.416-9.706c-3.998-4.163-8.49-3.553-8.49-3.553s-0.54,6.497,3.348,10.563
			C10.013,89.089,14.675,87.732,14.675,87.732z"/>
		<path d="M20.601,100.175c0,0-0.421-5.572-5.051-8.51c-4.634-2.955-8.907-1.092-8.907-1.092s0.623,6.486,5.138,9.361
			C16.291,102.797,20.601,100.175,20.601,100.175z"/>
		<path d="M21.004,103.556c-5.129-1.058-8.751,2.334-8.751,2.334s2.157,5.94,7.148,6.975c4.996,1.023,8.472-3.116,8.472-3.116
			S26.128,104.614,21.004,103.556z"/>
		<path d="M30.996,113.699c-5.184-0.276-8.467,3.628-8.467,3.628s2.706,5.589,7.767,5.859c5.056,0.264,8.106-4.364,8.106-4.364
			S36.189,113.969,30.996,113.699z"/>
		<path d="M17.184,64.905l-2.418-0.696c-0.06,0.333-5.628,33.315,31.941,57.637l1.136-2.76
			C12.083,95.931,16.96,66.159,17.184,64.905z"/>
		<path d="M99.747,132.208h-2.372V98.806h2.372v-4.893h-2.88v-3.41c0,0-19.087-4.456-19.087-14.386
			c0-3.249,2.358-6.825,5.463-11.488l0.774,2.714l5.097-2.306l-0.311-1.098c8.348,0.609,15.263-2.173,20.63-8.303
			c13.376-15.3,11.897-45.821,11.824-47.109l-0.169-3.174h-15.579l0.811,4.197c0.343,1.828,0.188,3.329-0.513,4.715
			c-1.676,3.312-6.022,5.083-7.561,5.48h-0.009c0.018-1.276,0.014-2.576-0.009-3.904h3.723v-5.382H75.544v-0.034H49.135v5.388h3.723
			c-0.023,1.322-0.027,2.628-0.009,3.904H52.84c-1.534-0.397-5.885-2.168-7.561-5.48c-0.696-1.391-0.856-2.892-0.513-4.726
			l0.806-4.197h-15.57l-0.169,3.174c-0.073,1.288-1.552,31.808,11.824,47.109c5.367,6.129,12.282,8.918,20.63,8.303l-0.316,1.098
			l5.101,2.306l0.774-2.714c3.105,4.669,5.463,8.24,5.463,11.488c0,9.93-19.087,14.392-19.087,14.392v3.404h-2.88v4.893h2.372
			v33.407h-2.372v5.537h-1.694v8.286H75.54v0.035h25.901v-8.286h-1.694V132.208z M97.723,28.324h3.769v-2.656
			c2.551-1.046,6.631-3.323,8.875-7.734c0.893-1.771,1.406-3.72,1.52-5.784h4.021c-0.014,7.797-0.98,27.996-10.134,38.455
			c-4.451,5.077-10.4,7.21-17.709,6.411C92.163,50.001,96.262,40.899,97.723,28.324z M45.311,50.576
			c-9.159-10.459-10.121-30.658-10.134-38.455h4.021c0.11,2.058,0.627,4.013,1.52,5.784c2.239,4.41,6.324,6.687,8.87,7.734v2.656
			h3.773c1.461,12.581,5.555,21.683,9.663,28.698C55.706,57.787,49.767,55.653,45.311,50.576z M93.303,132.208H75.544v-0.035H57.776
			v-32.119h17.759v0.035h17.768V132.208z"/>
		<path d="M138.859,74.668c0,0,4.772-0.425,7.538-5.75c2.766-5.319,0.724-11.327,0.724-11.327s-4.442,1.081-7.277,6.543
			C137,69.585,138.859,74.668,138.859,74.668z"/>
		<path d="M130.91,75.542c0,0,2.766-4.376,1.044-10.528c-1.731-6.152-5.834-8.527-5.834-8.527s-3.123,5.221-1.433,11.224
			C126.362,73.708,130.91,75.542,130.91,75.542z"/>
		<path d="M127.035,92.568c0,0,3.192-3.893,2.12-10.269c-1.067-6.382-4.891-9.407-4.891-9.407s-3.636,4.669-2.597,10.89
			C122.703,89.992,127.035,92.568,127.035,92.568z"/>
		<path d="M117.794,83.822c0,0-3.975,4.22-3.398,10.534c0.572,6.313,4.68,9.384,4.68,9.384s3.476-3.49,2.89-9.97
			C121.366,87.284,117.794,83.822,117.794,83.822z"/>
		<path d="M106.222,103.585c-0.898,6.262,2.34,10.683,2.34,10.683s4.126-2.093,5.051-8.51c0.92-6.423-1.713-11.034-1.713-11.034
			S107.119,97.334,106.222,103.585z"/>
		<path d="M135.086,61.415c0,0,3.783-3.68,3.728-10.028c-0.05-6.359-4.405-9.936-4.405-9.936s-3.215,3.99-3.16,10.511
			C131.303,58.488,135.086,61.415,135.086,61.415z"/>
		<path d="M148.316,74.507c0,0-4.492-0.604-8.49,3.553c-3.993,4.174-3.416,9.706-3.416,9.706s4.666,1.363,8.559-2.697
			C148.852,81.005,148.316,74.507,148.316,74.507z"/>
		<path d="M135.535,91.7c-4.634,2.944-5.056,8.504-5.056,8.504s4.305,2.622,8.82-0.253c4.515-2.875,5.138-9.361,5.138-9.361
			S140.165,88.744,135.535,91.7z"/>
		<path d="M130.081,103.59c-5.124,1.058-6.869,6.193-6.869,6.193s3.476,4.14,8.472,3.116c4.996-1.029,7.153-6.975,7.153-6.975
			S135.205,102.538,130.081,103.59z"/>
		<path d="M112.679,118.845c0,0,3.05,4.629,8.106,4.364c5.056-0.27,7.767-5.853,7.767-5.853s-3.283-3.91-8.467-3.64
			C114.9,113.998,112.679,118.845,112.679,118.845z"/>
		<path d="M136.313,64.244l-2.418,0.696c0.224,1.253,5.111,31.026-30.659,54.181l1.136,2.76
			C141.941,97.559,136.373,64.577,136.313,64.244z"/>
	</g>
</g>
</svg>
