<?xml version="1.0" encoding="utf-8"?>
<!-- Generator: Adobe Illustrator 17.0.1, SVG Export Plug-In . SVG Version: 6.00 Build 0)  -->
<!DOCTYPE svg PUBLIC "-//W3C//DTD SVG 1.1//EN" "http://www.w3.org/Graphics/SVG/1.1/DTD/svg11.dtd">
<svg version="1.1" id="Layer_1" xmlns="http://www.w3.org/2000/svg" xmlns:xlink="http://www.w3.org/1999/xlink" x="0px" y="0px"
	 width="150px" height="150px" viewBox="0 0 150 150" enable-background="new 0 0 150 150" xml:space="preserve">
<path d="M141.653,111.201c0,12.707-0.003,25.414,0.014,38.121c0.001,0.425-0.098,0.509-0.601,0.509
	c-42.81-0.012-85.621-0.012-128.431,0c-0.503,0-0.602-0.083-0.601-0.509c0.017-12.707,0.014-25.414,0.014-38.121
	c0.33-0.428,0.177-0.934,0.259-1.395c0.273-1.541,0.802-3.01,1.565-4.411c1.226-2.249,2.939-4.207,5.209-5.787
	c1.526-1.063,3.176-1.954,5.031-2.576c2.22-0.744,4.507-1.319,6.771-1.947c0.703-0.195,0.84-0.453,0.85-1.018
	c0.055-3.176-0.221-6.358,0.138-9.528c0.242-2.13,1.501-3.779,3.547-5.001c1.442-0.861,3.053-1.258,4.83-1.249
	c4.125,0.021,8.251,0.007,12.506,0.007c-0.549-0.636-1.047-1.19-1.516-1.761c-1.841-2.238-3.142-4.698-4.082-7.294
	c-0.171-0.473-0.483-0.605-0.944-0.624c-0.774-0.032-1.489-0.262-2.196-0.475c-2.711-0.817-4.967-2.185-6.676-4.156
	c-1.639-1.889-2.677-3.979-2.682-6.357c-0.015-6.745-0.004-13.49-0.007-20.235c-0.001-1.351,0.07-2.692,0.272-4.04
	c0.321-2.14,0.865-4.231,1.623-6.285c0.955-2.587,2.25-5.044,3.889-7.377c1.618-2.302,3.509-4.426,5.658-6.384
	c1.171-1.067,2.454-2.038,3.781-2.969c2.314-1.624,4.794-3.028,7.458-4.204c2.374-1.048,4.842-1.895,7.413-2.536
	c3.526-0.88,7.107-1.427,10.794-1.429c0.215,0,0.489,0.127,0.653-0.118c0.44,0,0.881,0,1.321,0c0.079,0.203,0.285,0.122,0.433,0.12
	c1.429-0.018,2.841,0.099,4.261,0.236c2.536,0.244,4.999,0.726,7.428,1.369c2.67,0.707,5.217,1.645,7.671,2.784
	c3.092,1.436,5.898,3.201,8.486,5.211c1.746,1.356,3.287,2.878,4.726,4.474c2.751,3.053,4.861,6.39,6.341,10.019
	c0.681,1.669,1.212,3.373,1.579,5.102c0.356,1.677,0.626,3.37,0.621,5.089c-0.018,7.137-0.002,14.275-0.012,21.412
	c-0.002,1.645-0.626,3.176-1.52,4.594c-0.983,1.557-2.309,2.913-4.032,3.956c-1.835,1.111-3.815,1.926-6.076,2.196
	c-0.415,0.05-0.71,0.179-0.873,0.624c-1.091,2.987-2.637,5.786-4.93,8.27c-0.196,0.213-0.621,0.393-0.502,0.785
	c4.123,0,8.231-0.002,12.339,0.003c0.528,0.001,1.046,0.02,1.579,0.105c2.268,0.361,4.02,1.331,5.358,2.92
	c1.126,1.337,1.568,2.831,1.586,4.426c0.033,2.855,0.018,5.71-0.001,8.565c-0.002,0.388,0.114,0.564,0.579,0.686
	c1.714,0.449,3.4,0.969,5.112,1.422c4.286,1.134,7.763,3.222,10.355,6.318c1.791,2.139,2.917,4.517,3.373,7.128
	C141.47,110.307,141.303,110.798,141.653,111.201z M40.375,47.27c1.5-0.944,3.054-1.599,4.735-1.925
	c0.732-0.142,0.705-0.394,0.702-0.838c-0.013-2.028,0.008-4.055-0.017-6.083c-0.006-0.449,0.073-0.643,0.692-0.624
	c1.514,0.045,3.033,0.032,4.548,0.005c0.491-0.009,0.695,0.07,0.655,0.528c-0.052,0.597-0.013,1.199-0.013,1.799
	c0,2.11,0.002,4.221-0.002,6.331c-0.001,0.317-0.019,0.448,0.512,0.347c1.433-0.274,2.879-0.498,4.309-0.794
	c4.349-0.901,8.559-2.139,12.616-3.734c3.965-1.559,7.744-3.388,11.295-5.565c2.332-1.43,4.576-2.938,6.692-4.587
	c0.941-0.734,1.898-1.453,2.857-2.17c2.023-1.512,4.068-3.002,6.072-4.532c0.905-0.69,0.893-0.738,1.643,0.083
	c1.904,2.083,3.658,4.251,5.089,6.598c1.457,2.389,2.591,4.886,3.454,7.468c0.478,1.428,0.876,2.882,1.075,4.357
	c0.149,1.106,0.063,1.156,1.263,1.424c1.706,0.382,3.254,1.029,4.773,1.891c0-0.97,0.02-1.874-0.004-2.777
	c-0.079-3.052,0.152-6.106-0.13-9.158c-0.147-1.597-0.446-3.164-0.896-4.714c-0.95-3.271-2.455-6.343-4.622-9.176
	c-1.778-2.326-3.803-4.468-6.264-6.318c-1.169-0.879-2.363-1.727-3.633-2.488c-3.229-1.934-6.756-3.374-10.542-4.347
	c-2.676-0.687-5.425-1.109-8.209-1.23c-2.922-0.127-5.841-0.002-8.736,0.464c-2.991,0.481-5.871,1.232-8.626,2.313
	c-2.968,1.164-5.685,2.656-8.214,4.426c-1.874,1.312-3.567,2.764-5.073,4.355c-2.065,2.182-3.764,4.569-5.068,7.152
	c-1.668,3.302-2.721,6.748-2.893,10.321C40.237,39.768,40.375,43.474,40.375,47.27z M76.828,78.295
	c5.039,0,10.079-0.001,15.118,0.002c0.365,0,0.719,0.004,1.015-0.225c0.498-0.387,1.03-0.746,1.504-1.152
	c1.569-1.345,2.972-2.796,4.104-4.44c2.123-3.084,3.41-6.369,3.446-9.955c0.039-3.849,0.02-7.699,0.004-11.548
	c-0.008-1.783,0.056-3.563-0.261-5.346c-0.319-1.793-0.735-3.554-1.331-5.295c-0.96-2.809-2.404-5.426-4.146-7.94
	c-0.201-0.289-0.276-0.342-0.599-0.097c-1.525,1.156-3.111,2.255-4.609,3.434c-1.78,1.401-3.647,2.71-5.578,3.954
	c-3.177,2.047-6.526,3.871-10.056,5.449c-3.014,1.347-6.091,2.581-9.323,3.519c-0.341,0.099-0.634,0.224-0.514,0.659
	c0.096,0.351,0.095,0.762-0.024,1.106c-0.387,1.119-1.281,1.678-2.534,1.788c-1.364,0.12-2.348-0.438-2.858-1.504
	c-0.107-0.224-0.188-0.332-0.594-0.248c-2.421,0.497-4.837,1.023-7.319,1.278c-0.389,0.04-0.614,0.203-0.61,0.633
	c0.032,3.166,0.031,6.333,0.011,9.499c-0.008,1.33,0.132,2.637,0.431,3.946c0.598,2.612,1.778,5.014,3.45,7.253
	c1.343,1.798,2.959,3.396,4.885,4.774c0.412,0.295,0.794,0.466,1.346,0.465C66.798,78.289,71.813,78.295,76.828,78.295z
	 M76.775,125.853c9.148,0,18.296-0.006,27.444,0.013c0.607,0.001,0.755-0.116,0.754-0.635c-0.02-10.636-0.02-21.272,0-31.908
	c0.001-0.515-0.141-0.637-0.752-0.637c-18.247,0.016-36.494,0.016-54.741,0c-0.607-0.001-0.755,0.116-0.754,0.634
	c0.02,10.636,0.02,21.272,0,31.908c-0.001,0.515,0.14,0.638,0.752,0.637C58.577,125.847,67.676,125.853,76.775,125.853z
	 M76.835,83.138c-12.084,0-24.168,0-36.253,0c-1.813,0-2.996,1.006-2.996,2.547c0,8.547,0,17.094,0,25.64
	c0,4.656,0.009,9.312-0.014,13.969c-0.002,0.469,0.136,0.586,0.681,0.571c1.32-0.037,2.643-0.049,3.962,0.004
	c0.689,0.027,0.818-0.162,0.816-0.709c-0.019-12.251-0.009-24.502-0.032-36.753c-0.001-0.588,0.205-0.686,0.842-0.686
	c22.016,0.014,44.032,0.015,66.048-0.004c0.702-0.001,0.807,0.183,0.807,0.716c-0.017,12.272-0.01,24.544-0.024,36.815
	c-0.001,0.457,0.088,0.641,0.697,0.619c1.294-0.046,2.594-0.051,3.888,0.001c0.694,0.028,0.877-0.112,0.876-0.724
	c-0.025-13.162-0.019-26.323-0.019-39.485c0-1.524-1.197-2.521-3.025-2.521C101.004,83.138,88.919,83.138,76.835,83.138z
	 M31.715,100.007c-0.812,0.227-1.539,0.461-2.285,0.635c-3.519,0.82-6.62,2.198-8.82,4.752c-1.631,1.893-2.672,4.002-2.679,6.368
	c-0.029,10.799-0.008,21.599-0.028,32.398c-0.001,0.549,0.138,0.707,0.818,0.706c15.138-0.019,30.276-0.014,45.413-0.014
	c0.238,0,0.476,0,0.783,0c-0.411-0.915-0.96-1.686-1.704-2.337c-1.727-1.511-3.846-2.263-6.34-2.259
	c-4.696,0.006-9.391-0.007-14.086,0.01c-0.9,0.003-1.795-0.094-2.628-0.302c-5.216-1.3-8.384-4.866-8.42-9.27
	c-0.081-9.992-0.025-19.985-0.025-29.978C31.715,100.494,31.715,100.273,31.715,100.007z M88.759,144.852c0.346,0,0.604,0,0.863,0
	c15.113,0,30.227-0.004,45.34,0.012c0.644,0.001,0.838-0.109,0.837-0.689c-0.024-10.489-0.015-20.978-0.023-31.467
	c-0.001-0.714,0.018-1.423-0.12-2.144c-0.411-2.135-1.442-4.019-3.029-5.69c-2.726-2.873-6.656-3.854-10.643-4.825
	c0,0.262,0,0.488,0,0.715c0,9.496,0.004,18.992-0.007,28.488c-0.001,0.776-0.013,1.55-0.108,2.332
	c-0.172,1.428-0.626,2.754-1.508,3.967c-2.177,2.994-5.344,4.63-9.509,4.692c-4.4,0.067-8.804,0.01-13.205,0.02
	c-0.795,0.002-1.585-0.021-2.387,0.106C92.158,140.858,90.048,142.343,88.759,144.852z M76.847,130.696c-12.842,0-25.683,0-38.525,0
	c-0.764,0-0.891,0.121-0.729,0.745c0.662,2.546,2.977,3.958,5.688,3.961c22.381,0.022,44.762,0.012,67.143,0.014
	c0.555,0,1.095-0.088,1.616-0.223c2.191-0.567,3.525-1.817,4.046-3.698c0.187-0.676,0.068-0.799-0.789-0.799
	C102.481,130.696,89.664,130.696,76.847,130.696z M68.558,140.272c1.093,1.255,1.859,2.602,2.301,4.053
	c0.144,0.471,0.341,0.534,0.81,0.532c3.37-0.01,6.74-0.018,10.11,0.005c0.627,0.004,0.991-0.061,1.149-0.675
	c0.366-1.426,1.213-2.688,2.188-3.916C79.571,140.272,74.106,140.272,68.558,140.272z M45.787,50.383
	c-3.068,0.83-5.201,3.495-5.409,6.06c-0.284,3.504,2.631,6.233,5.516,7.044C45.694,59.125,45.878,54.757,45.787,50.383z
	 M107.837,63.485c3.195-0.972,5.826-3.767,5.475-7.182c-0.271-2.624-2.477-5.158-5.475-5.931
	C107.837,54.762,107.837,59.128,107.837,63.485z"/>
<path d="M65.613,64.015c0.832,0,1.663,0.012,2.495-0.006c0.343-0.008,0.462,0.069,0.457,0.375c-0.029,1.819,0.847,3.386,2.322,4.598
	c3.178,2.613,7.551,2.903,11.046,0.635c1.987-1.289,3.176-3.032,3.203-5.227c0.004-0.295,0.094-0.386,0.449-0.383
	c1.663,0.015,3.326,0.02,4.989-0.003c0.443-0.006,0.46,0.169,0.444,0.448c-0.109,1.917-0.675,3.736-1.777,5.408
	c-1.469,2.229-3.577,3.923-6.311,5.019c-1.601,0.642-3.298,0.953-5.08,1.078c-2.696,0.189-5.241-0.227-7.573-1.293
	c-3.938-1.801-6.436-4.575-7.302-8.341c-0.142-0.618-0.219-1.239-0.292-1.863c-0.04-0.341,0.078-0.47,0.511-0.454
	C63.998,64.036,64.805,64.015,65.613,64.015z"/>
<path d="M90.941,47.376c1.549-0.201,2.91,1.208,2.887,2.343c-0.029,1.382-1.34,2.506-2.858,2.503
	c-1.618-0.003-2.966-1.03-2.93-2.571C88.065,48.592,89.342,47.184,90.941,47.376z"/>
<path d="M82.363,98.311c-0.295,0.821-0.595,1.641-0.884,2.463c-1.179,3.347-2.349,6.698-3.532,10.044
	c-1.265,3.576-2.545,7.147-3.803,10.724c-0.097,0.277-0.215,0.385-0.554,0.301c-1.629-0.407-3.26-0.806-4.89-1.21
	c-0.232-0.057-0.234-0.154-0.16-0.354c0.37-1.01,0.69-2.033,1.048-3.046c1.169-3.308,2.348-6.614,3.519-9.921
	c1.178-3.327,2.348-6.656,3.529-9.982c0.268-0.756,0.313-0.763,1.197-0.529c1.374,0.362,2.748,0.723,4.126,1.07
	C82.242,97.942,82.49,97.988,82.363,98.311z"/>
<path d="M67.947,117.351c-0.084,0.077-0.165,0.175-0.272,0.243c-1.334,0.844-2.689,1.665-3.998,2.536
	c-0.42,0.279-0.539-0.022-0.677-0.174c-0.809-0.894-1.577-1.814-2.376-2.714c-1.832-2.063-3.674-4.119-5.512-6.178
	c-0.459-0.515-0.907-1.038-1.386-1.539c-0.203-0.212-0.135-0.337,0.035-0.53c1.083-1.223,2.134-2.467,3.222-3.687
	c2.022-2.27,4.074-4.522,6.078-6.803c0.24-0.274,0.338-0.247,0.598-0.082c1.312,0.834,2.622,1.671,3.962,2.474
	c0.422,0.253,0.223,0.466,0.04,0.672c-1.529,1.726-3.075,3.441-4.608,5.165c-0.686,0.771-1.344,1.561-2.038,2.328
	c-0.152,0.168-0.184,0.228-0.01,0.421c2.25,2.501,4.479,5.016,6.71,7.528C67.799,117.105,67.857,117.217,67.947,117.351z"/>
<path d="M100.097,109.353c-0.31,0.357-0.657,0.763-1.011,1.164c-2.608,2.952-5.222,5.9-7.826,8.855
	c-0.85,0.964-0.831,0.964-1.989,0.231c-1.066-0.674-2.147-1.332-3.229-1.988c-0.302-0.183-0.28-0.365-0.08-0.589
	c2.236-2.51,4.46-5.027,6.717-7.523c0.205-0.227,0.138-0.295-0.02-0.472c-1.416-1.592-2.82-3.193-4.225-4.792
	c-0.809-0.92-1.594-1.855-2.432-2.756c-0.241-0.259-0.209-0.392,0.062-0.561c1.338-0.84,2.676-1.678,4.01-2.523
	c0.238-0.151,0.337-0.156,0.549,0.085c2.019,2.297,4.076,4.57,6.109,6.857c1.072,1.205,2.12,2.427,3.182,3.639
	C100,109.077,100.144,109.142,100.097,109.353z"/>
</svg>
