<?xml version="1.0" encoding="utf-8"?>
<!-- Generator: Adobe Illustrator 17.0.1, SVG Export Plug-In . SVG Version: 6.00 Build 0)  -->
<!DOCTYPE svg PUBLIC "-//W3C//DTD SVG 1.1//EN" "http://www.w3.org/Graphics/SVG/1.1/DTD/svg11.dtd">
<svg version="1.1" id="Layer_1" xmlns="http://www.w3.org/2000/svg" xmlns:xlink="http://www.w3.org/1999/xlink" x="0px" y="0px"
	 width="500px" height="500px" viewBox="0 0 500 500" enable-background="new 0 0 500 500" xml:space="preserve">
<path fill-rule="evenodd" clip-rule="evenodd" fill="#000003" d="M268.758-205.801h-2.503c-1.679,0-2.503-0.824-2.503-2.503
	c0-1.678,0.824-2.503,2.503-2.503h2.503c1.649,0,2.503,0.824,2.503,2.503C271.261-206.625,270.407-205.801,268.758-205.801z"/>
<path fill-rule="evenodd" clip-rule="evenodd" fill="#000003" d="M258.746-205.801h-12.881c-1.679,0-2.503-0.824-2.503-2.503
	c0-1.678,0.824-2.503,2.503-2.503h12.881c1.649,0,2.503,0.824,2.503,2.503C261.249-206.625,260.395-205.801,258.746-205.801z"/>
<path fill-rule="evenodd" clip-rule="evenodd" fill="#000003" d="M239.943-249.267c-6.074-6.074-13.399-9.126-21.977-9.126
	c-8.607,0-15.933,3.053-22.007,9.126c-6.074,6.074-9.127,13.431-9.127,22.007c0,8.577,3.053,15.903,9.127,22.008
	c6.074,6.074,13.4,9.096,22.007,9.096c8.578,0,15.903-3.022,21.977-9.096c6.105-6.104,9.127-13.431,9.127-22.008
	C249.07-235.836,246.049-243.192,239.943-249.267L239.943-249.267z M153.567-269.808h15.305c2.368,0,3.917,0.023,4.616-1.919
	l9.96-20.222c2.156-3.391,5.223-5.056,9.262-5.056h46.247c5.952,0,10.203,1.665,12.815,5.056l11.387,20.592
	c1.184,1.695,2.734,1.55,4.646,1.55h15.305c2.125,0,3.826,1.688,5.132,3.136c1.305,1.448,1.973,3.144,1.973,5.056v15.402h-41.317
	c-1.471-2.395-3.255-4.664-5.353-6.807c-7.051-7.143-15.566-10.714-25.579-10.714c-10.011,0-18.558,3.571-25.578,10.714
	c-2.107,2.143-3.898,4.412-5.373,6.807h-41.283v-15.402c0-1.911,0.821-3.607,2.491-5.056
	C149.892-268.12,151.655-269.808,153.567-269.808L153.567-269.808z M145.732-240.332v29.525h39.914
	c-2.548-4.948-3.819-10.429-3.819-16.452c0-4.669,0.764-9.026,2.293-13.073H145.732L145.732-240.332z M145.732-205.121h41.833
	c0.594,0,1.085-0.121,1.469-0.366c1.011,1.314,2.129,2.583,3.354,3.807c7.021,7.02,15.567,10.561,25.578,10.561
	c10.012,0,18.528-3.541,25.579-10.561c7.021-7.051,10.531-15.567,10.531-25.579c0-4.669-0.764-9.026-2.291-13.073h38.43v29.525
	h-13.949c-1.678,0-2.503,0.936-2.503,2.842c0,1.908,0.824,2.843,2.503,2.843h13.949v23.715c0,1.912-0.667,3.669-1.973,5.241
	c-1.306,1.572-3.006,2.342-5.132,2.342H153.567c-2.125,0-3.977-0.77-5.526-2.342c-1.548-1.572-2.308-3.329-2.308-5.241V-205.121
	L145.732-205.121z M282.972-164.043H151.988c-5.035,0-9.304-1.745-12.773-5.206c-3.47-3.459-5.22-7.593-5.22-12.369v-79.665
	c0-4.777,1.751-8.91,5.22-12.37c3.469-3.459,6.866-5.803,11.902-5.803h12.22l9.868-16.976v-0.367l0.368-0.367
	c4.329-6.461,10.317-9.676,17.993-9.676h3.592h43.169c9.365,0,16.457,3.215,21.247,9.676l0.369,0.367l10.981,17.344h12.62
	c4.789,0,8.3,2.282,11.647,5.619c3.346,3.337,5.036,7.532,5.036,12.553v79.665c0,5.022-1.689,9.216-5.036,12.553
	C291.845-165.727,287.762-164.043,282.972-164.043z"/>
<path fill-rule="evenodd" clip-rule="evenodd" fill="#000003" d="M198.279-225.122c0,1.679-0.823,2.503-2.503,2.503
	c-1.679,0-2.503-0.824-2.503-2.503c0-2.381,0.245-4.151,0.733-5.372c0.458-1.893,1.404-2.595,2.839-2.137
	c1.923,0.488,2.625,1.556,2.167,3.235C198.524-228.205,198.279-226.771,198.279-225.122z"/>
<path fill-rule="evenodd" clip-rule="evenodd" fill="#000003" d="M201.515-235.836c-0.732,0.702-1.434,1.068-2.167,1.068
	c-0.702,0-1.19-0.122-1.434-0.366c-1.404-0.947-1.648-2.015-0.702-3.205c5.25-9.066,13.125-13.613,23.595-13.613
	c1.678,0,2.534,0.854,2.534,2.503c0,1.678-0.855,2.503-2.534,2.503C212.229-246.947,205.789-243.223,201.515-235.836z"/>
<path fill-rule="evenodd" clip-rule="evenodd" fill="#000003" d="M350.871-253.756c-0.843,4.079-3.064,7.303-6.63,9.649
	c-3.567,2.345-7.406,3.107-11.485,2.264l-15.821-3.269l-1.016-9.157l18.61,3.845c1.622,0.335,3.253-0.037,4.857-1.068
	c1.609-1.059,2.571-2.415,2.906-4.037l22.167-107.294c0.335-1.622-0.01-3.249-1.068-4.857c-1.063-1.584-2.414-2.571-4.035-2.906
	L247.77-393.64c-1.622-0.335-3.253,0.035-4.856,1.068c-1.61,1.059-2.571,2.415-2.906,4.037l-14.779,71.534h-8.946l15.144-73.307
	c0.843-4.08,3.064-7.303,6.63-9.649c3.567-2.345,7.407-3.106,11.486-2.263l111.583,23.054c4.08,0.843,7.304,3.063,9.649,6.63
	c2.346,3.567,3.107,7.406,2.264,11.486L350.871-253.756L350.871-253.756z M231.419-317.001h6.356l24.522-23.129
	c1.318-1.229,2.692-1.68,4.104-1.389c1.692,0.133,3.03,0.926,3.976,2.405l22.085,33.961c0.765,1.442,1.89,1.673,3.373,0.697
	c0.814-0.895,1.024-1.915,0.632-3.059l-22.371-34.023c-1.785-2.713-4.158-4.158-7.095-4.329c-2.96-0.201-5.589,0.647-7.885,2.518
	L231.419-317.001L231.419-317.001z M340.794-273.101c1.232-0.81,1.443-1.83,0.633-3.06l-2.238-3.027
	c-0.81-1.231-1.83-1.442-3.061-0.632c-1.065,1.062-1.197,2.099-0.345,3.119l1.951,2.968c0.121,0.462,0.608,0.752,1.419,0.92
	C339.964-272.646,340.525-272.72,340.794-273.101L340.794-273.101z M276.761-292.98l2.977,3.354l24.175-21.45
	c1.318-1.229,2.798-1.659,4.42-1.324c1.69,0.131,3,0.92,3.975,2.404l18.993,27.269c0.95,1.479,1.97,1.69,3.06,0.631
	c1.232-0.807,1.442-1.828,0.633-3.059l-19.217-27.642c-1.871-2.296-4.244-3.74-7.097-4.33c-2.958-0.203-5.608,0.75-7.948,2.831
	L276.761-292.98L276.761-292.98z M313.013-331.888c5.31,1.098,10.203,0.118,14.643-2.892c4.471-3.03,7.22-7.099,8.274-12.2
	c1.054-5.1,0.08-9.884-2.951-14.355c-3.011-4.44-7.072-7.215-12.174-8.269c-5.127-1.059-9.904-0.11-14.323,2.795
	c-4.449,2.925-7.19,6.942-8.243,12.042c-1.098,5.311-0.196,10.188,2.73,14.637C303.876-335.711,307.886-332.947,313.013-331.888
	L313.013-331.888z M329.444-358.875c-2.262-3.44-5.444-5.597-9.525-6.441c-4.106-0.848-7.83-0.118-11.165,2.167
	c-3.34,2.309-5.424,5.397-6.224,9.268c-0.843,4.08-0.15,7.851,2.134,11.322c2.262,3.441,5.339,5.576,9.236,6.381
	c4.081,0.843,7.868,0.072,11.33-2.296c3.467-2.393,5.608-5.496,6.413-9.393C332.442-351.738,331.7-355.409,329.444-358.875z"/>
<path fill-rule="evenodd" clip-rule="evenodd" fill="#000003" d="M801.995,711.677c40.221,9.63,31.518,8.639,62.338-22.59
	c2.642-2.677,23.853-20.896,23.112-22.924c-2.617-7.156-21.652,14.32-24.731,17.414c-6.37,6.403-12.396,13.028-18.319,19.965
	C827.174,697.817,815.255,692.629,801.995,711.677z"/>
<path fill-rule="evenodd" clip-rule="evenodd" fill="#000003" d="M798.393,709.649c-13.338-14.016-23.397-20.708-7.96-41.34
	c1.835-2.453,44.805-53.73,44.156-42.108c-0.024,0.425-31.813,33.184-35.248,37.221c-2.123,2.518-4.226,5.055-6.306,7.61
	C804.474,685.19,811.643,690.602,798.393,709.649z"/>
<path fill-rule="evenodd" clip-rule="evenodd" fill="#000003" d="M787.825,733.607c18.938,3.631,31.746,10.587,46.132-9.005
	C815.364,719.095,800.796,711.893,787.825,733.607z"/>
<path fill-rule="evenodd" clip-rule="evenodd" fill="#000003" d="M784.158,731.738c-13.851-13.414-25.225-20.981-10.387-42.168
	C786.574,704.478,797.157,709.911,784.158,731.738z"/>
<path fill-rule="evenodd" clip-rule="evenodd" fill="#000003" d="M775.2,756.535c18.786,2.713,31.836,9.198,44.808-11.442
	C801.494,740.44,786.683,733.876,775.2,756.535z"/>
<path fill-rule="evenodd" clip-rule="evenodd" fill="#000003" d="M771.475,754.829c-14.38-12.812-26.118-19.923-12.721-42.194
	C772.085,727.011,783.004,732.025,771.475,754.829z"/>
<path fill-rule="evenodd" clip-rule="evenodd" fill="#000003" d="M764.164,780.357c18.677,1.821,31.877,7.84,43.38-13.756
	C789.158,762.771,774.088,756.851,764.164,780.357z"/>
<path fill-rule="evenodd" clip-rule="evenodd" fill="#000003" d="M760.385,778.815c-14.876-12.165-26.984-18.943-15.069-42.09
	C759.165,750.567,770.397,755.151,760.385,778.815z"/>
<path fill-rule="evenodd" clip-rule="evenodd" fill="#000003" d="M754.754,804.968c18.562,0.949,31.866,6.549,41.845-15.925
	C778.342,785.957,763.088,780.742,754.754,804.968z"/>
<path fill-rule="evenodd" clip-rule="evenodd" fill="#000003" d="M750.929,803.59c-15.432-11.554-27.761-17.909-17.424-41.874
	C747.924,775.099,759.335,779.127,750.929,803.59z"/>
<path fill-rule="evenodd" clip-rule="evenodd" fill="#000003" d="M747.009,830.257c18.361,0.096,31.679,5.44,40.179-17.907
	C769.106,809.936,753.697,805.416,747.009,830.257z"/>
<path fill-rule="evenodd" clip-rule="evenodd" fill="#000003" d="M743.14,829.046c-15.914-10.883-28.545-16.957-19.782-41.578
	C738.261,800.397,749.943,803.917,743.14,829.046z"/>
<path fill-rule="evenodd" clip-rule="evenodd" fill="#000003" d="M740.937,856.137c18.191-0.571,31.198,4.601,38.318-19.618
	C761.059,834.594,746.104,830.84,740.937,856.137z"/>
<path fill-rule="evenodd" clip-rule="evenodd" fill="#000003" d="M737.05,855.073c-16.41-10.233-29.366-16.427-22.172-41.314
	C730.416,826.478,742.167,829.434,737.05,855.073z"/>
<path fill-rule="evenodd" clip-rule="evenodd" fill="#000003" d="M754.47,708.028c-14.242-13.094-24.727-19.1-10.702-40.715
	c1.667-2.57,41.12-56.601,41.247-44.963c0.004,0.425-29.528,35.234-32.684,39.492c-1.951,2.653-3.879,5.325-5.784,8.013
	C758.906,683.218,766.419,688.14,754.47,708.028L754.47,708.028z M741.742,731.019c11.513-22.648,0.591-27.362-13.177-41.381
	C715.172,711.768,727.026,718.559,741.742,731.019L741.742,731.019z M730.628,754.904c-15.203-11.823-27.39-18.135-15.509-41.25
	C729.38,727.108,740.609,731.382,730.628,754.904L730.628,754.904z M721.164,779.576c8.409-24.278-3.102-28.103-17.845-40.99
	C692.975,762.478,705.509,768.432,721.164,779.576L721.164,779.576z M713.382,804.928c-16.168-10.498-28.894-16.017-20.179-40.618
	C708.482,776.702,720.137,779.96,713.382,804.928L713.382,804.928z M707.31,830.848c5.11-25.527-6.781-28.261-22.514-40.166
	C677.697,815.833,690.705,821.052,707.31,830.848L707.31,830.848z M702.971,857.222c-17.057-9.115-30.397-14.429-24.881-39.741
	C694.444,829.135,706.366,831.298,702.971,857.222z"/>
<path fill-rule="evenodd" clip-rule="evenodd" fill="#000003" d="M714.96,706.313c-14.243-13.094-24.726-19.1-10.702-40.715
	c1.667-2.57,29.977-41.669,30.104-30.03c0.004,0.424-18.385,20.301-21.542,24.56c-1.95,2.653-3.879,5.324-5.784,8.013
	C719.396,681.504,726.909,686.425,714.96,706.313L714.96,706.313z M702.232,729.305c11.514-22.648,0.591-27.362-13.177-41.381
	C675.662,710.053,687.516,716.845,702.232,729.305L702.232,729.305z M691.118,753.189c-15.203-11.823-27.39-18.135-15.51-41.25
	C689.871,725.393,701.099,729.667,691.118,753.189L691.118,753.189z M681.654,777.862c8.41-24.278-3.102-28.103-17.844-40.991
	C653.466,760.763,665.999,766.717,681.654,777.862L681.654,777.862z M673.873,803.214c-16.168-10.498-28.894-16.017-20.18-40.618
	C668.973,774.987,680.627,778.245,673.873,803.214L673.873,803.214z M667.801,829.134c5.11-25.527-6.781-28.261-22.514-40.166
	C638.187,814.118,651.195,819.337,667.801,829.134L667.801,829.134z M663.461,855.508c-17.056-9.115-30.397-14.429-24.88-39.741
	C654.934,827.42,666.856,829.583,663.461,855.508z"/>
<path fill-rule="evenodd" clip-rule="evenodd" fill="#000003" d="M854.826,882.052c-47.977-11.499-94.574-16.664-141.342-18.721
	c-34.231-1.506-56.676-2.309-96.158,7.883c27.508-3.383,56.087,4.473,75.863,12.729c35.389,14.776,47.359,32.657,67.38,56.871
	c4.221-6.056,13.698-15.947,18.751-20.591c-22.707-18.906-39.973-31.234-88.367-48.706c50.855,12.16,76.753,30.653,93.866,44.345
	c0.48-0.421-1.037,0.38-0.558-0.031c6.847-5.881,20.073-13.025,26.741-17.209c-22.661-14.118-47.164-20.127-88.155-28.779
	c34.979,4.064,51.544,6.025,98.012,24.037C835.373,886.27,838.835,886.682,854.826,882.052z"/>
<path fill-rule="evenodd" clip-rule="evenodd" fill="#000003" d="M811.025,695.207c2.796-6.63,0.841-24.227,14.527-35.959
	c7.262-6.225,13.688-7.821,26.605-9.656l39.877-36.294c1.544-1.501,7.16-7.196,8.661-5.652c1.501,1.544-1.252,5.129-2.796,6.63
	c-15.308,13.104-26.877,25.993-40.222,40.828c0.139,9.032-4.047,16.719-10.615,23.697
	C831.419,695.422,816.754,690.533,811.025,695.207z"/>
<g>
	<path fill-rule="evenodd" clip-rule="evenodd" fill="#1A1A18" d="M172.825,838.257c2.908-1.416,6.414-0.206,7.83,2.702
		c1.416,2.908,0.207,6.414-2.702,7.831c-8.571,4.184-18.22,5.509-27.477,3.974c-9.048-1.499-17.708-5.708-24.622-12.622
		l-0.001-0.001c-8.834-8.834-13.252-20.474-13.252-32.107c0-11.635,4.418-23.273,13.252-32.108l0.001-0.001l104.178-104.178
		c8.834-8.835,20.473-13.252,32.108-13.252c11.634,0,23.273,4.418,32.109,13.252c8.835,8.834,13.252,20.474,13.252,32.108
		c0,11.634-4.417,23.273-13.252,32.108l-21.38,21.38c-2.288,2.288-6,2.288-8.288,0c-2.288-2.288-2.288-6,0-8.289l21.38-21.379
		c6.544-6.545,9.817-15.181,9.817-23.82c0-8.639-3.272-17.275-9.817-23.819c-6.545-6.545-15.181-9.818-23.821-9.818
		c-8.64,0-17.275,3.273-23.82,9.818l-50.818,50.818c2.211,4.671,4.576,9.112,7.109,13.302c2.976,4.926,6.175,9.484,9.615,13.639
		c2.061,2.491,1.712,6.182-0.778,8.242c-2.491,2.061-6.182,1.712-8.243-0.779c-3.817-4.61-7.351-9.642-10.624-15.059
		c-2.039-3.374-3.982-6.909-5.833-10.594l-44.607,44.607l-0.001,0.001c-6.544,6.545-9.817,15.181-9.817,23.82
		c0,8.639,3.273,17.275,9.817,23.82h0.001c5.142,5.141,11.546,8.265,18.211,9.37C159.246,842.366,166.434,841.377,172.825,838.257
		L172.825,838.257z M165.881,764.411l-23.029,23.029l-0.162,0.169c-5.414,5.164-9.071,10.145-11.056,14.951
		c-2.303,5.575-2.416,10.862-0.458,15.871c1.176,3.009,4.57,4.496,7.579,3.32c3.01-1.176,4.496-4.57,3.32-7.579
		c-0.833-2.132-0.729-4.518,0.367-7.17c1.349-3.267,4.092-6.899,8.298-10.909c0.137-0.115,0.271-0.236,0.4-0.365l23.029-23.029
		c2.288-2.288,2.288-6,0-8.288C171.881,762.122,168.169,762.122,165.881,764.411L165.881,764.411z M219.597,765.465
		c-12.493,0-23.847,5.107-32.074,13.334c-8.227,8.227-13.334,19.581-13.334,32.075c0,12.493,5.107,23.847,13.334,32.074
		c8.227,8.227,19.581,13.334,32.074,13.334h147.331c12.493,0,23.847-5.107,32.074-13.334c8.227-8.227,13.334-19.581,13.334-32.074
		c0-12.493-5.107-23.848-13.334-32.075c-8.227-8.227-19.581-13.334-32.074-13.334H219.597L219.597,765.465z M293.715,777.188
		c-4.216,12.422-6.592,24.374-6.752,35.755c-0.156,11.047,1.768,21.613,6.121,31.616h73.845c9.258,0,17.678-3.792,23.786-9.899
		c6.107-6.108,9.899-14.529,9.899-23.786c0-9.258-3.792-17.679-9.899-23.786c-6.108-6.108-14.528-9.9-23.786-9.9H293.715
		L293.715,777.188z M280.51,844.559c-3.725-10.163-5.38-20.766-5.225-31.753c0.162-11.517,2.307-23.409,6.13-35.619h-61.818
		c-9.258,0-17.678,3.792-23.786,9.9c-6.107,6.107-9.9,14.528-9.9,23.786c0,9.258,3.792,17.678,9.9,23.786
		c6.108,6.107,14.528,9.899,23.786,9.899H280.51L280.51,844.559z M256.043,785.627h-32.569c-3.237,0-5.862,2.625-5.862,5.861
		c0,3.237,2.625,5.862,5.862,5.862h32.569c3.237,0,5.862-2.625,5.862-5.862C261.904,788.252,259.279,785.627,256.043,785.627z"/>
</g>
<path fill-rule="evenodd" clip-rule="evenodd" fill="#000003" d="M1203.602,400.232h173.411c5.422-5.441,5.058-6.494,4.985-16.009
	l0.159-68.151c9.381,0.097,23.479,0.942,31.215-1.375c2.631-4.959,2.65-7.248,0.068-12.288c-14.625-4.592-47.985,1.277-65.092-1.923
	l-0.106-17.376c12.074-2.41,45.493,1.671,53.702-1.194c8.829-3.081,4.342-32.002,5.355-49.487
	c23.915-3.936,27.094,6.454,24.984-26.287c-2.696-41.83-63.75-41.596-65.327,1.499c-0.967,26.407-1.165,24.544,24.757,24.287
	l0.336,35.534l-43.628-0.11l-0.119-94.352c0.925-8.058,14.004-21.892,16.305-30.067c1.382-4.914,0.555-17.855,0.578-23.706
	c0.045-11.157,1.64-14.213-4.735-20.07h-139.881c-7.782,7.838-4.921,17.463-4.989,30.794c-0.155,30.736,17.037,22.979,16.816,52.155
	c-0.087,11.537,0.033,23.084-0.035,34.742l-18.41-0.077c-0.066-6.497,1.151-13.685-4.681-15.809
	c-6.942-2.528-9.956,1.841-10.454,7.843c-0.689,8.325-0.623,31.654,1.362,37.942c4.506,1.96,5.231,2.566,11.117,0.968
	c3.686-6.887,2.119-6.688,2.911-15.743l18.155,0.097l-0.152,68.809c-18.875,0.875-38.61-0.717-57.339,0.067
	c-13.806,0.577-11.391,13.106-3.75,14.875c5.344,1.237,20.676,0.052,27.574,0.508c0.626,14.235,0.146,29.422,0.146,43.761
	C1198.841,377.271,1196.062,394.03,1203.602,400.232L1203.602,400.232z M1213.946,385.038l0.146-68.935l152.834,0.669l-0.167,68.321
	L1213.946,385.038L1213.946,385.038z M1247.453,300.878l0.108-103.97c2.851,3.599,15.472,23.213,17.299,27.79
	c4.548,11.399-4.504,30.865,4.634,39.565c7.306,3.238,36.1,2.443,43.446-0.407c4.311-11.232-1.947-30.053,3.646-40.476
	c3.145-5.862,12.449-21.647,16.599-26.022l-0.136,103.682L1247.453,300.878L1247.453,300.878z M1277.382,216.911
	c-5.186-13.067-37.309-58.899-40.223-69.029l106.219-0.036c-0.728,4.577-16.642,29.172-20.237,35.181
	C1298.754,223.793,1308.962,216.877,1277.382,216.911L1277.382,216.911z M1230.603,131.884l0.199-17.583l119.2,0.089l0.155,18.078
	C1332.383,133.164,1242.288,134.746,1230.603,131.884L1230.603,131.884z M1381.969,216.911c0-14.832,2.223-26.864,17.84-26.791
	c18.19,0.085,17.418,17.52,17.348,26.786l-13.125-0.204c2.653-7.693,6.772-8.67,2.514-15.713c-7.39-0.377-6.842,0.8-9.431,6.552
	C1392.272,218.296,1393.385,216.828,1381.969,216.911L1381.969,216.911z M1281.024,250.066l0.291-18.016l18.033-0.124l0.101,18.482
	L1281.024,250.066L1281.024,250.066z M1260.494,345.239c1.942,2.18,3.122,5.054,3.122,8.204c0,3.407-1.382,6.493-3.613,8.725
	c-2.233,2.232-5.318,3.613-8.725,3.613c-3.408,0-6.493-1.381-8.724-3.613c-2.233-2.232-3.614-5.317-3.614-8.725
	c0-3.408,1.381-6.493,3.614-8.725c2.231-2.232,5.316-3.613,8.724-3.613c3.26,0,6.224,1.263,8.429,3.327
	C1259.943,344.736,1260.207,345.005,1260.494,345.239L1260.494,345.239z M1263.893,334.869l8.745-6.517
	c2.24-1.669,5.408-1.205,7.076,1.034c1.669,2.239,1.206,5.408-1.034,7.076l-7.885,5.876c1.868,3.275,2.936,7.066,2.936,11.106
	c0,6.199-2.514,11.812-6.577,15.876c-4.064,4.063-9.677,6.577-15.876,6.577s-11.813-2.514-15.876-6.577
	c-4.063-4.063-6.577-9.677-6.577-15.876s2.514-11.813,6.577-15.876c4.063-4.063,9.676-6.578,15.876-6.578
	C1255.954,330.99,1260.297,332.421,1263.893,334.869L1263.893,334.869z M1308.816,328.313c4.167,0,7.941,1.69,10.672,4.421
	c2.731,2.731,4.422,6.504,4.422,10.672c0,4.167-1.691,7.942-4.422,10.672c-2.731,2.731-6.504,4.422-10.672,4.422
	c-4.167,0-7.941-1.691-10.672-4.422c-2.731-2.731-4.422-6.505-4.422-10.672c0-4.167,1.691-7.941,4.422-10.672
	C1300.875,330.004,1304.649,328.313,1308.816,328.313L1308.816,328.313z M1312.338,339.886c0.9,0.901,1.458,2.146,1.458,3.521
	c0,1.376-0.558,2.621-1.458,3.522c-0.9,0.9-2.146,1.457-3.521,1.457c-1.376,0-2.621-0.557-3.521-1.457
	c-0.9-0.901-1.457-2.146-1.457-3.522c0-1.375,0.557-2.62,1.457-3.521c0.901-0.9,2.146-1.457,3.521-1.457
	C1310.192,338.429,1311.437,338.986,1312.338,339.886L1312.338,339.886z M1346.283,328.313c4.167,0,7.941,1.69,10.672,4.421
	c2.731,2.731,4.421,6.504,4.421,10.672c0,4.167-1.69,7.942-4.421,10.672c-2.731,2.731-6.505,4.422-10.672,4.422
	c-4.167,0-7.942-1.691-10.673-4.422c-2.731-2.731-4.421-6.505-4.421-10.672c0-4.167,1.69-7.941,4.421-10.672
	C1338.342,330.004,1342.116,328.313,1346.283,328.313L1346.283,328.313z M1349.804,339.886c0.901,0.901,1.458,2.146,1.458,3.521
	c0,1.376-0.557,2.621-1.458,3.522c-0.9,0.9-2.145,1.457-3.521,1.457c-1.376,0-2.621-0.557-3.521-1.457
	c-0.901-0.901-1.458-2.146-1.458-3.522c0-1.375,0.557-2.62,1.458-3.521c0.9-0.9,2.145-1.457,3.521-1.457
	C1347.659,338.429,1348.904,338.986,1349.804,339.886z"/>
<path fill-rule="evenodd" clip-rule="evenodd" fill="#1A1A18" d="M717.176,376.97h109.632v-6.815h-12.615h-85.937h-11.08V376.97
	L717.176,376.97z M810.815,152.477l8.441-8.043l39.011-9.258c1.986-0.719,4.181,0.307,4.901,2.293c0.719,1.986-0.307,4.18-2.293,4.9
	l-34.27,16.761l-13.117,0.516c0.528,2.935,0.421,5.882-0.242,8.671l18.869,1.835l34.72-14.838c2.238-1.278,5.088-0.502,6.366,1.735
	c1.278,2.236,0.502,5.086-1.734,6.364l-36.986,21.229l-0.004-0.01c-1.171,0.668-2.622,0.825-3.979,0.303l-21.338-8.22
	c-2.379,2.986-5.584,5.37-9.438,6.761c-5.542,2.001-11.373,1.564-16.317-0.756c-0.268-0.127-0.535-0.259-0.797-0.396
	c-0.271,0.168-0.564,0.311-0.876,0.423l-23.492,8.48l1.35,3.741c0.875,2.425-0.381,5.102-2.807,5.975l-17.426,6.291
	c-2.425,0.876-5.101-0.381-5.977-2.807l-1.349-3.74l-22.145,7.991c-0.609,1.996-1.449,3.892-2.486,5.657l80.153,87.439h6.619
	l-16.315-16.898c-2.239-2.277-2.21-5.939,0.068-8.178c2.277-2.24,5.938-2.21,8.179,0.067l21.472,22.151
	c0.803,0.818,1.315,1.814,1.535,2.858h5.083c3.203,0,5.8,2.599,5.8,5.8v50.98h12.615c3.203,0,5.8,2.597,5.8,5.8v18.415
	c0,3.203-2.598,5.8-5.8,5.8H711.377c-3.203,0-5.8-2.597-5.8-5.8v-18.415c0-3.203,2.597-5.8,5.8-5.8h11.08v-50.98
	c0-3.201,2.597-5.8,5.8-5.8h7.381l-51.361-74.337c-7.225-0.066-13.76-3.021-18.505-7.766c-4.799-4.799-7.767-11.429-7.767-18.75
	c0-7.322,2.969-13.951,7.767-18.749c4.799-4.798,11.428-7.767,18.75-7.767c6.022,0,11.578,2.01,16.03,5.394l21.179-7.645
	l-1.351-3.742c-0.875-2.424,0.381-5.101,2.806-5.976l17.427-6.29c2.424-0.876,5.1,0.382,5.976,2.806l1.351,3.741l23.491-8.478
	c0.632-0.229,1.281-0.311,1.909-0.268c2.357-4.77,6.489-8.674,11.888-10.623c4.733-1.707,9.675-1.639,14.095-0.136l5.475-19.914
	c0.54-1.976,2.276-3.308,4.214-3.424l67.452-8.662c2.547-0.331,4.88,1.466,5.21,4.013c0.331,2.547-1.467,4.879-4.013,5.21
	l-60.243,11.163l-9.839,16.741C808.81,149.547,809.9,150.94,810.815,152.477L810.815,152.477z M808.393,358.556v-45.18h-74.337
	v45.18H808.393L808.393,358.556z M771.887,301.776l-72.253-78.821l-3.074,1.921l53.131,76.9H771.887L771.887,301.776z
	 M707.274,187.299c1.977,3.297,3.26,7.058,3.643,11.082l17.942-6.475l-3.959-10.969L707.274,187.299L707.274,187.299z
	 M695.069,190.375c-2.699-2.699-6.429-4.369-10.548-4.369c-4.12,0-7.851,1.67-10.548,4.369c-2.699,2.699-4.368,6.428-4.368,10.548
	c0,4.12,1.67,7.85,4.368,10.549c2.697,2.699,6.428,4.368,10.548,4.368c4.12,0,7.85-1.67,10.548-4.368
	c2.699-2.699,4.368-6.429,4.368-10.549C699.438,196.803,697.768,193.073,695.069,190.375L695.069,190.375z M797.578,152.534
	c-2.781-1.305-6.062-1.551-9.179-0.425c-3.119,1.126-5.487,3.409-6.793,6.189c-1.305,2.78-1.55,6.06-0.425,9.18
	c1.126,3.119,3.411,5.487,6.189,6.792c2.781,1.305,6.062,1.551,9.181,0.426c3.119-1.126,5.487-3.409,6.792-6.191
	c1.306-2.778,1.551-6.059,0.425-9.179C802.642,156.208,800.359,153.84,797.578,152.534L797.578,152.534z M751.109,171.477
	l3.958,10.969l19.102-6.895l-1.77-4.904l-2.189-6.064L751.109,171.477L751.109,171.477z M732.098,173.376l7.129,19.751l1.35,3.741
	l8.645-3.12l-1.349-3.742l-7.129-19.75l-1.351-3.742l-8.645,3.121L732.098,173.376z"/>
<path fill-rule="evenodd" clip-rule="evenodd" fill="#000003" d="M148.847,148.847h200.41v200.41h-200.41V148.847L148.847,148.847z
	 M193.599,186.245c-4.061,0-7.354,3.293-7.354,7.354v110.905c0,4.061,3.293,7.354,7.354,7.354h110.905
	c4.061,0,7.354-3.293,7.354-7.354V193.599c0-4.061-3.293-7.354-7.354-7.354H193.599L193.599,186.245z M297.15,200.953h-96.197
	v96.197h96.197V200.953L297.15,200.953z M356.066,161.342h8.056v6.041h19.184v9.526h-19.184v6.04h-8.056V161.342L356.066,161.342z
	 M356.066,315.155h8.056v6.041h19.184v9.526h-19.184v6.04h-8.056V315.155L356.066,315.155z M356.066,283.922h8.056v6.04h19.184
	v9.526h-19.184v6.04h-8.056V283.922L356.066,283.922z M356.066,252.995h8.056v6.041h19.184v9.526h-19.184v6.04h-8.056V252.995
	L356.066,252.995z M356.066,221.863h8.056v6.041h19.184v9.526h-19.184v6.04h-8.056V221.863L356.066,221.863z M356.066,190.731h8.056
	v6.041h19.184v9.526h-19.184v6.04h-8.056V190.731L356.066,190.731z M142.037,161.342h-8.057v6.041h-19.183v9.526h19.183v6.04h8.057
	V161.342L142.037,161.342z M142.037,315.155h-8.057v6.041h-19.183v9.526h19.183v6.04h8.057V315.155L142.037,315.155z
	 M142.037,283.922h-8.057v6.04h-19.183v9.526h19.183v6.04h8.057V283.922L142.037,283.922z M142.037,252.995h-8.057v6.041h-19.183
	v9.526h19.183v6.04h8.057V252.995L142.037,252.995z M142.037,221.863h-8.057v6.041h-19.183v9.526h19.183v6.04h8.057V221.863
	L142.037,221.863z M142.037,190.731h-8.057v6.041h-19.183v9.526h19.183v6.04h8.057V190.731L142.037,190.731z M161.342,142.037
	v-8.056h6.041v-19.184h9.526v19.184h6.04v8.056H161.342L161.342,142.037z M315.155,142.037v-8.056h6.041v-19.184h9.526v19.184h6.04
	v8.056H315.155L315.155,142.037z M283.922,142.037v-8.056h6.04v-19.184h9.526v19.184h6.04v8.056H283.922L283.922,142.037z
	 M252.995,142.037v-8.056h6.04v-19.184h9.526v19.184h6.04v8.056H252.995L252.995,142.037z M221.863,142.037v-8.056h6.041v-19.184
	h9.526v19.184h6.04v8.056H221.863L221.863,142.037z M190.731,142.037v-8.056h6.04v-19.184h9.526v19.184h6.04v8.056H190.731
	L190.731,142.037z M161.342,356.066v8.058h6.041v19.184h9.526v-19.184h6.04v-8.058H161.342L161.342,356.066z M315.155,356.066v8.058
	h6.041v19.184h9.526v-19.184h6.04v-8.058H315.155L315.155,356.066z M283.922,356.066v8.058h6.04v19.184h9.526v-19.184h6.04v-8.058
	H283.922L283.922,356.066z M252.995,356.066v8.058h6.04v19.184h9.526v-19.184h6.04v-8.058H252.995L252.995,356.066z
	 M221.863,356.066v8.058h6.041v19.184h9.526v-19.184h6.04v-8.058H221.863L221.863,356.066z M190.731,356.066v8.058h6.04v19.184
	h9.526v-19.184h6.04v-8.058H190.731z"/>
<path fill-rule="evenodd" clip-rule="evenodd" fill="#020202" d="M1331.629-344.124c-19.822,0-12.558,0.246-30.814,6.391
	c-6.717,2.261-12.773,6.011-21.377,6.011h-56.325c-15.372,0-11.385-16.536-21.703-16.536h-2.066v-12.401h-8.269v12.401
	c-10.013,0-8.268,10.837-8.268,16.536h-8.268v8.268h8.268v66.659c0,2.742,0.728,3.646,2.164,5.071
	c3.389,3.361,4.873,2.68,10.238,2.68v16.536h-8.268v8.268h8.268v12.402h8.268v-20.67h8.268v-8.268h-8.268v-8.268
	c13.128,0,6.915-12.898,13.696-26.61c2.423-4.899,5.438-7.475,9.755-10.398c3.934-2.663,9.941-4.332,16.338-4.332h40.306
	c9.388,0,19.127,2.427,24.595,9.511c6.333,8.206,7.363,13.707,6.376,27.145c-1.55,21.115-9.92,33.811-18.569,50.157h-105.416
	c-5.343,0-12.511-0.859-16.763,0.807c-9.486,3.714-7.524,14.352-7.524,23.997c0,5.014,4.912,4.134,9.818,4.134
	c-1.105,4.744-5.684,8.187-5.684,13.435c0,2.758,10.508,6.565,14.767,8.486l27.428,12.362c3.713,1.796,7.017,2.98,10.679,4.822
	c1.847,0.93,3.452,1.556,5.374,2.377l16.751,7.535c11.025,4.465,12.77,8.108,16.815-0.093l21.869-48.926h110.066
	c13.799,0,11.886,2.133,11.886-17.569c0-5.308-4.608-9.883-9.082-11.072c-3.58-0.951-15.761-0.297-20.373-0.297
	c-0.975-11.717-11.885-66.065-11.885-72.861v-18.086h8.268v9.302c0,3.227,4.008,7.234,7.235,7.234h9.302v5.167
	c0,6.504,5.453,11.368,13.435,11.368c5.685,0,11.368-5.684,11.368-11.368v-76.477c0-6.626-5.503-11.368-13.436-11.368
	c-5.684,0-11.368,5.684-11.368,11.368v13.435c-6.49,0-10.993-1.089-14.178,2.358c-3.369,3.644-2.358,7.399-2.358,14.178
	c-13.052,0-6.257,1.082-11.179-8.974c-3.256-6.653-10.263-12.562-17.343-14.695c-6.111-1.841-4.549,3.879-4.549-25.939h-8.268
	V-344.124L1331.629-344.124z M1315.093-307.952c0-7.974,7.528-15.502,15.503-15.502c10.402,0,17.569,6.99,17.569,15.502
	C1348.164-284.46,1315.093-284.46,1315.093-307.952L1315.093-307.952z M1193.658-170.498c0.143-1.721,2.363-6.733,3.1-8.268
	c2.193,1.16,4.709,2.161,7.161,3.174l50.714,21.63c-0.268,3.22-2.321,4.589-2.584,7.751c-2.805-0.062-11.65-4.412-14.912-5.758
	c-4.744-1.958-9.545-4.169-14.469-6.201l-21.703-9.301C1199.077-168.251,1195.646-170.035,1193.658-170.498L1193.658-170.498z
	 M1210.194-182.9c0.143-1.72,2.364-6.733,3.101-8.268l49.607,20.67c-0.143,1.72-2.363,6.733-3.1,8.268L1210.194-182.9z"/>
<path fill-rule="evenodd" clip-rule="evenodd" fill="#1A1A18" d="M770.984-317.942c9.303,0,17.727,3.772,23.823,9.869
	c6.097,6.097,9.869,14.52,9.869,23.823c0,9.303-3.773,17.726-9.869,23.823c-6.097,6.097-14.52,9.869-23.823,9.869
	c-9.303,0-17.726-3.773-23.823-9.869c-6.097-6.097-9.869-14.52-9.869-23.823c0-9.303,3.773-17.727,9.869-23.823
	S761.681-317.942,770.984-317.942L770.984-317.942z M784.387-297.653c-3.429-3.429-8.168-5.551-13.403-5.551
	c-5.234,0-9.974,2.121-13.403,5.551c-3.429,3.429-5.551,8.168-5.551,13.403c0,5.234,2.122,9.974,5.551,13.403
	c3.429,3.429,8.168,5.551,13.403,5.551c5.235,0,9.974-2.122,13.403-5.551c3.429-3.429,5.551-8.168,5.551-13.403
	C789.938-289.484,787.816-294.224,784.387-297.653L784.387-297.653z M634.496-206.686h284.676c4.069,0,7.369-3.3,7.369-7.369
	c0-4.069-3.3-7.37-7.369-7.37h-89.57l11.151-1.161l26.033-2.711l12.106-1.261l-10.582-5.99l-29.107-16.475l23.042-16.708
	l21.19-15.365l9.849-7.142l-12.164,0.104l-33.453,0.287l11.604-25.999l10.669-23.901l4.954-11.098l-10.468,6.163l-28.83,16.976
	l-2.948-28.311l-2.711-26.033l-1.261-12.106l-5.99,10.582l-16.475,29.107l-16.708-23.042l-15.364-21.19l-7.142-9.849l0.104,12.164
	l0.287,33.453l-26-11.604l-23.901-10.669l-11.098-4.954l6.163,10.467l16.976,28.83l-28.311,2.949l-26.033,2.711l-12.106,1.261
	l10.582,5.99l29.107,16.475l-23.042,16.708l-21.19,15.364l-9.849,7.142l12.164-0.104l33.453-0.286l-11.604,25.999l-10.669,23.901
	l-4.163,9.326h-33.37c-4.069,0-7.369,3.3-7.369,7.37C627.127-209.986,630.427-206.686,634.496-206.686L634.496-206.686z
	 M670.086-221.425l7.457-4.391l28.83-16.976l2.226,21.366H670.086L670.086-221.425z M716.418-221.425h85.957l-2.766-4.697
	l6.021-0.626l34.331-3.576l13.928-1.45l-23.791-13.466l-5.267-2.982l4.901-3.554l27.944-20.262l11.34-8.223l-27.332,0.234
	l-6.044,0.052l2.464-5.521l14.068-31.52l5.714-12.802l-23.568,13.878l-5.207,3.066l-0.626-6.021l-3.576-34.331l-1.45-13.928
	l-13.466,23.792l-2.982,5.267l-3.554-4.902l-20.262-27.944l-8.223-11.34l0.234,27.332l0.052,6.044l-5.52-2.464l-31.52-14.068
	l-12.802-5.714l13.877,23.568l3.066,5.207l-6.022,0.627l-34.331,3.575l-13.927,1.45l23.791,13.466l5.267,2.982l-4.901,3.554
	l-27.943,20.262l-11.34,8.223l27.332-0.234l6.044-0.051l-2.464,5.52l-14.068,31.52l-5.714,12.802l23.568-13.877l5.207-3.066
	l0.626,6.022L716.418-221.425L716.418-221.425z M634.496-166.714c-4.069,0-7.369-3.3-7.369-7.369s3.3-7.37,7.369-7.37h284.676
	c4.069,0,7.369,3.3,7.369,7.37s-3.3,7.369-7.369,7.369H634.496z"/>
</svg>
